<mxfile host="app.diagrams.net" modified="2022-10-30T07:56:33.136Z" agent="5.0 (X11)" etag="ag5SUZ4p24Gdam7lP6gE" version="20.5.1" type="github">
  <diagram id="mNvzrvG8jwbsSCC_5MUH" name="Page-1">
    <mxGraphModel dx="1422" dy="788" grid="1" gridSize="10" guides="1" tooltips="1" connect="1" arrows="1" fold="1" page="1" pageScale="1" pageWidth="850" pageHeight="1100" math="0" shadow="0">
      <root>
        <mxCell id="0" />
        <mxCell id="1" parent="0" />
        <mxCell id="wxpGnIKAjZEVVhN0BYbd-1" value="" style="shape=image;verticalLabelPosition=bottom;labelBackgroundColor=default;verticalAlign=top;imageAspect=0;image=data:image/jpeg,/9j/4AAQSkZJRgABAQAAAQABAAD/2wBDAAIBAQEBAQIBAQECAgICAgQDAgICAgUEBAMEBgUGBgYFBgYGBwkIBgcJBwYGCAsICQoKCgoKBggLDAsKDAkKCgr/2wBDAQICAgICAgUDAwUKBwYHCgoKCgoKCgoKCgoKCgoKCgoKCgoKCgoKCgoKCgoKCgoKCgoKCgoKCgoKCgoKCgoKCgr/wAARCAFQAVADASIAAhEBAxEB/8QAHwAAAQUBAQEBAQEAAAAAAAAAAAECAwQFBgcICQoL/8QAtRAAAgEDAwIEAwUFBAQAAAF9AQIDAAQRBRIhMUEGE1FhByJxFDKBkaEII0KxwRVS0fAkM2JyggkKFhcYGRolJicoKSo0NTY3ODk6Q0RFRkdISUpTVFVWV1hZWmNkZWZnaGlqc3R1dnd4eXqDhIWGh4iJipKTlJWWl5iZmqKjpKWmp6ipqrKztLW2t7i5usLDxMXGx8jJytLT1NXW19jZ2uHi4+Tl5ufo6erx8vP09fb3+Pn6/8QAHwEAAwEBAQEBAQEBAQAAAAAAAAECAwQFBgcICQoL/8QAtREAAgECBAQDBAcFBAQAAQJ3AAECAxEEBSExBhJBUQdhcRMiMoEIFEKRobHBCSMzUvAVYnLRChYkNOEl8RcYGRomJygpKjU2Nzg5OkNERUZHSElKU1RVVldYWVpjZGVmZ2hpanN0dXZ3eHl6goOEhYaHiImKkpOUlZaXmJmaoqOkpaanqKmqsrO0tba3uLm6wsPExcbHyMnK0tPU1dbX2Nna4uPk5ebn6Onq8vP09fb3+Pn6/9oADAMBAAIRAxEAPwD+f+iiigAooooAkVeev1NJjc2PSgbz7V718CfhBYaHJH4t8aWPmXmA+n6fIMC2A/5ayf8ATT/0XwTz/qufE4mlhaTqVGbYfD1K9SyKXwm+BcFpBH4i8a6cks8g2w6fLFxH/wBdP+mntXY/8K/8IS9PCGk/+C2Kujmigmi/cVXr5ipj69V+0R9HSwtGlSMyHwL4Jh/fnwTpP/gtiqnP4K8H+bj/AIQ/Sf8AwWxVvzQ/uv8AUVXhs/P/AOWFY/W8R3OhYaiZln4F8Id/CGk/+C2KiXwX4JBwPBOk/wDguirX/fw1JFo99NF58EH7utPrdfuH1WiZln4L8E+VmfwDpP8A4Loqtw+BPAP/AEJGk/8Agtiog71oQzVnUq17fxDT2VE0Yfg58PNSsPtEHgPSfLk7w6dFVgfAn4WiLM3gnTvwtIqiste1zTYfPsbj93RqfirVdYi/06f/AL8153tsbf8Aih7GicpqXgbwEZf9B8FaTF/3Doqpw+BvBUEuJ/BWnf8Agtiro/J/e0fY/wDnua7freI7j+q0Oxl/8K+8Ew/8yTpP/gtipk3w58H5/wCRP0n/AMFsVb8MME3+vNXIdNgm/wCuktZfWq//AD8NKWGX/Ps5SL4f+CYevgnSfqdNip8PgXwCRk+CNE/8FsVdZDpvk/8ATWqc1n5NFPHV/wDn4afVqP8Az7MyDwt8O4IvJm+GmgSf9Nv7Iircs/AvwYvIoz/wrvRfM/55f2dFVb/VVY8mCb/UVnUxWI/5+mtPDUf+fZswfAT4XXfNv4J0X/U/9A6Ksf8A4U74K/6ELRf/AAXRf/Gqt6bNf2cv7ify62D4wuIf9ePNrn9tjf8An6dNOlR/59nOf8Kn8BRdfAOif+CeKrcPwt+Gf/Lf4daJ/wCCiKush1jQ9S/cTz1XmsoPN/cXHm1n9axn/P07aeGwn/PsyIfhb8NM/wDJOtA/8FEX/wAartfBPwk+EOp3UkF/8NvCceYv3XneHbX/AONVg/8AXv8AhVyz1i+s5fP/ANbXLiMXjrfxT0qWFwf/AD7PZfBX7P8A8Er6PdcfBnwNm1m/1U3gqwl83/yFXUTfAn4Bw+XBP+zr8PY5P+xEsP8A41WF8JvG2lXlrHPPP/pH/LavTONSh/5618NicfmdGt/Fqf8AgZ04bA5d7b95TPOtT/Zj+BF6PO0v4HeEP+2Xhe2/+NVP4c+Fnwj8Lzxtq/7NXw1uoD1N38P9Ll/9pV6FoOmwab5kEH/PGtyz8H6JqUUc+qzyeZWD4hzKl/y9qHv08sy2r/y7HeFbf9iu8tY/+MMfgzLJ/wAtvN+GWl//ACLXzD/wVK/4J4/C/wCMlhJ8f/2PPh7ZeHPEdlAF8SeAfD+mxW1lqUMUSj7VY28P7uK5AUCSGPIk7Dzf+Pr6s034P+Fft/nwfuq6zR/h7PMZIPt0cflf89q9DAcaZlgMYqkql0cWO4XynMKPs1TP51ijI5Vjg5pPmU9M5r9Rv+Ckf/BKnUPH9nf/ALQv7PuifaNe/wCPjxD4d0+DJ1br5l1bRf8APxnrEOZe373ib8unDq2CvI9q/dMmznBZ3g1iMOz8QzrJcXkmL9hXQyiiivUPICiiigAooooAfkuckYoI3tgdqAWc4Wvof4E/s+/2TFH408d2I+3AB7PT5BgWw/56yf8ATTP/AH64J5/1XPicTRwlLnmzpw2Gq4qpZGX8GvgpcaOYPGfi20zdf6y0sZP+Xf8A6ayej+g/yPSoYZ+tan2P2/WiHTfJ/wCWFfG4nHVcVV55n1OGw1GjS5Cvptl5Xmfbp/KqvNpnbNbEOmzy/wDLCo9Sg8qKuX2jOj2SMfyPepIbOpOJpq1NH0ae8ikMFBRh3kM8I/f1oaDqU9nc24n/AOPeKb99DRN/zwxUf+qoF7Ik8VXlje6zJPpUHlR+dWf5HvUk1n51R+T/ANPFaB7IuabeeTLHBP8A6urk2m2HlefBPVPTYIJrr99WheWc/lefBXOalOGHyquf2FVeGGtjR7yDyvIn/wBZRVLp7GX5P2P9/BWpo00HlRwT+V5ldBD4bgvP9fVe98Hz6Pa+fB+9jrhqVDpK89nBN1qO90eCao8Tw/6+3loh1PvimqiNfZGfqWkQQf6iqcOLP9xWxNN/y3grLvIe1diOb2jJIZoJuho8nyqr1cpmiZHDZ28Evn/8tK1LLUp4ap1JDD5tZnV7Q1LPUvOHkVc8/wBqw5oZ4eoqxpt5+9/f1y1aR206p1HhvXr3w3qkd9Y+ZXtngn42edo0c+q+b5ks1eD6b++6VsWc08Msf+tkj8799F51eJjcDRrHrUv3qPrDw34k8OeKpZIIPMtpPJ8zzv8AnrXQWej3sMXnwTyyeVXzP4P8beRdfaIL6SOSL/llXvHwr+J1jqUVvpV9PXx2Ny6tSOqlia1I7TR9euIrqOC+r0DR7y3vIv38H/22uP1j7PN+/gg/64+VWp4J8beHJZfsOufu5P8AljXgVT1qWOudpDZ+TFHPAf8AW/8ALGvgf/gqZ/wSavvjBHqP7Tf7Lvhjb4nUy3Pifwjp8P8AyFv+et3bRj/l5/56xf8ALT/rr/rvviGG+03y76Cx+0xy/wDPGtTw34qsYrrE8Ekfm/u/Kr0sgz/G5Bjfb0Nuq6MxzfLMJnmE9hX3P5hijRuVcc0A7PpX7H/8Fc/+CQ7fGGHU/wBrf9k3wxjxWM3Pi3whp1vk64T/AK27tYv+fr/npHz9pySP33/H1+ODh42KsOnqK/pjJc5wWfYJYjDvTquzPwLN8oxWTYp0qoyiiivXPJHDf3NCbicAUp3A4xmvd/gr8FP7C8jxn40tM3X+stLGX/l3/wCmsno/HArnxOJo4Sj7SZ04bDVMVV5EWPgL8Dv7JuIfF/jW0zd/ftLCTpbD/nrJ6PxwK9umm8r9xBVPw3Z/upJ/tH7yKtSz03vfV8JjsdVxdbnqH1uHw1LC0uSBlzQ/vasWcP8Aq4DUmpQwQyyUabZz+bHfVxGxHefuTJBWXqU3rWvr/wDx91kawfOiropGZnQ/678a6Xw3r0Gm2Fx+48ySWGufsoP+W9dRo/hW/msP7Vggoq1ToMfyfOtfP8j/AFtE2jziL/UV0EPhWfzfPnrL16aeG68j7P5VZUqpoU9N0fzrnyJ6k1jw39j/AH//ACzrU0eX7Ha9P9bVzzhrH+gTweXR7RGhx9l+5u/IrYhmg8r9/RqWm/Y7ryJ/9ZVeGGj2iD2RJN5E3+oqn/y1q5/raLOzrUKdMuWfiSezMfn1sab4wM0skE8Enl1h/wBj+d/qKuWem+TFH54riqexOg6CbUtKvD5M9H2PQ7y1/wBRWPDDWpo/+q8iuaoBh6lp0GZPIrP+x+3612k2mwTS+f5/lVn3mken72uiliTM5ebTp5jRj/ph+tdZ/wAI3fXkX7jyv+21Uz4bvuk8HmR1r9ZAw4f3tSf9MJ61JvDfkxfv4PLqvNpnbNL2poV/9bUnk+TL59Hk+VUlSV7UsWd4fNroNNmgNrHPXLw/8981qWepf6uuSpTPRw2JOkh/f/8ALfy/KrpPDfiS+0GKOD975f8Az2hrm9HmgvK3If8Aj188f6yvNq0rn0lL2OKontHhX48TwWselX2uf6PL/wCQq7zTdYsfFUXn2M//AG2ir5rs9Bsfsvnz10Hg/wAbat4Jv4/sPmy2/wDzxr5vHZbR/wCXZr9W9l/DPrDwH8Wr7wrdR6VrkHm2/wDz2mrvJhpWpWvn2FxHLH/12r5f0f4naVr+nx+fff6RLN/qZq6z4e/FSfQJY7GeeO5t5f8AptXgVMtdI0Xtj6M8N+K/Ji8if93/AMs6+Bf+Ctv/AASeb40PqP7WP7KmgbfF7tLc+LvCGnwc65/z1u7aP/n6/wCekfP2nJI/ff8AH19Pax48vrOb7dB/x7/88q3Phv8AtFaV9vjsvEfmxf8AXWvRyHOcxyHGe3obdV0ZjmeUYTO8HyVNz+cMxlJNpGKRlZDkV+u//BWf/glnp3xmhv8A9rj9kzQIx4mkzc+LvCmnQf8AIYOP3l1bRf8AP1/z0j/5eSSR++/4+vyJcSo21hX9IZNnODzrBrEYd/8AAPwjNcpxOU4p0qqPoH4BfAiHTbSz8f8Aiy3iea5hiuNJtB/BH/z1z/z0z0Hb8zH6feWc80tL8M4p5vhtoHP/ADArX/0VV/7GJrr/ABr5XH4qtWr1FU6H0eBw1GjRNzwro8H9jRzzwVHeXnky/uBVibUoLO1j+zwfvKy4YZ5pa8en/GOojhh86XyDW5eWZhPkefHVfTYf7NPn/upaufY7j7BJfQW9XVF7I5PxJef6fJYf88qx5+1aGpTT3l1J59V5oa66X8Eg0NB8iaXkV3mveKrGz0aOx0Ox/eRV53Z/uYs1oaPN50uJ65sTT9qX7I6izmvtY0uOfVZ5fMrn9es/9ZCK3JtTn02w/cCse9mnvJa5adNnTTpmxDpv+ix+R/y1hrHs/wBzdef/ANNq2PDc32OL9/VObTZ5tfk8gfu5f9TVHQaHiSzn1iKPVYIP+WNcvND5MvkCCu0i/wCJba/Yb6uX1KH/AEqpw9QCOzh7V0mnabBqUv8Ap0FYemQz+b+/rsPDesQWf7jyPNjrPE1WV7Iy5/Dd9Zwx3Hkf62q/2O/mikr1SzmsdSijt54I/Mih/wBVNVPXtB0qaKSef93/ANcq4frH74k8z/1P7irFneeTUesQwQ3X7iq9dhoaE2p98VH9sm/57Cqfn+1ST3kEPWtvZmZJDeTwf6iepP7Yni/f+fR9s0qztfPnvvLkl/6Y1hzal50vSj2YGpeaxPqV1H59R+R71T8/2qxZzfbPLgrYCSGGDrUk1nRNps8Paqc01xZy0FeyLENnPDFVOabyqsf2xB5PSpP9BvIo6ApEmj6xPDL+4rvNGvILy1jnNefzab9ji/cfvKuabqV9o9/Hff6yP/njXBUpHtYHE+yPTLOtSGHEUdYej6xY6la+fYz1tw/6pPpXiVT6jDVfbEE32iG68+Cf95Vi0mvvN8/7dL5lbEFn/aXlwQQeVUf9j/5zXDU3O72Z1Hw3+Kn9pf8AEj8Rz/vP9XDLXef2P/bEUn+r8uKvE7zQf+eEH/fmu8+Ffiq/+1W9lfTyy/8APavNxNKiH8E7jQfGHiPwTL52lX3mR/8APKWvjv8A4KcfsT+Efi1pOrftU/A3S4tK160hk1HxpohAji1OIf6zUIs8RXPP72L/AJa/63/WE+b9oQw2OpWv26xgij/fV5x+0xEB+zl8QmPbwXrH/pLLXpcL5pjMvzinHDvR6M8fPMDl2a5dUdTc+Mvh/D5Hwh8OTf8APXQbX/0VFUnkzeb+4gklkpfBk8E3wj8M2MP+s/4Ryw/9JYq7P4G/Gyb9nX4oaf8AE2x8HWOt3FhDL5On6jD5kUtffYv/AHmqfl9L+AcHDN58vkf88q2LOHybWqesa9/wknijVPFX9lR2P9qXktx9kh/1UVXIbwzxVnU2OqnsWKp6leTwxeRBP+7q5/yyrLvJv3smKlbgZ/2P2/WqU3+u/GtXyfJi/wBfWfeQnza61sZlf7Z5PNamjzf8t4KzzZ+dFWxo8P7qoqHZT3Caae8qxo9nPN/r6kmh8qtTQYYJpY/P/d1lUqG1JFeb9zLmpIpv3sc//LSKpNY/f39WNB0efUrryP8AlnWB20sMXNNh/tj/AI/7fzKw9S0eaHVPI/5Z12H2w6ZFHYwQVnzWfnXUk5rkp1Dpp4Uw4bOeHvVyKb7GY7irnke9aFlZ2N5a+TPBRUqGn1Az5vEeq+ViCfyqp/8ACSeIp4vsM99FLH/1xrYm0eCzm8+Ceqf7+G6j8iD/AFVCqUTmqYEx73z/ADf39V/9bWpqUMN5defDP+8/5bVH/Y5h/wBR+9rrMqmG9kiv5MH2WP8Af/vKrzQwTfuM1oTaPP5XnzwVn+R70HP7Ip3mmzzH9xPUcNn+6rQ8j3qv5M/neR5Fbe1D2VYr+R71JD58P+oq5DZ+TVzyYPssf7inUqh7Mr2epX0I/f1J50E3/LCo5oaPI965qhp7MPscE0v+oohs/Jq5psJ83mtSGHzayqVA9mY9n9ohNXP7N+2RVcvNNgh/6a1JBZz+VWf1lG2weG4b7Tb+PyL7/v8AV6Jo00Hm8z15/Dizl8+uk8K6lBefv683EHvZbiTvLPTZ/wDXwVqaND/osfn/APPas/TdSn/d/wDPSuo8meby5/8AVebXgVD6RVbmfqWjwTWvnwCqemzT6Dfxz+RXUQ2cHlfv5/3lZ+vaD9stY55xL+6/d1y1TT+MekeG5oLzRreex/1dcD+1fps2m/s5/EIH/oRdTz/4Cy07wT4kvvDd1HYz/wDHvLW9+1gYLv8AZP8AiFcAxyRjwJrHk4/68JajLb083w//AF8geJmS9lg6h8FfDqGxHw28MXB/1n/COWH/AKKip80vny+fPTPBk0EPwi8KE/8AQuWv/oqKkm/1P4V+p1/9+q+p+XU/4FMPJ/eedmtiHyIax7OaCGX9/WhDN537ioqndSJLy8HlVn1cm/6b/jVPypvSmaezZHRNZmeKpIYf3tWJ/I8qPyf9ZWhn7Iz4bP8A5YAVsQ6b+6o0fTTNdR/uP3dbkOm/9MK4cRUO6nTMOezgm61cs5vsX/Hv+lWJrPyar+T5MtHtDtpUtSTyZ7yWuk0GGCHS/Ig82KT/AJbVj6dZz/41uWdnP5v7+uaqe3SpEcNn51bGg6PBqMskE8H+qqSHR4IYozWhZ6DfQXX7iCuGrVseiqRh6loIs7r7P/qqi/sGf1lr0X+wYLyGOe+g/ef89q2NN8Bwalpcc0H2b/tt/ra4v7SNfZnkf9m30P8A1zqv/ZkBl/f/ALyvWLz4e3013HB58UUf/Paq58E6V5sdh/ZXmeV/y18mj+0g+pe1PJ5vCvnS/aP3v/XGrn/CBz2fl/6dXqkPgOxH+o/1lbGg/D2CaL9/BLF/2xrKpm5z1MtPE/8AhCfEmpQ/YYLGWgfBnxGYvPng8uvoz/hFbHTYvPNjH/12qvDZzm6/cQf9/a5lndYyWWHzv/wqXXPO8igfDG+h/f8A7yX/AK417xe+FZ57uSefSvMjl/541XvPh4P9fBY/vK1/tusdP9kHicPw9vtSuvI/sqX97/z1qx/wqWfR5Y7i+n8z/pjXrl5pF9Z+XBDBJL/1xhrPvNN86KTz7KWL/pt5NdNLMjmqZKeNzeFfJlk8/wAuKSqf/CNzwy+RBcebXoniTwTrkN1/asEEf2eWGsPUvDeuaP8Av57GvRp444amW2OTm0yeGXirEP7qtS8hn83/AE6yoh03Spv+WEkVP2pxVcMR6bqX73/Tv9XVibyIfL8j/V1Tm0cwn/lpJUc15+98ieg5vZGh532wyfuKkg71HCfOh/cVYh/1UdvP/rK5qp00jsPDeuwXkX7+f95FXYaDqU80XkT+bXk8N4NM/f4r0DR9SgvLCOeCfzf/AGlXk4mke/gsT/y7O803z5pY8wfu/J/11XPsfncVj6PqXneX+/l/dVsQzZl/cV5NTc9ej+9M/wDs2e8v5J/PrN+M/iqKz/ZQ+I3hy6+5L4F1jyP/AAFlrqoYILyuI/aSs/I/Z38fkD/mStU/9JZa6cr/AORnhv8Ar4cubf7nVPjfwlN9s8DeGIIf9XF4csP/AEliq/5M/myVifDo+T8PNA99Cten/XKKt+H/AJ75r9Sr/wC81T8iwv8ACKc3/H15+Ksed08ii8h8mXJqKH/XfjWJ6K2LPmzetWIf3tU/+WtaFnCPKrKqAQw1HND+98iCrnke9R6Z/wAhmP8A67Vhc6Dc0HTfOtI/PrUms/J/ceRVzTdN8n/UVJqU2bryK8upV/fHfSpnP3kPao/7HuPJ8/MdaHk+dLWho+mz+b0/1tae0PSw1Mjs9B/1cFdBoOgzTTR2FvB+8/5Y1Y03QZ5vL4rsPB+mwQ38f7j/AJY1xYnEnt0qYQ/Df7H5f23955takPhWCH/npWpZwz3l1gT+V+5rUs9Bgx+/8zzK8DE400Ofh0eeG68iCCuk0fw3/wASuT7R/wAta0NN02CH9/P+8rU/1teZUxJ3UqZzc2gjyvI8io4fDfnf6iussoftn7ietSHQYPsv+v8A/INZ/WTupUjn9H8LT/8APCOKT/nrWhD4Vn/5eNc8yStSzs7iHjyP3lbmmw2M8Unn/va4quJCpS1OP/sex83/AE6DzKuQ6bY/ZfIgsY/MrqP7Bg/5YQ1HqXhuf7V+4t/3ctc31lmnsjj/AOx76aX/AFHleVR/wh895F/o9j5tdxZ6P+68jyPMrQh8N6VD/wAe/mxSVp9ZYeyPN4dAn82TMHleVVe80HzovI+w+bXokGj/AGMeTP8AvKkh0GCzuvt0H/fminiqqM/Zo8z/AOEOg8ryPsMcdYfiT4e2N5pfkQfvf+u0NeuXmgwWd1n/AJ6zUXvhvztL8/z/ACo66lmNY5quGPmPUvhvY6bYSf6DJL5X/PKuX1LR/wB1H5EFfSmseCYJov38Ev8Azzhmrz/xV4DvoYvIsYJZPKr2sNmRw1MD7U8Pm02DzY/+mtU7zwrB5sk9ekaloM83+g+R5clc3eaD5Ne3Sxp5NTA2OP8Asc8Rq5Zw+d+//wCWlbH9nf8ATH9Kp3mm+TLH9h/1ldHtUZfVivNBOYszwUaPqV9oN159h/22rQ8n7Z+4rPvNN8mXrT0Zzez9iekeG/FX2yKOeC3/AHnk11Gj6x9si8j/AJaf6yvn+bXtV0CWSex/5a/66u88B/FSxvIvsPkRR3H/AE1rycTgav8Ay7PXwWNseyWd551cx+0zD5v7Nnj+49PBWqf+ksta+j6xBeWsc8H72sn9oqUn9mT4hf8AYi6x/wCkstedlv8AyOKX/XymdGZVf+E6ofEXwz/ffDvQB6aFa/8Aoqtab/XfjWT8LP8Aknmg/wDYItv/AEVFW1N/rvxr9Wxf+8VT8qwv8Eg8/wBqIYfJlxUk/apIYfNrBbHaSeT+9q5Z/uf39SQ2f/TCpPI964vaAE03nRZrU8K6b51/588H7uKs+GGGaX7P/wAtK7zQdHg02K3n+z/vK4sTiTuw1MsfuP8ApnFWPNN9sv8Az6k8STTw/uP+etGg/vv3FcNI9KkXLOz879/5FdB4b0fyfM+2wfvKIdN866/55V1nhuzt+s/72uHE4k9fDUgs9HxF5FjBW5oOgz3kvkeR+7/560WUPk+Yf+WdbGjwQV4lXE1j0UjYs9N+x/uPI/ef89auQwwQ9IKp2c3nVoQw+fLXnVap3UqZJBZf896uQ6bz/wA8qIYYJv8AlhWx5M8v+o/5ZVw+1PSp0ynZ6b+9/wBQa3NOh/5YTw/lUllpsH2D7R/y0q5p0XkxVl7U7vZFeGzg8r9/BWpp0P8Aon7iCrGm+RDLJ+4rQh0eeeWOcwVzVKhn7Ip2cPk1oQ2f72rH9mf7VbEOm/6v/nnXN7RkmH/ZuJfPgsaj+xz+X5HkV0n9j3E8X7iiHQcy/Z/Pk/dUe0Zmc3/wjflf6d5+asQ6DmbI8ySug+xf9MaIbODyvInrb2oHNzaPPD+4+w/vPO/5bVch8N2Of3Fbk8MB8vz4PNkqP7HP5Xn3FZe0ZmcnrGg+d5dj5Efl/wCs86uf8SeD7GaL/UV6BqWm31nH+/t/9b/qax7zQTeSeR59dKqszPD/ABh8N4LO6jngsfM82vL/ABV4Pn02/wDI+w19Wa94b8n/AJYeZ5tcH4q8HefL9uggir1sDmNWlpUMfZI+a5tNnmik8iCWOs+80Hzv9RXqHiTwfBZyyT/YZYq5u80Geb9//wA8q+kpYq5z1MMcfDZ+TLiiaGCeKTz4K2P7O46fu6r3umnyvPrq9qebVwxw+vaPP+8ng/1dcfqUM8N158H7uvUNShwPI/5Z1xevaDBD5lejhqh4uIwzT0O0+Cfxgn+ySaHfX3+kf6uu1+Pd7OP2bPH0LTx/vPAmp/8ApLLXztDDNpt/9o8+vRvHvxAg8Q/sv+NdOnn8qSPwXfD/AK6/6LLWccu/4UqdWn/z8gY1sTV+p1KZ4D8Lf+Sd6D/2AbX/ANFVuVz/AMNP+Sd6B/2AbX/0VXQQw19njv49Q+Swv8EPJ82rFnD/AMsCPrUksP8AzwqxZw+TXmndSLHMMNSQ+RVf/W1qQ2fknz/PilrCpUOmnSNDwro815fxzzweZXYXkMFn+4/5Z1X0Gz/s204/1lE3nwxSTmevFq1Pa1jtp7GHrwM0sfn/APLKtTwTZweVcTzw+V5X+prDvJvtd3k3FdxZ/wDEttI4KKn7qkd9Lc0NHh86WOuks/8AVRz/APLSsvR7Pyf3/n1oWf7jy/6V5FU9qj0NCGbzpZBmtiz8+GH9xWHpv/H1JPW5o+PtUY/561w1T1qVI3NB/wBTJW5o9n/ywn/Ws/Tf3PStfTv9V+FebU3O6nSNm0s7GG1/ceZWpptn50vn4rDsoP8AlvXQab588tvXm1Tq9nY0LOz87y4IIKsWll/ywFWNN94P3lbmj6PcTS+dBB5tedVqi9qGj6P+6kPkVchs57s4g8ytjTdHn839/wD/AL2tiz0Gx/1EHmxSf88ay9qc31ow9N0f/p48qrn2PzovIgg83/prXQTabfeV5FXIbMw2sf7isvaIPrRzdnZ+Ta1HDZ+d/wBMq6Cayn83EEH/AH6oh0ftPBLT9og9qYcOmweb+/8A3lV/7MgmupIP3tdJLF5P/XOs+HTfJlknn/5a10AV/wCzfO/1FV7yzg8ryLf/AFlbHk/9MKz57ODzaDnMe8s/OrPmhrcms/3Uk/8A5BrLvP30uKDSnsZd5pkE0VYepaP58X7+D95F/wA8a7C8s/Otay7yz/dfuK19qZnkfiTwTPqMVx5FeZ69oN9Z+Z9hsa+hNY03yT/qK4fxXoIvP+PH93JXpYbE+yL9ojwfUrPzov34rLvIYIYv3E//AF2r0DxJo8HmyQeR5XlVyesQwTW3nwV9JSq+2OarS9qcnr1l50Vc3rFn51rXWXn7n9xfQVyesTeb/wAe89evhjxcTSOT1izEP7iAVyHxM1i+tPhZ4nggm/dy6FdRTf8AfqWu3vP30uK4T4uweT8O/Ef/AGArr/0VLX0uX/77SPlsbpSqGH8LZz/wr/QP+mWkWv8A6Krf8/2rA+E8PneANAnnh8uP+yLWP/yFW/XpYr/fKp8/hf4FM0LOHzv39XJoYP3fkVT02aDypKsfbLf0P515lU7luXNNszN/qK6jw3o+IvtE8FYemwmHy8V2GgzExeRXm4mqejR2NC8h8m1rP17z7Ow8+CeKSpLy8/dZ/wCWcVcneax/aV158H+rrhpUzb+EbnhWH7ZL588H7uuoh8iauT0CeeGL9xXUabmb9xRiT1sN0NzTfIhtcwVoWdZ+mwT+b9h/5aV0Gm2fnS8wV5J7dIuabZ+dF0roNHszDFH/AM9Kp6bZ+V1P7ytCzhPm1w1ap6VI2IO9aFl59ZcP7qtSGbyfL/6a15tV2O2nuammwXF5/qK7zwfoP9pRfuPN/dVl/D3wdPqV1GYP3sde6eCfAZs7WTz4IvMlr5vE404sbjvZHL6D4V/1cEEH/f6us03wffQ+ZBBBXcaP4P0qzsI54LePzP8ArjWxDDBND/qIoq82piTxKmZXOL0fwfPZSxz/ALvy62IdBxF+4grcm+w+b9ngqT/llXNUqmaxNY5/+zv+mP6VH/Y/ky8/6uWukvPIEX+oqn5P72tfaHTSxJl/2P5Mv7gfvKp6lZ31nL9un/1lbE/aq80P2y15Fae0OinVqmPD595L/wBM6pzQwGX9xBW553k/8sKz7z99LiA1006p1e1MefPlSY/1lV8f9MP1rQvJvO8v/llJWfXb7RnTT2M+8mPm1TvPImlj881Y8meaLz/+m1RzeRNQaFfyPes+98itSbyIYutY95DPNdfuIKzOcw7ybzpfP/5Z1x+sWfnS/b/+m1dheHyZZBXL6lDOPtFjPP5ddVLcy9qed+JNN/0qTz/3lef69Z2MMVxPB/rK9M16H/QK878YWf8ArP3H/LGvo8DUNTzfxhNN5vkmD93XH6l5EP8AqK7TXr2ea1/1/lR1w/iSaD95+4r63BHj405e8vPJupK5T4s3nnfDXxH/ANgK6/8ARUtbes/8tJyK5D4pTed8Ntf/AOwFdf8Aoqvqcsp/7ZSPicyq/uahJ4Aghs/hH4dEPWXQrWT/AMhRVPDeedWR4SvJ/wDhW/hiCCb/AJly1/8ARUVX7KGfyvPuK78XT/2iofN0X+5NSzvPJrQh8iaseyg/5b1ch1Pya5KlI9KlV0Oos7z0nroNH1LybWSevP7PU55pfIn/ANX/AMsa2JtSEMUkEH+rryKuGO6lVOgm16eGLyIIKz4YYP8Av7WfZzTeTzPWxo8M80uKz9l7I7qexueG4fWuo02znh8uesPTYeOvlV1mjWf2y6jsYJ/+2teRiap62GNTQbP/AFc4rpNM8+G6jng/1dU9Ns4LP/lhWxpsMF5LHB/02rwKlU9enuakNmfK8/FSQ2fk1Y8nyZf+mdXLOHzoc/8ALSuGrVPWpFjw3ZmaWTyK7Twr4P1XxLqlvBYwf6P/AKusvwf4b/tiWOCCx8vypq+jPhv4Jg8N6XJPXgY3EnNjcb7JaG54U8E2PgPSo4P3Udx5P76tyymg+1R/v64+816fU7qT9/WpoMx8r9+K8SoeA71jtIbwQS1Y+2QTCT/llXN6xrB839x5sv8A1yo+2edF/wA8q4Qp4Y6Cz8ia6q55/tWHBjzf39aln/plB0+zRLN/qfwqt/raNSvP3XkQVXs7zyfMrQKVIkm8+WL/AKZ1XhlghFWJp/3XkVnzTUHTT3I7yH/WVn3lan7/AMqOf/WVj6l/rLjz/wDntWtI6aRl3k0Hmx1T87zakmh86XFV5rMQS13ncSef7Vn3k3739xVyaHz4qz5rMw/6+tAM+8mn8rBqn53+sq5ewf8ALesua89/9bWntQKepfuZZJ64fWJvOlknrtLzyP8AXz/6yuP1ibybW4rppHOcf4kmghtZP9ZXn/iSaAw3AH7vza6zxVqU80Xkf6yOuH8VTeTF5Fe/gTnPN/FV4YYvIn/57f66uD8SXn7r9/XeeMDB9l/cf8sq8/1799a/9NK+yy087G1f3Rx+scRf6+uM+Jn7nwBrf/YIuv8A0VXR6lMfN4rmPiX/AMk/1/8A7BF1/wCiq+zwFP8Af0j4XG1NKhl/Dqb/AIobRP8AsEWv/oquvh8j7LXIfC6HPhDRD/1CLX/0VXT+dPDFJgV05h/vDPEwv8Ek8/2oqn9s9/0o82b1rE6jY02b97/1yrQ+2fvelY+mwzn9/WhDDP5v7+uapTO2lUOg0euk0GEebHXL6P8Avv3Fdx4Dsp7yWT9x/qq8TFHtYU6TTdNg83zzXWaDZ+TFJfQQUaboPkj7R5/+t/5ZVsabpsFnp/8A11r5LE4nU9LDVSTyPetzQYYJoo5zWXD5E3lwf8tK3LOHyR5FebVPXpMsQ/vvLrpNB03zrWPyP+WX/PWqekab/q57iuw8N2cEMPn/APPWvMxOJO72p3HwH8HT/wBqSarfwV6Z4k177HF9hg/1lYfwrhg03QZP+mUNU9S1K+musTT18xV1PM/jViTzvJuozj95W5pt7fH/AFArm7P/AI//ADxP5lakM373p+8/541l7M7vZHWQzeRdf6/95WxZ+eZf9Hgrn9Hh86XzzPXSabiKL7d/zyrm9kFRFytTTv8AVfhWGbyCaXyIIP8AtjWxps3k+XBWfs2ZEk1nbzS1n2f76XyJ6uXkw8qq8MH+lef5H7ykAalZz/8APeseab97x5ldJeQmb/lhH5dZevwwQ2sf+rroNadQqQ/61PrWVrH74yT1qeT+6qvqVnP/AMfH+soOvQ5vzv8Alv8ArVfz/arE/asvUp54bX9zXfSOguef7UTQ/bLaSCsuGafzfP8APq5DqffFFU5ahl6lpvky/wDPT/rjXP6z5/m+d5H+qrqLybyaw9TngPmef+982tKexn7Q5u8vJ/tXkf8ATGuT8SeeLW4gE/myf8sa6jWbz/QJOP8AVVyepQ315+//AHdd9Lc5vaM878VXlx+8g/55fvK8/wDEl5PZ/v55/wDW16Z4qsz9l8+f/ttXmfjayn+wfbv3Xl2tfR4Ayq4k4/xJ595F0rzvWP8AWyT/ALzzK9AvJp/K8ivP9Y/0yWSCevssDojxMTVOD17yPtUn2euX+JH/ACTvxB/2B7r/ANFV3HiTTYPtXniuI+Jn/Ig+IP8AsD3X/oqWvssBV9pXpHyWN/hVDP8AhbLjwVomf+gRa/8Aoquj1i8/0X/UVyHw0lx4Q0QemkW3/oqurvJvOi6V1Yv/AH1nm4X+CZ/nebVuH/XfjVStjw3Z+dd/vxXJVN1ubmm6b+6j/f1Y/s2fzfI/1nlVc02D91+/rQ03H2WQ+RXm1Kv7476Rlw/6HLHXrHwr024hi/cjzfN/eV5v/oN5f+QP9ZF+8r1zwHD5OjWcEEHl/aq8nMf4J6VI7yGGDTYY/twqOabzZpBWfeXnky+R59FneedLXyNSmelhqpuaPCPN8+uo0eznmkt77yP9VXN6P5GfIn/5ZV1mgzfuo/8AlpXk1T06Vzchh87WYxmu08IaP/aUv26+n/1X7yGuPs5u9egeA4f9AjnBryMRsdPtEeiWmpeToPkQGubvLye8v8f6rzakm1LybX9x/rKr2cxmuv39eUaYambFnZzwy+fPPWpD5HnefPB5tZcM0/m+RWpZ/vukFB61OkdJoM3nSyeRW5NeedF9nggrD0H/AI/5IP8ApjWpP2qfZGfsyxpsE/2qO4nFdJpoz5kH/LT/AJY1z+j/AL79x/zyrcsvI+wR+fP+89qzqmVUjm/ffv5zRZ+f9qj8j8KjvZp/Nj8i482o/O/ef6+uf2YjYmmnhi6Vl6li8ijgngom1LyYv9fLVOG886X7RPPWxPsgmhMP7iq837n9x/yzq5/18fjVfUpoPK8jz/3lBlTvc5u8hnmlk/56Vh6j/qvwrcvJv3smKx9YmhmHkVvSO2nc5/7ZPEakh1jyYqr3n7nzPP8A+WVZ8+pWPSCuk0qUzQ1LUvO8s1j6lqXnSf6j/VVH/aXnf8t/3lZd5ees9Hsjzqm4XkP2yWT7R/q5aw7yH+x7+SCE+ZWp9sM0X/XWqd5DB5v7/wD1laHm1Kpw/jYwWdrxB+7l/wBdXkfjCaeYXFv/AMs69Y+JMImsJPIryPxVD503kf8ALOKHzK+hy3c5vaHm+vXk8Nz5EFcnqf8Ax8yV0GvQzxapJBPPXJ6lN+68+vucMcOKM/XrP91XCfFiH/i3evkwf8wi6/8ARVdvPDPNF+4rkPivD5Pw88R5/wCgRdf+ipa+myz/AHil6nz+M/gVDl/hnDjwfokx/wCgRa/+iq17ybyYsGqnwys8/D/RJ/8AqEWv/oqrd5CfNr1sX/vh5FH+AR6ZN51dJo8P9mmOeef/AFtcvZ/ufMzW3p3+q/CuWrTNz0nR9H+2aXHfQf6upJoLiKw8iq/w91LyIo4L7/V1qeJLyDzf9BrwKn8Y7KRj6bD9s1SM+fXrHhubybC3gH/LKGvM/B8x83mD93FNXql5qUFnYST/AOr8r/U15OZHYV/Dep302qSQT/8AkatSG886aODz5PMri7O8+2XXkf8AkWtTR7zztZj0r/lnXBUpaHfhtz0jR5v3Uf7+us8N3nkWscBn/wCuNcfo4JtY/wB/XSaDnyo/39fOYk9tVDrNNvPJmjxP+7r0TwdqX2OKPyIP3dedzeRZy+R5/mebXUaDr0EMXkT3FeJVpmx2E2pwTSyc+VUlnN50v7if95XPzTwTfv4DLLHVzR5v9X/01rlq0j0cKdpZ+eZf9fW5D580uJ65fTb3zrWOD/nlXSabNBDxXOer7U6jTZhDLH589aE372sOyvPO/wBfPVyG8n/57+bXN++MTc02byhJWh9sg8nNc/pupf6V+/q5NeedTOexc8791Uf9pQfu/wDWVl/bf+m1H9pQf8sJ60NvZmheXkPleR+8qSGaARR1j/2lB51SfbP3vkQT1y1CjQ1PUoJrX/ppXP6lrEH/AD3qvrGsQTWvkf8ALSubvNSn/wBRWtIqnSND7ZB+8/f1h69qU9n0P/Xaqd5efuv3FYeval5w/fz120jp9mixrGsfuo/P/wBXXN6lqXMn7/8A1VF5rHmxSQQQf6quP1K7nmupMz1206RnVOos7zzv9fReTQdK5uzvD5tXP7Sg/wBROafsjxKpcm1LyR5FR6lef9dJa5/UtSnhuvI8/wD5bVT1jX/J8yCj2R5tQr+NrzzousleR+PLyez/AH/+tjlrsPEmsed5k/nfu64PXrOfWLWTyJ6+ky2mc1U8/wBem+2y+fXN3kPnV1niTTZ9Ni+zz/6yubn/AOPmSvscMcOJMfyfKrmPi7ZzzfDLxHP/AM8tCuv/AEVLXZzQ/va5z4rf8kp8T/8AYu33/oqWvZy+p/t1JHiY7+CcX8M5sfDvQAP+gRa/+iq172D/AJb1kfDOH/i3eif9gi1/9FRVv162L/3iqebS/gmX5HvWhZw+TFkVHNZ+d/qLerk0PkxRnFYVNjY6jw35ENrHPUevTCa6zAKr2d7/AMSv9xWf9snn/wBRXF7M0Njw1qX9m6pHPXoGpazBNpf7ievI5ryetzTfEk/2COCubE4L2p00qp1FnqVuIq6Dw3qUH2+3nrg9M1Pzpf8AUV0nhX7P9qknnn/1X/LKvMxNLQ9LDVT2zQYYP7Gjn8j95XQaPN5Plzz1yfhXUp5rWPyIPNj8mtyG8m8rz/8AlnXx+KpanpUqh2kOsC8P7iCLzK0NM1Kea18gVw9nr0E3lwef5ckVaEOsf9tI682rSPRpHpHhvWCf9B8/93XQWc3nfv4K8z8K6lY/av8Apn/zxr0jR7w/2XH/ANNa8zE0/ZI7qVQ6TTpv3Udx59dJps3/ADwnrh7O88mWPiug03UoIZY/PgriPSVQ6wTedaZnqxo+pW8Mv/LT97WHNqUH/HvBR/aQh8vyK5zY6yG8/wBKqSbUoJvM/f1z8OvedH5889F5qXnRf6/93LQaGhDrE8N/+4og1L9158Fc3NeeTLn7dUkOpeT5cBnrM0qbHST6xBVe81j91J5Blrn9S1iDypLEfu5Ky/7Sg83z/s8tX7IPZnSalqU81r/1yrm7zWP9Z9oFU9S1jyR/r6x7zUufPuL793XTSpGlOmWNY1/yYvIrj9Y1iDyeKr6xqU/m+f8A8tK5vXte/e/v569alhjQuWfiT7HdSQVT1e9HlR+R/wAta4+81ifzfP8AP8uSWug/tL7ZYR+RP/qv3del9VR52JqGxpupYlovP3P7+sPTbz7Hdf6//W10HnQTS/6jzf8AlnXNU2Pn8TUMvUryeaWSeuX17UvJi8if955tdZefuZZPsMH+j15/4qE95a5sf+WVa4Xc5qjMfWLyCbzP9bVeGznhi8//AFdZ+pXg+y+fB+9qneTarDpcn7/yv+mNfR0qRw4kw/GGpfuv3/7y4lmrm9SxD+/qxqUxMXkVl+d/y3/Wvcw1M82pVI5+1cp8XYZx8KPEU+PL83Qr7j/tlLXVzXljD/r6zPijDBqXwY8V30H/ACy8OX//AKSy16mX/wC/0vU83E1P3NQ87+EPkf8ACAaJ5/8A0CLX/wBFVvz9q5/4Wwn/AIV3ok//AFB7X/0VWh9s/e9K9rFf75VOan/BpmhDN5VPvP8Aj0jqCz/fdKseTPNF59ZDLmm3kH2CSC4nqnZzeTLn/lnVeb91RDNXN7IzLmsfvutP07/VfhUH/LKrGnf638aupsdFI3NHm8np/wAta2NN/wCe4/5ZVh6Z/wAfMdbmmwzzf6ivJxJ2I7zwT4w/1kHn+X5s1dZ/aU/+oM/mV4//AGlPo+qR33kV2Gj+JILyL/X/ALyX/llXiYnDHfSqHeabqXnf8t4q3LO8n8qP9/8A6quD028Hm/uJ63IdS8mXz/PrycThj0qdU9A8N6x5V/8Av/3n/PGvUNH1L91HBP8A6yvC9H1gfao54K9Es/EsE0Xn58qOvm8bhmelTqnefbPJ/wBfWhoOvQfao564fTfEnkxf8tZfNq5Z6xBB5f2ceVXDUwx209z0iHWIPstF5rE80P7i4rj7PxJP/qLietD+3rGGLyPt0cf/AF2ri9kdVOobln4kng/0ieerEOsQeVJ/p37yuP8A7Y86X9xRFqXky/6+tPZs7aR0l5qVjN0g8yiHxJBDF+/vv+2tc/NrHnTR/wDPOWq+palBBL/qJf8A47R7IZsal4jH2ryBP5tZd54r+xnzx5VYd5rE+MeRWXeaxBNLiu6lhjs9ozqJvEl//wAf/nx1h3uvwf6+eesObxV5I8jz4vL/AOmtYep6wPtXkQfvbeKumlgqpz1apsaxr37r9/cfu4q5fxVeTwm3ngn82i81KCD/AJYfvK5/UpvWvbw2GtuZe1JLy9/5bmjR/GE1n9ogn/1dYd5qc80tZ95qU/Su32XtTmqVPanoH9sQXnlz2N9F5lbFn4q+xxf8TWeSKSvH4de/sf8AfwQVseG/FU+p2Hnz/u/33/LauepgTxMSeof29pXlSQef+8rm/Eln9jm8if8A1csNZf8AwkkEP76Cb95RNrH2yWSfz/3ktcNLDeyrHm1KZy+vaRB/y4+bFXN3n/LT7RP+ldRqd5/oH+vrH07Qb7xVf/YYP9XLXt0qttahw1Hoc/pvhuDWL/8Af+b5f/LGpNY8E2P+osYPNr0zwT8DRNfyDVfN8v8A56+TXoGg/B/RNBtft88/mx/88a555vaueStz471KHyNU8iC3kq78QNAnvPgJ43vYIJPs9r4Wv/8A0llr2v4zfDKDUrqSDw5Y/wCt/wCWUVch8RPB+q+Ff2VPHVvf+b5n/CFan/rf+vWWvcy7MfbY2iv+nhw4y/sah8z/AA687/hXegQD/oBWv/oqKtfyfNrdT4e6r4V+DXgzVZ7DzLe/8FaXcwy/9dbWKsaDvX2VeoqmJqrzMqVP9xTJLOHtBViEz/8APCo/38Mv7irn2zzovP8AI/eVibFO8h7VThh8mXFaE0P7qq8MNAGhpsPa4Falnpv7rz/PqnD58P8Ar61IZv3VctQ6aVIsWem/va1NNhHlc1X02yn839/WhDD5P/LCvNq1Tpp0w8VQ+dYR33/PL/llWXpusTwzR/8ALKusmh+2WskA/wCWsNcPNZz6PqnkT1lhtTSmeiaPr3nRfv8A/WRVsabrEH+ouJ4/+mNed6PeYl/11bkN5B9lriq4Y6faneQ6lPB5fnz1uab4quP+2dcHpuvf2kPIg8vzKk+2efz5/wDqq82rhjupVT1jR9ev/J8/z62LPxVBNF9gvvNlk/57V4f/AMJJf2cv/H95UddB4b8STzSyQQar/wB/pq82pgT0qVU9gh1LyYv9R5kdSWfiSx/dwfbv9VD/AMtq4OLXp/Nk/fyxf9Moakh16x8rz/3lcX1U9WlV0PUP+EksZhJ5E/mR0QzQCWPyK4OHxJ5MUkHkS/uq0NN8VT/ZY/P/AO/1c1XDG3tTuPtcP/PxWfNqU8v/AC3rD/4SSDUovPg82Lyqr3msTzf6iesqWGD6yWLzWDD/AMt+1ZY1KDyvInnlqveTT3n/AC3rG864/wCe4r0qSNPrPmXZ7yDzajm1KCH/AFFU5pv3VV/P9q7aRzVMSSTTefLVbUf+PX8KgmvIPN/1/l1T1jU/9A/4+K6vZo5vrRT1G8g/wrLvJv8AluD9KsTf6n8Kr3kI8quinuc1TEmfqV750X+orP0e9nhl/cf6upLyGez/ANfB/rajm8iGLz4K9DQ82piTYh1i+hikgqSz1+fTfLngrH02bzopLf8A5aVJNDPDFXJUpUWZVKp2Ggmx1jy7Gefyv+m1emeCdB8D6PFb3326OSSvm+81Kea68iCeXy69E+GPhv7bqkcE88skcv8AyyrhxuH9keTVPoD/AISrSYZZINKn/ef8sak/s7VdZlxPPH5dY/gnwrBpssfkWP7utjxJ4qg02LyPPto44v8AXfvq+X9k3WOL2jMvxVpuk2dr599+8uP+mNfLH7avxssdN8A+J/A1j5nmX/ha+jm/8BZa7f4zfGyCzik0rwrfS6lqkv8Aqfsn/LKvAPih8H/G+vfCPxl4/wDGN9/pFr4cv5PJ/wC3WWvueGMtdLHUqlTucmJxKpUah9y/s9fDfw341/Y7+GOh+OPDltLb3Xwy0LyZv+Wv/HhFXzr8cv2FfEfhW6k8R+Dp/wDiX/8APKaov+CTv/BSnSvij4f0D9jv48arBpPiPT7ODSvAGvuPLttSijHlw2Ep/wCWVzHFsjhl/wCWoHl/60/6V9q69Z/6VceHNct/N8qqz9ZnkGe1JVFo9Ud2G+qZhl9OeH3Py/vNN+xxSeeJI7iKby5qjg719cfH79lfQ/FX2jXPBx+zXkQ/fWkX/LWvlfxJ4V1zwrqcljrlj9m/feXDFXtZbm9HH0TnqUvZMpmHzrTEFRwd6sQ/uYs1JB3r2DQsWf8ApktaH2P/AEP/AF9ZcHetSz8jOPPrgqnQaGm3g82OCf8A1dbkHeufrc0G8gmi8ieuKqddI1If30WKx/G2mwTS/wBq/wCqklrQivPJ7fu6sfbYLy08i+/e1xUhnH6PeQQ3XSuk02byZf8ArrWHrGjwQ3UlXNBvPJikgrpqbGhofa57O6+3WNblnrH9sWv7+CKK4irLh8iaLrUc0M9n+/gnrhqUwLGvef5X7iCs/wDtKeHy4P8AnrWpNef2lYfv65u8Hkyxz/8ALOtKdI6KWJ9kdppvjb91H58/7v8A1daFn4r8m6/cT15neeR+7uIKk/t6+hi8gz0VMCdVLFHrFn4q1Wzlknnn8zza0NN8VeTF9u+3eVXj8Piq+hijgnn/AHdaFnr3ky+f59cVTLbnqrFaHumm6x+9j8+eo5rzyZf+mleX6b4wnm/cC+iroIfEk95a9f8AtrXm1MD7Iz+snoEF551r+4/5a1lzTeTL5Anrm4de8n9/+9/7Y0HxV/z3gklk/wCe1ZfV2Z+1Og879352Kz9SvP3snkT/AOtrLvNenhl8ieDypP8ArtVeHWPPik8+tfZGXtCS8m/57z1nz9qkvJrGbpPVeG8ghlrpVIz9qSTTVXmm8mXNV5pvNqv/AK2un2Ry1cSGsTeddVl6bearDLJBfT/u62Ipv+e9Z+sfuf39dtKmedUqmPeTeTdSf88/OqTUvEnnRfuJ/wB3R/xKprryL6CX97/y1o/4VX/bHlmDxjHbf9Mpq6aeGOWpiTn/ALbPDL58H7yu08K/H6fwrYR3E+hy/aIv+W1cfrHg/wAR+G9U+w32qxXMcv8AqZYqjvdBvrOX/X+ZHWtXC0a25xVcSemH9uTxV/qPDmlfvP8AnrLXB+NviR458STSf2rrkkccv+uiimqnrF5oejxRz/YYvMrn7zxJ/bF/5/keV5tZYfKMJS1gZ/WiSz8ear4bv/I0qxi8z/n7lrN+LfxZ8Y6x8M/FVjfX37uXw7fRzRf9spamms7i8v44LGxlluP+mNeRftOfGm18D2F98I/DEkV1q93CbfxHdH95FYcfvLWP/pqf+Wn/ADzP/TX/AFX0+VYV4rGU40lseRjqtGlRPmMSEOGDGv1i/wCCZv8AwU3j+O9pYfst/tQa/GvjMGK28I+L9Rm/5Dh/5ZWlzL/z9f8APOT/AJecgH99/wAfX5OEBRx17UIXByGxX2+c5Ng87wbw+IX/AADw8tzKtllf2lM/om1jw3PqXl6VPB9mvIq8X+OXwNsfiRa3Fj5H9m6pF/qfK/5a15B/wTC/4KcXXxtvNJ/Zv/aQ15F8bQmK28IeK9Rm/wCQ7/zytLmT/n6/55yf8vOcH99/x9fdeseDtD8bRXGleI7GWy1T/nrD/wA9a/nTNcqzHhfMfZ19uj6M/Q6OJo5jR9vTPy78VeG/EfgnWZND8SWMsUkVRzfv/wDUV9ofHL4Gz/ZZPDnirQ/N/wCeOoRV8l+PPhjqvw91TyIJ5Lm3r63Kc2o4qicfszDh/cy4qSGbyJasQ6bcXn+oqT+x5/N/f16VSqdFixZ3kN52qx53lVHZ6DP/AK+DzK1LPR/3v7+CuKrVOqmaEPn/AGaL/wBG1H5HvViGznh/19SfuIa82pUO4z7yGCaL9/8A6yq8Nn+98j/V1oTQfvfPqvND5PmT100qgFizm8n/AFFalnDBqXmfv65+yvJvKq5ZzQebJOBRUpmZoajD5P8A1zrPvP30WYBWhDeQTfuJ/wDV0XmmweT58EH7uoNDk5+1Z03+u/Gt3UtN86sfUrOeGXrXZTqnOV5rzyasabrA8qOC4rPm/wBb5H/LSq/n+1dG5f1lnQQal5EvnwV0Gg+NvsfmfuP9b/z1rgzef88J6sQ6lP1nrOrhjX60eqWfiSe8uv8Aj+/d/wDPKq+p696V5/D4k+x1c/t6C8/cTwVxfUTT60dBN4kg/wCW/wD5Cqv/AMJJfGaSCCeubm1jyZfIgqv/AG7Wv1Qz+tHaQ+MPOl/1Ev8A12rc03UrH93PXn9nqVj5Xn3E/wC8q5DrH2P9/WX1ZnNUqncfbYP+WFY+sTT2cv7mf/W1z/8AwmFx/wA/B/Oo5vEmZfPng/d0fVmc3tD0z4Y6PoWvRahP4xnjjj8n9zXH6959nfyWNjP5lv537n99WXZ6xPNdeRYzyxR1HeXn2P8A1A/d1rSpHN7RmXrGpQZjFbln/ZWsaX9uv5/3lZf9paH/AK++/dxxUTXmk+V/xKvN8uX/AF01el7P9yc1WqSaRLY3mvW8M99/o/nV3Gs+G7Hxhpcnhvwr5f2j/WedNNXn8Pw9vtN0v+3Z547mzl/5bRV1Gj+NoJ7XyJ4PLuP9X+6/5a1y1NzjI7zwHofhXRo/+Ej1X7bef88q4u8h/ti6j0rQ7HypK9M1HR4NSi8ief8Adxf8ta+ZP2qP2ptK+GcV58J/gze/8TcylNW1uJgPsP8A0yi9Zf8App1i/wCuv+q7Mqw+LzKt7OnsYYmrSwtLnLn7Sv7Tlh8CdKufhF8GtciufFcg8vXfENr00cj/AJY23pdcHzZf+WX/AF1/1XxtllbcOaZvOc04Png1+oYDL6OAoeypHylfEVK1XnYyiigcnFdhiODNG2QTX65/8Eqf+CqkXxfOm/sw/tTeIMeLwYrbwl4v1Gf/AJDh/wCWVpdSf8/X/POT/l5yAf33/H1+RxGaarNG2RXk51kuCz7BPD4hXT2fY78vzCtl9b2lM/qCmh0vxJYXHhzW7H/W/wCpll/5ZV8v/tFfs9z+G4byGCx8yOWb9zL5NeJ/8EqP+CqEfxpfTv2W/wBqzxN5Pi9TFbeEfF+oTf8AIc/55WlzJ/z9dPLl/wCXnOD++/4+vuzxjDqum2H2HXIPMjlr+c80yrMeF8x9hX26Poz9CpYrCZhR9pQ3Pzb1LwdfeG9Ux5H+j/8APWrn9jQeVHP/AM9a+gPjB8JdC1KLz9Kg8v8A6Y14/qXhvVdHl+wz/vI4q9vDY72qOmkjDs4fJq5iH/n4qnrE1xZxSfuP9VWfZ+JILzrPXT/GOo0Ly88mH9xWfNefvakvJv8AluD9Kz/OgvJf+mddNOkZe1LHnQf9tKJtS86H9/PWXefuZcwCo/O/5b+R+8/561r7NB7UsTTeTL58FSWc04uulU/7Zg8qOD/nlUkM0E0Pnwf6ytPZGpsQzf8ATerkOp+TXN/bJ4Zf39WJrwy/8sKy9mgNybUoJrXyKp6lpvnRSH91LWPNN5tRjUp4f+W9P2aOX2hn6lZ+RF+//wBZWfN+6rc1nXoNS/ceRXP6n2rtpIxK815UkM3nS/6+qc0M8PWCiGbyq7fZE+1NDz/apPJ/c/6+q9nN51XKkPaleYz/APPCo8zf8+9aFWNN0fzjJWPtA9qZdn9u8r/jxom1O+EskGZa6T+zZxF+5oms4DF/pEFZe1Vw9qc3DezzDyMVcHnzxeRff6z/AK7VJNpn2zVI7HRIPNklr2z4J/s06rLLHqvirQ/Mk/54y1licbRwpy1Kp5/4b8H6reaDHfQQfvP+WNR+KvBP/CKxef4jvpbaSWGvoDXvh7/wiug/uIJftH/LGGvJ/G3w31XWLuP/AISqfy/K/wCWM1edhs2o1axznkc0MGp/6PBXSTeD5oNLt9D8OQSySXVeieA/2dbGawk8+fy/+uMP72vWPh94D8OeG4pNcn/d3EX7uGjG53SpaUzL2daqeJ2fw38R+A/B0fhzXL7zZL//AJdP+eVR6B8N/sdrJqviufy5Iv8Ajzhr1Tx54qsbyX+1f+WlfE/7bX7ZC6Jcz/C/4X6lnU/9Xq2qRf8ALl/0yj/6af8Aor/rr/qryLCZjnFf2cNu5eJq0cHR56m5B+1p+2peaKLz4b/DC9it9T/1eo6paN/x4/8ATKP/AKa/9NOsX/XX/VfHJAZue1N3MxzSgMSea/aMuy7C5Zh/ZUkfE4nE1cVV55jaKKK7jnCiiigAyT1NFFA5OKAHK5U57+tfrv8A8Eqv+CsEXxmtbD9lT9rXxBv8UAxW3hLxdqM3/IbP/LK0upf+fr/nnJ/y85AP77/j6/Ikj0pEYo3v2ry85ybB59g3h8Qv+Ad+X5hWy+t7Smf0ZfEn4Y/6y+ggr5/8beFbiGKTz4P3f/LavLf+CZ//AAV60LxdoSfAD9sTxda2ur2NrjQ/HGt3wjivo4v+WV5LL9y46/vpP9b3/e4M30B8Qvjj+x1qXmTaV+1T8Ouf9dF/wmlj/wDHa/BcVw1nWVY14d0m13R+i4XHYTFUfaQqHkt54PnmPkWJirzvxV4Pn0G/kn8jypJf+WNdtqfx5/Z+WR7iz/aB8FgIPLEUXim15H/f2p7v49fst6zH9nvfjL4GP/TWXxTa/wDx2u2lhMyp/wDLqp/4AOpVo/8APw8ys5r/APd1n6lDPpssl/jzI62fEnj79n6zvrj+yvj34Ulj/wCWPleI7X/47XL3nxi+EEsuP+FseHPL/wCw7a//AB2vcpYLH2/hM5qmJo/8/CeG8N55mf8AWVX87yqy5viX8IPtX2iD4peHP/Bva/8Ax2mTfFL4TzdPil4c/wDBvF/8drs+p47/AJ9AsTR/5+Gv5I/1/wDyzqSzmnh/5b1if8LX+EHleR/wsrQP/B7F/wDHaj/4Wl8JoYv+Sl6B/wCDiL/47T+p47/n0dP16h/z8N/7Z53+vqP/AI8/9RPXMTfFb4XdR8Q9B/8ABvF/8dpIfil8LRFg/ETQOP8AqMRUvqGN/wCfQfWaP/Pw6yH7dMPPqvNNP5tYA+Mnw7ii4+Jeif8Ag3iqn/wt74af9D9ov/g4io/s/G/8+jm+sUf+fhtzTeTL/r6r3mpedFWBP8U/h1L++/4WLov/AIOIqr/8LN+Hf/Q/aL/4OIq7lgMZ/wA+zmqY2j/z8NubUv8Al3NRw6lB1nrn7z4g/Dr/AKH7RP8AwcRVmXnxA8Ezf6jx9on/AIMoq0pYTG/8+zL61R/5+Hbw6xBD/wAe/wDy1qSHUp/+e9cAPiN4Jh/5nfSf/BjFU9n8TPCHm/8AI76LF/3GIq1+oV3/AMuw+s0f+fh6JZ3lalnrH2OL9xXnFn8UfBMIzP4+0XzP+wvFVib4r+A/3ePHui/+DiKuaplld7UzX69RPSzrFjN0nqTQfDeuePNZj0rSoJf+m0tecab8RvhpLL/p3xL0X/wcRV7D4J/ae+DXg+1t7Gx8eeGPMih8vzv7dtf/AI7Xk43L8dT/AIVJmn16ge/fB/4D+HPhjpcfiTXDFLeV2EPjafWdZ/snw5B9p8qvng/tG/BrxJFFPr3x78Jxeb/roj4ptf3X/kWu0+Bvxv8A2YfB+vSXE37S/gaP/ptL4ptY/wD2rXxuJybOX+89lUOepicHSPY9S8/Tf399/wAfFcfN8PdV8SXUmq6rP5lbt5+0p+yJNLHcX37U3w8lkl/54+NbD/47WPrH7WP7LU995Fv+0j4B8uL/AFJ/4S+w/wDjteTTwGcX/wB3qf8AgExU6tH/AJ+G3eWeleD9Gj1UQf6qvN/G3xIg0f8AcefJJ/zxirN+IX7VHwN1OGSHSfjz4Lj/AOeP/FUWv/x2vkv9tH9rnwv4U0tfhx8IPGtt4h8QXcRk1vxVpMubayjkwfJtpP8AlrJ/01/5Zf8AXX/VfRZRwvmmYYxU50rLuzXE4/B4SjoVv2zP2zpNHFx8N/hhqsh1fHl6vqsTY+w/9Mov+mv/AE06xf8AXX/VfF77jyQaC+TkinD5xyK/eMryvCZTg1Ror/gnw2MxlXGVeeYyigjBxRXecoUUUUAf/9k=;aspect=fixed;" vertex="1" parent="1">
          <mxGeometry x="120" y="80" width="80" height="80" as="geometry" />
        </mxCell>
        <mxCell id="wxpGnIKAjZEVVhN0BYbd-2" value="" style="shape=image;verticalLabelPosition=bottom;labelBackgroundColor=default;verticalAlign=top;aspect=fixed;imageAspect=0;image=data:image/png,iVBORw0KGgoAAAANSUhEUgAAAVAAAAFQCAAAAADMg3kFAAAIR0lEQVR42u2da3PTRhRAdVdPO4SEMvz//0bL0CnTwgRCHCPr9oP8lPU0WkkrndMZhhInWR/ffd19yPMAAAAAAAAAAAAAAAAAAAAAAAAAAAAAAAAAAAAAAAAAAAAAAAAAAAAAAAAAAAAAAAAAAAAAAAAAAAAAAAAAAAAAAAAAAAAAAAAAAAAAAAAAAAAAAAAAAAAAAAAAAAAAAAAAAAAAAAAAAAAAAG5D3CyxIrTn8ipC+y6tIrTvsipCey6pIrTnYipCey6jTq77F5d1nguUicStmclAeTKBMXGhIjeIFIT+dtxNp+UyrvuUifUE4n546vUrFaH9lkyp8o4nGaYvVFz9NAzxubCBPUInEaCCUCJ02i2oIJQIpYtfVIQKQvs2KlQvG2XSgdeeZXHVVanyToWQce7tqC7586r4dXpbqbSfQitVfqgehTZ0erXSzOetLDhCdcYfi0NVXolQO+4EoQtqQh3s5QWhS2pCydgvQ2jdfnpF6IIq/DhCtXuAOuPTC9yq7widpE7RxQh1OzonWuVd1jlKp6Rz9jlshKq0FiiuTj1l8N+m45RYLn6xzqTK62iVWIaKnYHbUNURK6LMUOhIbZQM174tK9t03EAmCGUcOodRCRE6/kTBLCpA1X6k04YidMoV3jWh0p9PQWjPkzSZ4mfu9phJidB+PwVBaM9RLQsXKg78RJeEihM/08zcpwxtdPEzpb6PhMoC4rNpeNTr8CmYr81xgkVmKrPTGWRdjNDGQaS2+r5GYboQoe0G5dr8bQMaFTd9Vt/HKLf50gUIlY5f0prvKIlitaNUHK/vLSlrFtRKmDo5sJff/g6xFl0u3x8qHWY57V7Zw7RJ3K3w0rGmFh8ioFZ6J3fvD5WucVV4mdqJMAfbULm58ovYr7PifIXvWFnVa3xqiM5OaJsRk5SNKDuoUEuj/JGFlp4YajUCvdhC2/0gqNqaN43chmrHtyPl0qXruMfeHhIn8qFVYSslkS4jn8SZpNDi8ZtWg6iJHH9ydE1JqsdEMm63MAmhUj+OlI6WF/88peszLzdeNjgFo2Yy1Vd6bAmW/SyQfJ9hlyNh1R9BP0YdHti3Kpe0kXbo5rWFF2ujepfGofURIEelUlhe0iHDc8IRel6w9n/VMifdljpGOiw9qFFpaAfKnpGqdZLUlk1HhJZ1QlL1FkpTT9rGm/Zd7MmHqLTwWRGm2miur9nohKee2rFVPR01lu6rTr3N7gMXIrTtq09Lb9KxoewvW2Jc9Ck1g9JjXkC88mvzl/roCvmNV9etb9pOlwYO+pSmf1ZPPO2SatbZR2jNNL3qa2fpUPEqtztaz+cHc4rPQ+Op+1lo2zlSn5bNHHzmQSly6JPE86T0hQOsN83rWI3sc9XDPuRr+kL1lli+lJj/V/ixar1LculJC1r5JTm1ntczzuZtJUqVrwhQqQ1RXXCVbzs9lOrsiBYT+DZTdvPrlIrrplerIYP5dPoRalIXpnmI6tA+Jyu0Rc6ybr9OoQcbzqcrx2qkZD50WdvllLJT3fdII/h06CSdlA6RCqm6wxL/aD7dOjwrJ6MlYXp0NKZPx453y3FiKWXTJD2O5Ufz6cSNDlfDd6m6pFo79O8LFlpYAJUqoXoRpOP4dGQrTtlBYykeWdALpU3S1H51ciNK9yEqJ6F6/ofWplEGmNk7dJmgnEWmlCQ99dyt3S128xB6Pog/6+svG882td2mTxevu5RTmBa797Y+EVpu9KJb6qDTZm7UsafrFo0et9+ctZ7FFIoO6dO5xxVLcQ5a0tMXXj+sUDcTzIdO/byKq1a4kiF9uvdAbbnIk5xiUEtdld8mSJUvK3Hp+e6Km8CVXr6tUe9yx03lVfWDKXVQaM22sdqr/3UQoy4KrTq9oBXSK1JPitDWxb4676CDGXVUaNsNerVr9QtcU7qp5A1HmCw/3tPdnSPa0qeUzLIYh3YpfM3e8avhqiK0ufy1Z+YLShHa4h003RChVo26L/TqXTQ3lZW5PoRWDz2r29fz9TyEtp3jS90rzpb0ENr8Xk47da63P8opOtWO0MCbKeKVbN+TfW5K7d2QF8zUpJRkUI5GbSaYg/lGZ3HH+H41P/Oshmgw2wovci7yuOFEJctshuhc29D8HoLjLig5Cc08VbE3UwpmGZ6Ss1d5+L+8+qeqSoTeYNWcVBox5nCuNvM0E+HK4NbD0DwsxRgjJldpjDG+8UVVVXWX7UxGL99hVH/w6fvG+Cbwfd8P/CAINN2lu3Qn6eGaF0Vom2nn3qfvB37gh0EUhWEQhmEUZi+vm+126/nG6uwwmKvPMAijKEqSdRJHURzFUfr0/cfzT5NtEXqDzyAI4zhere/u798kSZzESfz673//ffO9X76xeu11MFufyXp9//bh3R9v10kSJ0n08nAX+1766hsRT5SZUpvh57H9DOPV+v7t4/v3Hz48rpI4juPw5S4JNH39GRip3vOEUK+QtcvHncYPgjBK7t48PD6+W8VxHEVh+PJ9Ffuel4+eyDY1opLnPFSznXieZtku3b5uXr6vkyRJ4ujnp48f//r85euPza9dpuxtahWieYSavNZHyfrN/cPjw2q1WiWr5Mefnz7/8/XpebNNd1keouwcaeqU9pN3I2J8E4RhnKzuVkkcJ8kqfv77y9en581rmmYWfc5jCeTC6CEfYvYtaRSEYRRF0ebb0/Nm+2u3y9Siz3kJPc8jiydGjPF9P581BenPzTZNsyxTS6tJMxJaXEM+eD2kmsQY32TbdHfSyQ7m1m/jPFxPGVEjusvbTqs65yi00KgelWredlr2ObPbGb3CDOjsJP1QlzTOU+iIILRn/gfCuEGt7ckkhAAAAABJRU5ErkJggg==;" vertex="1" parent="1">
          <mxGeometry x="300" y="80" width="80" height="80" as="geometry" />
        </mxCell>
        <mxCell id="wxpGnIKAjZEVVhN0BYbd-3" value="HardNet-MSEG" style="text;html=1;resizable=0;autosize=1;align=center;verticalAlign=middle;points=[];fillColor=none;strokeColor=none;rounded=0;" vertex="1" parent="1">
          <mxGeometry x="285" y="50" width="110" height="30" as="geometry" />
        </mxCell>
        <mxCell id="wxpGnIKAjZEVVhN0BYbd-4" value="" style="shape=image;verticalLabelPosition=bottom;labelBackgroundColor=default;verticalAlign=top;aspect=fixed;imageAspect=0;image=data:image/png,iVBORw0KGgoAAAANSUhEUgAAAVAAAAFQCAAAAADMg3kFAAAddElEQVR42u1daWPbOLJEgZCPJDuTmf//I2ffZmLrIOp9IEHcJEiCFGVbu5k4ssSjWH2iuwEpKAQFACGEoLAv9+fgLYh6L+TOsuAkrHdZLLheRO8DaEjB7kdBIQQxclmsj+dhX5xBAfs+lBgAZPcfLuDUhneBTc6B7LlRdABkL15ZPDvOVseTM76R0jLVEcXq+xr7pJp1PCxjWymmyYfJOykYOAaD5SgodtZIyJoafTgvZz0HpFC9m8J2jIknt+MXpLa9ZOzylW1JSniIIkUBCz4aX9govl5JQ5X2GBF+FpAb+XEfCVGMOAEIwFNfIBagiryJDHGWX3AVaHROCbGjYvEF2kxfDhng+cXQLWD/AnS2Gzcu9F+A1kL0C9BNQg18AboAUY7I/Beg1RD9AnQTRL8AreSdfgG6iKiYRPQL0IUhaA7RL0DnSTqmEP0CdKZZmkL0mMkRFIQkh7BDeAjHHlgQohwEZB5b5HH47CIfQIfioTANEVWPYQ94ZERxbIai+M0jXFhE0kdxm/AoYv8wfuijIJoClOQXoksRlWk0+YXbQkTVZDDw9ZoV5cujS/qBHjZKrk8ejJ25iyYfQ+qpdoQTS8/Eh5F6CqAwjVKPfJxLUB6JglMvudv1wkbnH9k4yXs8f3xEgTeA8kje4GHj+DkM3ese+LAYVQD0TkKPDxA8yf3ugMtQPg6iODBDUxf3MfQA9iQERgiLdew+jCcq9+QH8wjioxBTxjeEOyCKx5Xn++pQH1FMxk48WIc+igHlTmQJ+noxfkYeLk7C1H1hb2OL2ejjWPEnpxl6VAV2zNgKJSKPwzzghI49WnIEU4BCwPkQHufaD3FVYakQwkQ6jgUSD6hFkyaI93DsP8wrUW8J3DeWf2yhT0fsgHiQUpwD5uwBkR7vIBGAzqNSDoeDFAcIPT/+Swo8gFni45hNubNQ4dElfQ6gh7UAD0NRfunQbRl6yNgZjyzywFGF/mHM0sOI/IMgGrUmHpaieEiRP3zcjC9AKyH6MP20j9Ca6HOUXwz9VMr0AR17fAFaGYxD15TLXSN5fHySyhSeOLywHhdRr8aej8HPQyMqd9l+47OYJuxqlD7HQrW6i0FiBXwP6uFL64Psi6c/R26J9sbhGbrPq95zOyRH1U5PfnQxoN9p7EMgulO//DELE7eQPkkGeGIvYa9QhY4jM3RzgvJTOFX7TXTgJ0AzxVBsRFBuae8/nchv5kHhUwIKMb0N0RdDDxLe4/CA7kiaKpl3fD6GYkM4j4eovJcy+6jZ+69yxvqA8hN4hx+JofgAZ3gAkcfHZujeYl65VAEHA5T7MnKDUf84GEO5p2xjl7McUIdym1ve6NYPU+80skjH2opu1eLxZI76IFsGZUemsQ6ZgmFiWH2gMsDuBCt3XkZe84SMvJhc4PiKJ+6GrzouhPnjwKqQOeqmHg1Hbkwd3nLmL2POsnw9SDmuveSmOFZIIKPW4VHZA2bpsOVDAYoiuswn2HqKJq9u627kHfIid+2/5/5GafsnMrvIp6aBYoGA40gExUayzHrExJ4ifzQ2bxGosjiWfzCM7nZo7gYoDoznqoOPhmHqmN58dCnTtmeuXqxXreuZJvkY8o65klegJVcnagDEM0VwVCOfxZMzDC83MvaMpCabosPR8ZxAFLNAYwVAxTDInDgsoONTMbjk7jdANJnSPg6gEIneXdTBgbUR9VJ4dMMvdRQjD2N503BiVXyTXz9ZZuuZP9DBYvmM6kRw82MwZNeW0qhW856QbI2/m5EfzTIkd7mZTkcWVk0v3hfTeXSI9MDhAM2PNWXW9yzTkBUQjdwmiIzbdBhAw01CPMlk9ANyEs8tEGWkQ6x9ujOgY7vQIR86eyTFlL/KSUi5FaB7L3+M7fUXzRNjGtKRYzGP2ZqiWKatHO4OaBmcWYIy/a0x48UaiDLnyuHOgGJc2lOQmskFTFnbEfPFaYvGRYCGD3VDQJfhOSCI2C7Z+0nsW4W8fyWYpuxCRJn3YVEJUGRdtAk/GGP0RKBHk3gyABMiYnMC0ySkCwCNL7+ClV9IamS9YHgUTcDE2CwhRpQxRyP1ywUUHS8AXAto3VUOF0BkBL8DhakcDwIHJuEXMKDuAkSnAFVbqsn5h0vhiYJTOZ9xwPeMPvo/XWaolxDODesnP6LugydYgKfodiOz2pS5m0Yy9g8/S/RwQjB5oBqJEnUfeo745b4fCqtTYW8YHiDIpamGMNR8uKcpgwPURLR78pi9gVrtzleHmyGK5i8MRonptAg8IWdgyTjoXmZMW4lIT5T59joU91afQrh4OnGItft2I0LQYYBv3f1hzXBE3flC9/Weo5FzzjoiP/M4mzQaIRlAgiB8I56QJ4zEXAzlm+ghNr4bQ0SzcHAbHbpt45abW6RdAvfwI1iydSYMVSNzNtC0ljFaA+g2C09+ZgnWhhCp6DJKmDr+pmEeHIbSYV5H+wyioPA0xEzvRUUO2x3wTGbeUqkO39WMHE8BdvfSoY3B5orI65xAdE+GJnLrm3StBJByMFIIbZgbbg7gORvqQhBaJA7WKQ4mEF1MUQMo7yzvbiiDNLp0UlH0w9Je3Dtj0xtvDC4XhQCljk/Xewsp07ScI2q1dBKsI+sGSabO0f/fhk82ovID/c5KCwBGhwZ5GGPsOEReEUnXCL1KBbXz+Mkq5AwF29F05pnBGignyIejdQbsnPjAkDR6Pob2A6RVjL1cyc9K4u4PESaDtKX9X96JhRcZoKs1TP01fBToDFecJsQ+gG7ZQs10CthHkyIZLBor5CSnDIBujAW4ugIBpKhEmOMU3PrBtfuXgyjJxLLbgCiM+nQoKRxiWqDR42vhrMQWdX95TyvUweAbc+xp0DiW8oqLAMgYJMJJNWGIHShsIGrUKHaw8kgmV1azMk4JOw6ok8UIsh1eLGW+1yf2BkoGZ8JgheB8r8c4QHT/fKjjkVR24QODTyd4p5OmY/8Th0ioBx0QgJnPT8fIE/b77H0nENYlnYVo/EH0gGJFkceWUs/eHXJQG7QBTYg25PKGCElY5Tnoj9TND46tk91DZnEkiUf6I2qhL7ttQE9b2AaLWrwCZKMdZ0HZ+EeGk3YxyfPc4bu7glUkPhT5wjQJtsKSUY0gTUYZwkty9LdvdYETRhl3yDNjsGulMGksY+lojuREBwuhVVwDAOvBmahfM5WsTmbIjYmM8rNhvnHxk34QHeNkaQ8nsGVmpSmpOBMRN3GEfGicg2NEWctQb9ly8IIwrJWYzD+En5H2+grM06D9puAc/TlGJjXPUFTw3kUqyEuxKcyVOOkoCgjnh2BtL2BonyT1mW1p7yW0hLeyulektLwBzYnWySnO0w2h6FR/2OoRWuxt2AMnWJKQcnBJbfrPrqTaeBRuArWeH1pExIUDrZg7FWYIxSD3A9dcT8Yx8ohrnQY3bPC/7LAzmuX0QfSTFJ3krVrzOLju01zGBy9Oopd4dlMjFlC2CDwm6yoloqm9Qs8NNOqis/Q0coNIa4kcOO2Skrc+aqJUP8Kaz8R8grn0CGsxZOaQpYeFmxuONY+/sj9QtIePFByceRvEjleLLQJVib0kfp1vFaRCBpedgaUZ3HpIeC4EvZgzSitF9WM5NKdQfoDt0OPFC/plOib5DdeES2O/Sb/cRPiFOXDas0PIllBULRNlVCYoS62TD6cYBHxwmAY7L7t/sc+X2IyKYBBlVpW23TL2nA5h0/kw62Pa6npnLcRY8wFPa5QgpZRSwl0bpfDSazaeYkoksK8OrSbOHPklRm0kAooGCSdAkNSSlFpqL5sHEZDU5l3XZZu4lPOszt18CwNCVyPyIYVj1Z1EnhQkpYYUgoJauNm8kgTyfHjVIn+oTvlN4dg6pLKlcY2JyYAG71EDsgtWtVc+AjeS9R/uqkKHzRPHxXkr5BRodFF90OkWOZkMqFsAaZY8JSkENKDd6L+LMCncNypQVK2V00poFn4EYZTheEvAUM5o4GQHWS/xtFl8J8ykELNS9ROfvF/B7cRSeIRYJmJzckuJp677FBekllrSqWd2y1Jqvhbu68mt8RyBOO6ndBaRgmukENQcXC84UZLbwhCiumIVZDe3CZxP8hzobtjZJT1NVOSkXrUpV3Y3W+9zcyTpNOR5iGLdODKV82m3JWgqK5KLlpLNdHRdeNmF7u6vqWGjeJrkSP87iqACjaLaRpn7OfZBp1bm2WV9uExTahcOdYl3Wp6RWjiIhisE7AD21wJYoSw87PXEMvmd96VoqgCmhD4o/obnzUsppQx8WoJ9Nn5I3w2Sz+HlFKixmhyqKhpxvnPgLkgSk59FUlGgI2gjexfUCxe8oMioze6l2StRp605mg2zENM7xfLFEynDVnhbztD58lLKppG9S58ABMbtpEXUxXOcoAt2yFZHwJMYY3FiYANciW+kRGregCl9Mkq1Q1JTk1owaPpkaoLGarcJG8v80sAACWd/iI+kbPo1uC5WYtiOZBSn1hxE3kUyAR2X4tk3fu2mRSM8OfVJ+H6WD2lnkgBpcrt0RN9Jx4Gig9NA6i3ui4Cia/i5UOSrrXkyd0BvQgMS6PYRp+wh7YGyUNKJqkDRibrBVNCtmPBnkWRmcBRb/uU61CkSEFzwHd+qlozNchE1eMrGAqoxLBEPgJqUkUXU9Zhc/AMtutTPX1PBTIF58r8k8QpvuIODqLHwA6C6T9B7oDjhkYunx1D3D1Pyv43Ij0/4ZHnOmdPbyyEO5OEh2i1rStljKoRml0wyOjR0h+i+BN0APgXpcgOhKmXlyqrKOfF1ZCJ9b1SG8Zi6JbhGNhIgtNCOSx+N0qCI8PTND/38k9icoVhvlZjFPtuvbU9mGouMQ9oTtGmUklJoLQSdKf0UYgjWLaL+dfg23uI4gifrAbrHvhxImflhdRMuRWHgbNRJSSlafaPUAsJLkNDvyBsMkrce7Q3JGmmAnM9Q3AvPkdQevcqQoYQTAGQjG9kopU4NBG6yzy85E8QGisJjKEPvyFegK7OW6v78TAw0DPJ7hpRON2HnMDVNo06nBrpLf5I+XGZJrqsaGXKiDE16SNE1WWBVEc+FwRNGEyJhNQgGl0nKpn95Nc2MAbVW3WsX9QNPiipLj2p+brcWH8dHgAa1S16Z4mDhm0YppSR1n0bSblrOYiu8xL1jq5gYiLmOoCUMhdhF4JFQovAzS2b9SA4EPZ1OJ4UWfTqJAaB++GNWQhiMvyzjJoWoJvI1McYknt6/Ank33Ow9UPX0/PwshegR1VrbxbdgaIF5z3dD47RyzeZZYmuCooCfnhL1i2a77GcjO3skG6Wenl+eoKGvEsJZ2hDuMpznaMZ4rszQ3zXBjJmfdeYJCMPPpmlkI5umUY1S6un5+YRWtF3S3vqZ/vowA4QzWZAqFQ9qPURcYeZzU5jt0jFsI4KxQx05T0qp0+n56cQbbw3clc00pm50GeC51ai20ogyHFK5bKQOOD7I3q2ZH6KjplGqaRqlnk6n00mdTk+NFjcJCLNU5FlwuhEoC7TkShtfwNCi+qNl7XxjQT2EM7zGGqSmk/XmdHp+fjqdGnVq0N4gqLWmDjJ3jpuUICNF7r3H0aFzgLaIOv6nlI06nZRSp+eX1+cn1TQNeAG1blute5HHsPweAJqzQayoQisBurbjNIWpy9BhgbNR6vR0Op2eXr59e3lSjRS8tVLotneZ/IsgIz9J5DcMWB0G4kAMRSZb78TxvS9/enp+fnp6ef3x4+VJSaFv5yuodUBQJ/dJZpBjZYcpxdDFq28rKYqRnL0dswQJ2TTq+fXl+fXHH3+8nhq213Mrqdtb23YEhZu9syVMIjOz3mfruswdykSe2J+sfbORK/mdAyWllOr08u31xx8///x24u38dqXWt1vbDjYpys4zuyMVN5AxJSpTdAuHH3a0mmzU08v373/8/PvnN9X+5kXo9tbebq3WTsbTlfj8lh/hj1xxh1hglLjvcDFGRY8ApFSn59cf//n5119/f5dncRZatwOeppZ2KGASkUUaR5ZLEcUMK09n7X2EwNUGQ5u2a1Ol7HS9yaZRp+fX73/8/PnX3z+/CfUuBdu2bY0GNeKuRwU+Q1muJ4Eoak3s3bqJk65QS0FpDu0pA3YBjTo9v/7486+///rz+/NJsr1dL9fL1dikvrR2DM+g9DZa/VykmTDPD+WOCVLazpfEZCzIRj29/vjzr7///PEsb9fz+f39/H6+3IzXFC6/cwInzzutImOrmmdZm6DR8cONkASa08v3//z8+Z8Xxevb799vb29v75drq11mFuPp8LbkcxjPjK0HdKPkHYeqeIaDWoXozPy31yfZXt661/l8vbWt1rpPMZvqJU7iSQtnEe4Ft1ApUqpOUMK1T6aPhuyj0aZRGu31cj6fz5dL54bq/s9QSi+8xaP4XExFTGu9Q1mFc6xJ0GGdd2CoV7yg9e16awnB9na9Xi6Xy/XWat3hSWpT+O2btxC7wTbR/8Rq0VMVKLXO8aA/Fp3+JkhgkDnV7fXy/vb+0ujb7Xq9Xnt+9ipU01kpZuywMzZF864b4/sxs4LIc60GZRyjmfmToHB7tiEE9e3y9uvXtyfy/f18uVyu19vNqM7B0qcWiPNnXh4SYr0OJQoCjlWesQvqMCiEg8C3l7df//ftxFf++ud//76fz9eb7kXdqaZltnhh5bbIW3Qju63VW40aItzhiezatDv9ef79v6eTuLzo3//959e/b+frrW3pF9D7FTlj0C2zoo6Ow0ZWfkM/n0KAJIWWWt9uZ9VIifb3s37/9c9/f72dL9eb1k7Bt5+w4yr5niYpw5ZAVU+BTlWuYZ4AOPMoid6+t7cLhG7b2/n7ieffv/736/f75da22i/3TkXwrClOXueO32iglnBm/VDI8SwM3On1Tj5Ot1eh2+v1en17PfH2/vbvv7/PvdNkpD4u9a4aWaYUKV3dt6ILZENBF/5M3x5QjVYI3V6vl8vvl5Nor+/vb+fzwFDtJkCTnVybIer8oGaj1FMU2+DoQmoZis671EKwvTXX6/X9WUG3l8v52rn11KZDjqkleO43qG+Nla9PaHoOvnWcCEFqIYSgxu12vZ6flKS+Xa+3262PkzTDqobt+DniPS3rl3fGSLOygmA4e7m3SNSS3WwwtLK9npUE2/bW3tq2X5N3axlruEfLUFY2BhEz7HA82asereP9qQQ6PNEn8GXb3hoJwbbVbTsQlCE/p4toNxB5cP4kZ2dI/zJHC8VnMaeioDY7JAktdSMlQK11a9bk98RzZN79shnM9AfxeloFBSlylpo/MYwI7jfx61aXSUJCCHbkbGkS9only234mW9hW2yt41JZh3wsyPQVLNHY2ejuHl7dZjTo68AHJ9SL4EVBV8dKOMOpNLSbTS89KHy2RTu8czRzmoeWSPr7tF1fBAQEhRdypsizofYMr7+wcmT6kHn7hChTztIUFlJRyKDuu/Ic2kVjmxCJymm3gXREh9bR0Cjyllgc6BNhhmRohLcT1p2N6pjw5fdy6FEZUFHsRHH50f3y2E63ejXKmeQctxX2mDSVtpYs2zWMMzx/Z/sExIe3o+6CnUKCfplt+EkvoPG1U61VTxRQlCsOniugC2Yz+Hju48/Ty7RX2/x0kqNz61ycXqWx2Zh+pm4vPGOhH7YYqZY1mkK0bNZyQuYnjkwhUsXyG+IZR4l24Zaq7ok2Mp2pHVJFGsjt8RSjK31qLzjnEjTjRKS8d4qd4s2Ra2d9QMsM09LHFDj4E7s07Kg/w9/VFfk8orMJ6qVDkV6+RApP7s7P2pFSCaKsp0ImSrnvgqeTFpI7ysNMDZpuaR8vV+DueIYXLmvDyZowR8fh6Jvcy58fmS8pxS6IbkB/rxwx9Eg3j42y/jtQ/+FhAUNHxjBDiKiOiiMagtvjmSnrAjcANInoekAnD8c9RKTgOuQWZyE3vewJu7SjQUrQcYOmBe7KkjCA2vnMEaTYpEQp3kV3gQuS3xpuLJfH9VfONc9VbUSYRXuCceGY8mpV1BWOsFWfEmvq0Sq9r3OzHEcIPeNb3qN9mfXotWKnd2wPqHeBEGsUgL8qyrzw3+XF7Y3SLH9z9NfI/juVEeUdIcWWRqnkaaLw88jQ9u7ETD92eT9BYVkdJxeS/V7Y4jDPdniDGPkM0u6nuG9a2V6FvPMDjWiaiLNyHljtkUtVlJm8/4UklhCZ/wxre+KrIvfjiXxK7sFR8y5sHeWOcfzkfhuHYWhMUqYC6mDXwy18tqKvYmKpC0exlZh+C0l33hsDXnL49WMn+AiAFjj1aYoVZJoWJLzHD8CHADRRU16A6HQ3J9YH7dNPZIvKkQq6FFPKjos3CEy4uyuOkQ/TlIvx3dlagBfFvF0CR383e6MylO9JNzHabl9IJwvPsB7PFKZYphEcuHG8iQ5EgbgwAoML3aT8pHKOBLsFDD0QoraPqiDU28btdOiLUnIGVp4VLqG+vZ/RxCzGuzO2idzjt7oGqqMYpQwcpf0Q3A3PfEpBzSfDLliSgYmo5C6JKmpgwg89Uu7bXrm/X/y4SooJis3FJkPYrqn3eHDmvOOxsId7yftYddAxB2FZGce068+7XF7uDYWDynxWcbIgUrqjPVBJOI9i8TmRENmQqVhwInBkRAZxJKqKsiC/thbHrAGEEMJk7DESeR0F1vF1JW4zxwGYiadQaSpCHFCtFudEaroZ4DxBUAfU61M5ke2NKFJReplOOvj80Aym2LRyEZm8x3gM7/qh+aXRo/J0ijgsyITmIJ3sJc+Gy70OXXVhd7b9K0XaM75YdlL6M5XU4h1vHveFlOgvZQ7hYw08OjacmcfAcmEo2AUjZ5SOmDHJeFKzDBQ2Ui4c81xFdoDdAwv2Cl+wgKCFIzLwOJDuEdoxG2dMxFbhAJVHRRRzGIqxOXIpHFxLxlmAPq7sYxae2Rsd2RY0oRpVweUQj4Spvdj5TjQygVBmrFDK1GQZCleS+Eg8hcil/ApGwCahG8Mz2rBPMnl4r/2VlXd+uBOiKFUPHKVnHk+wy4ditHbQjut8lBiAHK8knXUgZkqpkcBzwm3CQFYKM/38USAdtlld6SVll+MS6hPuHPtJQXi0qD5pl4ji72ZUHANNGGMFmdSsZtNs72HxoRwocJ4W9dQv84X0Gfs1DEKTzi/dIdRA2Kj6+IiinN5T7MxuxztsXdHv7ZGuvjAz//l4CT1iFMxEESgLMlh5FCAzzyHoG3PGHT9qwIRiS88xSzexBBcBavQEEPlmFA8m9CWiztLkBcvOoLLhF5Gw7WCQg1rZULWvF5W9TI4wuKTxBKHIR2eMKcooCF0yke3xXhTTyUEXCRljYeL3pL40m3EkW3PxMfEUM/C0zbNMTLp3f1MUe35ARMXkepB/0xLZMDaxufuHxWxK4GMUkSmllykNCOPHk/a76DMC+EyQIqNAM93ezPXLI+XiwhzgUyGKUdd2fDojUzFtFDoN+2593tdY44wc/U6Hp1UX/ZZwn02TJkmbsVPSNd9Mad1AL+MTwskC9TnF0OB4Uc4Gn13cc46UnHKGOGL8PkWoNMfThhBy9DPGf2JIUcwrP/94eGZvVY4oC0eLkkE0lXpan4ufKAE01d3H5EjzT6lDSxLMMliPSqf+afco47KE4Ucw8vkOVOelwvW94bPOJtpeDpTik+E5TyhThSN9FxWjd8qeJw9OtG2/B5n+SsrZhFuFEi5cu4kpVMUA1Q6FNYBClEh8ttCB3rSfcAjNxIhCoialqhxtakVoTgPx6LFU7gNM7A8zWm3Fo4joEjzjam0GGJRWTKgRo43cW/l1K1SjKOupgLJpWUi3384dADueiYMoUxwiUTiNnAaaTcHM5kXTE8dZZKeT0Q8nXFAsAzS8o4IhJowC19SFVdYPqaVtljo+KUBZ5NNjKaBiDhVYnpmp6iBy8dUnnjKLskyYYeWnLovZwgAsSSnUgXW5p4kIKs767lKGIpcSYfm1L3h0k4QvTdNgFsrjIo+0Qp0PaGIeMTcAc0E7X1FZEJYQNqlDkVRvMwB1lqYQoMmlD37iVFymj0a+DLGMpEjhmeAoSgGFcOF0D89Mq9ndPPs1Zpb5f6HAIgng/wHpIFFOzh0BrwAAAABJRU5ErkJggg==;" vertex="1" parent="1">
          <mxGeometry x="390" y="80" width="80" height="80" as="geometry" />
        </mxCell>
        <mxCell id="wxpGnIKAjZEVVhN0BYbd-5" value="MKDCNet" style="text;html=1;resizable=0;autosize=1;align=center;verticalAlign=middle;points=[];fillColor=none;strokeColor=none;rounded=0;" vertex="1" parent="1">
          <mxGeometry x="390" y="50" width="80" height="30" as="geometry" />
        </mxCell>
        <mxCell id="wxpGnIKAjZEVVhN0BYbd-6" value="" style="shape=image;verticalLabelPosition=bottom;labelBackgroundColor=default;verticalAlign=top;aspect=fixed;imageAspect=0;image=data:image/png,iVBORw0KGgoAAAANSUhEUgAAAOAAAADgCAAAAAA/RjU9AAAUeklEQVR42uVdaY8jyXGNF5lFsrunu2fWktaSvRDgAxDgT/7/P8QGDMGQDFi7q2Nn5+gmqzLj+UPWzariVU1209z9QNawWfUyrheRkZlwJiIilPSC1K/6LSgibP1L+n73QvuF+udk4OcoEy+ICAQiEEABKEUAQCjpf8CpBwO0iIWoRTMx4cjPAuDYfZq3k480/Mcc/0ERbg8O6y8lcAKoqnPqBQI4iAhppAGZXylz7+PmU0GyiDRyZOTgZRwfWL9l6zrHnntKRJz6WA0y09CUHylQ5xbiBFClkGakQTOfCcDglrd8DhH194defkISrOXHsUfnKFZOjsHwd1HjTAYB9csbnwlMSDGhMVhEpNERzG5uFx8/PVFGFXQU4LbB7fWUGPo6J1V58LZJiIaokVTvEBiEEHGmFRxSEe6+/fD9/xoNHLsP/cj1SksPMj5i7+HYZfblG7d6/PBw66JtYkGKxBAKiU4EgcjCw7/qr/wPn0mCB0mwetiugu4jRRwJrwaFrk645eMvHlYsnoqNiCLEIrcIERaUkMc/vv/WVr8PRh4MUPoOZvYXJq6g8j1u+eFXv37vQx7WahmjbUKMZpI/beJ6HYr822/u439/IscE4af0jeCh+HioQvfxoblOmkXCL7IbIgavK2V4XufP63Uwl5G2waff/91vP63XUY2HSrCMZi8lv6k430QkC8Ump96pIrtZ3XmEp6/PH3/+vH7WrypOLfyw+d3vuP7+K8UGzcPPJ5HTXhzyZ4zF89cnE+8dF4vVzcKHRba0GMSKoEIr8vDxPx6++6z/sx7xNH7aQPjC0to2ivZnMm6+/Hnx3t+9yyRbLDOnblHwNs8RI9YqKPj8/PTl3/79Uf70RWxIhv51yK+Gx5oegqDF/Onnm+/9bYRmG+RUaB7ofLaE92pG754L/tf7f/rMPzIOaam/lPx2hRsRIWjh+aPY56fffJeFxYaizseYR6N6M9sUtoi55d9/fffPd/LD5/TE3A3wPPj6Vpfkh/ZHMhZPEHN6d0u3yEHnKaHIQzRxzvvCOe+L+Pk/7375L8hJ2wrFfluoOJd+DiCsGV96ThoKETNbf35875Yx05VXJ7YJgdRssQGwELP8x9X9Py6LH56iGbvZmr+kevbTJqJ7mRSTIBTm68cHv9K75a3z6mMeoyOyd6QFs4xFWP/h/vG7oiCxS0Uhx9OtkyFWH1l5GbEEtNj8fOMW7nb5/uZ+sRSzCAA3ZCgKqDIW64/y8Nv4t7X0tNRv4QPPGt45LMRajwxR5Jm2WXrvb26Ke9w6SAxRvINbrmKRq6grQvjDzcM/8M8U6zy938UPzy5EdIiiiAFBGPPMZe7L8unL5oHLhWa5CT1WASEUAgd7fl4uHyV8zMWkFfJ9X36zG+BuhR8mMW07jEILvnBZQVksCu+VWNMIXSJaDMGct5D/ePvwa/sYOjL0B5eFDpfQYWra2CFBkWSHpMXgtfDBxPRhsVoQkRR43MY8zwvnA4qf16v3Ip83Ys1tfWeIcQF+PSHDRoqkBdJRsH5ePd9a7iJEBE5MKAoA6hg3P9w8GH4KYrWSekGJECKpfHMx/rJtlSzrXqQJSVKw+are3WUuenEwhjw3cT6LpBOLn/PbR5XPa0nut62iqALsRfBtFYHQIt8UkBQaRBA2brla374zHySs8+dNMHWZmRHGIoa/rO7+HjHUQHwrD0s/cyGpDbIaNMyGYjDQQq5fNItY3GumyrUVRLby3q8L9evcvuQ3Dx6fnyWmqqC/ZITYWWFrzLD8bLEQUUqMH1a3S7gCsTC3cHHh3UYLIg/FX28ff/NjoLUk2HKfFzfAQXpKqcMiLW4oFtbFh29U3TJbBsko4Wb5tF6rF7Ov4d3jInwsI37bBnlBfBwrkjKFUpZWBGEsCDIUsnjn9C63DT0Wulmtvnp1lHUMf7l5+KYoSKIBiNfgPkdCfSp9peEHQDLmT2IaP9xFv8Lixmd33p4//fRXVbNg4dMme2fhK2mdQM9XB7EJ96mWXaoYaWHNyE3xi3crvXk2v3p8t4w//WkpzLNMilj8dXH7wBiVjRe9YATEDoRl3FCIQU3FopjFaAXzX1Jdpv724f5BH+99KJ6cZ4yhyPx7Z89FJcHLBniOwKwLF8nRGEAzFRGDMFoM8Wm9+XC3cs4zRr+4+/DwF6eq6iLDp+WDffrZzIMXDhBTdI01QoMAAkJJgUTVGEKx2WyK94uVk68BRqwe7j+unXmhxa/h5p0+FUmCxIsXCHkaQlBMTUxIQmgipmZmRRGe7t4ti83Ky1KwuFllLkDhJIa/mcuw8Wcqf+7jpTmmpnVyHwmBioARQIxhE21zv74PC3PrW8v15v0miBQ0kfhVb50WPmXwLwcRp2aGjXqZiEQEB4iJAGbRK5iHfHNThGUh0d895iYUBiekPUUVn/6YZ3GPxyNMj5gyBKNzJoTAjGtwU2zyu5AvnkU3WN4T+iQQNcYgYp5j6dhLuP/jy1mpWpZKUACEpKghhhyRlMjcf5GlYGVORKIVZqQwN/9iDBRH1S8GRZjsUIRiJEnzgKXoDdAARK4yyAoLusVtUawLpVBUKP6F1BNHV2jGYCfGpgYREVeFDovOLBYbFzKHAisvbrlaZi4RHwL+jOD2QjhsLkl+IEwjhUInZWoBwIccyDOnkLXLWERLZQ4TeRGAOKnKhp3E1CAGQEWEhqgxxlgoChXQ6cIxjzFaskH2ik4vAW9rqgMixKGG0aZtJlFEKwskIRJNPISRXDgtnvIQjWYlQDkLvs6UCIb62TDdANdQbxMASNMQMApURQGjFdGcIhabIlbR3cusIsTUhd590JfrrrSiKTsY6q+DJBjNx2gWigiIWQhlwYJsTZ/NgBPTFwbugGOcOE1EkKaJyDRfZi6aFSFCYDRL2X+nso3TEeIYKrM3yWjVMMREBCpl6VtoFjTSQoyp9GJWIfIz1tTQA4K5wuBAAkkr3YyQKcdXkiGmMAmTsuBIL+2izizw2tbUnsvZ7s484gYV9TYptbREY8n4YiKpIjSjJC9ajjbnxNd7WzIttPomeaoME09JfpcmQgXSZRACkioUltkEeCrjRm8KoI8EvcwXvYLFYQZOCGkoO/AAodEUYmaWNDPBt1bR6bRRxYDQuhCroLCV+aKV6+6d91OEIFk1eJeVRTOjlf0ZAnQCPeZyn2h6r6XVJosWiu3mYOyubbDVHZFmK1jGQxVIWccwY7I9E0k0x3Ne91kGnF45Bt3+l6ny2r5NLCkCCgVA94/IGuBMVK2nlkDfXsprLBGwr51sdd2P+6EWkSNS6QkQpLIg6sowRWi0NDfMXmV7BnzYcjQlvhoge3VQCqvGD7bjyJRTKFk3NCFKI1XP/qV3yRL9zPJLSx5qpIlpAIk3sfRwTQxLT9MkfF1w4GjdjaAQECpgrv1LYNLe8r+Zs4m2/FBPGgOqKAe2bC0QVISrkUjTycUqt+BEabEslgJqKban9SHVGowkw6ZX7dgwiN6HJK1qriv9MNSpitEMpcGhVtVqQqXyRQ3tAAfVtBqJNGNogIgTrX6pnm2rftnP5kArfHWoSHpJUNSpU8IS80CrysUtCC3THGVX9cx9nR2K1vh680j+ZB/TDn8twZXlvSQHoDK8pE0l1SKTLVVDT5FyzhrTCxS6+X3LAYOlyUv1m34+AaLS0EqFEsMotSXRfFEIiFZnLnu0BrVuVtbKcSHWxVJA6+FBh/f6+RS05UHTKBuqaGxll1/pXkgaK6/O9tRrCnD7ZFcldlSRwaGUXyNPgqgA8vRkCVW4a1oia91L4kiZW9kNkJ6/RgCW2oktYOOmWMrJBAZRoON30emTOSFDa8JD0s6ajjClMeW8CaTV5VBHKbY8QrvAXs1a73iysvvChFRVFbScVvnns3DRxmuiP5vQ9gClwpZ+nNLF10/Z90wupGRtQooODL0/2QJrJgMFCBESbcsqV6ei4hctaW3haGsj91QtgkI1glRlySc4C8AOw679J5tnpTQ9fuwALK1wgE8fii/ZtwFaTsd04BF+FhdTWiBq2+o1pbBiwn0BbtW8pTuhzonEqrVilCISQVOgJO89CXKOQNEwFHYtkDWNan9hSGoNSx9b0DmYFJc3MzVow+aTjsxEtssA2IBoQTC0HAzbTnK45jkaGTg8IE1OScDQ4uqz2KB0c3j0gjfYSvp6caAXE46omrDHXFk6gp6KnlZsQvsuydZ6HoKtKNeVAkdSdo6JbxxhDVFQET6cmE1gINxvLfmu+eTWYnXueOBDZdjOP9C0X84VJmr3xz4ODMmO+9Sdhj3R1JAkbtoZpNnm6JuySH9c0XhW7nzew8XYrUJWXA1V+cPPIboWna6jYNXf1+eGwj26ZXbVSIe/PpQoQ+fLlKqqT4ffDDCTvR/7INXilodGyZCPUlFslbEBSG/bk3ZutqfsJonLAY9VaqiJHCVBYOjmaf3lJNU5GcFOMVJalSzBcV50YIlD03e87f8w7Tk54D1PgN/uZRcR0ZkWTJS5AretBydr3xF7MTTM3p8swO68j2zF+unQMDu+/p4oejq+SWqytyRntMQu+Tu4mxnD+e5uyrHzKuaC3CaReqqHGQtGB0sQmIptBzpTqb3pwRLEVroG2asle9yJgngJbcVRTOZ4lwuMlToG2DXnMUARqpwcJ9j1NJyhmYFzuZgjmcxUPjrRMXh2P0oRgR60JgvTF9kuqeB4ALPhxKz9ouw6nZGx4Hyp4D4vnd/F7HDuwM4bcMYx1533PNiF9nostrc8w7ls8FAJ4ojv9dYNYZ8/nRWlPwrfVHP1VhNQh87h3MsU/fHO5LBRaW/HOj39PjNAnqyg2B8eTtr+8EwSHF6Qyr6nx3ae0MxOg2fzMv4oAR4YrbD3X/ByEuRojOIQia/amKtm5urfuNsKLxYmDnD2QGcXRtR5Qz0PhTMD3JOisCoC7MrCOj2xnf6nqhEDr9PJ7KVZaZIOWxnx7h/gxQHu508ATY13Nbamuarau+FMZnjEFDb2wFc1XFRzkXWlgyOdri+vovvfckdG03Rol71dtdU1U4WH3vIkgPPfBmnVFMqG+Kq/q2mc21HFf902WIs5qWcFr54tPPuuIDq3ixFUM3IJn0JLh9rtQXrN2cRO+7Qq+Ck0iVKqDt9Wvs83KUGgmVJFOjGi6o+rl22cVUdPkODIlB5rqIm+VJ2hJUC+ehXdyUnKnRnKWMG0Dq7ba3g+DT0mH9yr8lW6lnRMRGV85HTlG6+fqqHNR6vG2G6n4RvxotzhapqZ3rR/W/lHnJ5ewWXLhq1H4z40tdUWNPA14CwZkx4lvX1nq9nq7BgYJ7xSgPscWMNOvstjViLPa4PHKT/RlwW6C9AGAuQ0k5ndCk9jMlNtA2yn9y3/gvNuZeqrRG0PLLsPGEKn5lLuYAtecl9If4pmbPUUsrMKm8160B4Fnbjd3DrqT7F+DixGbr2B1EtFLrd7sO7nvva1mu6CDfZD5wXY9pxUDVOfeaEdTP1p0QdjZRnprSa4SCYxf8LbkLT2Kix23p/Zo+4X6HGEVNu9o9x3xeNrs8GBObVy72+2ggO3c6VDmxIvBHAIn9bTbKwXRva3+JzahuMiNrj/xlnSy225FRlGaod8Ke/jD2VlbWnt5Wi4XzbBF2rAGAj02J0BDeBrXWNrEWY/gefkiLwEQO6neWPBbiSodzBxepfdl+U2un3vOWZG2uQaZ560PibQ88hvcP/w8JIA+9xiwM/t5sgcWPZJkYtvw66znVLAYY/fnDFw0YT32Ntzq/WO6MuQFz3k4cTFWVsHl9XNP+3FWgNk5mxWqaco4+AZ3vUs0sBiLZxK5I+QxhH8Ybq9sN110MhtdHnTK5Qgtj3nQPxrHWAiey7feikJHnrfnZ1cLQl2kF1AfiJ6vAlw7InrGd2d+OTlJ2B0bjPvQNqpmS8fQubvk2kfGLwzj8CrDBP7EO2+iHjh0v1xBYsds2d4DedUvUQrFzHMTs9RYzqHig7ym0tmEyc+/pA/5KvBN5OKsiobDWQZFzZEnQEcj6YoZ/CtOrvF7RP+3pQET/CPfKU2SOz1kDu7z8/Tsz1nRB44yPOS2JKK8ois+oDdVC6Nb2YbfH1niB4JkG9nHPRqRDUF8Ih4yzcF8Jpf+hbs6DISnOOEmNetopS3IP1TbJAjmcS1SPCERTpnRKiQ6379/wgTwDUDfIHC/asCCLluKyzPAJ1tjmDHGu1LdPzWx8G8OEJeSEWlWq8yE0Iedv1lX9By3wnMuCDlYksIBhEuIBxbB3fSD78S/+oFEKs3OJ9zy7b68D1cEJ94qHMhmpXb7s/4IDyRsM7lZNwiSyfM9bb6vBYmo1mWQZ3Wu05cG0BkC+/KY0+vECE0Fu7WKVyjn9eFUK0I3qlDc8LldSH08SlsQkZai5GCVyRBWv5kmYdqeWARrkuGnmJrD/Gm1WGM15bwUiwU4l3n8LnrEaEXodg6ZqYiYm9pWmVfCYoILUTNFLjCGptPHDtunIkTA65NhOXSHtIM3qG7TvxaJChCGOlMnFCN1yfBJMNocIpz7fNyNjLanFwLVS+MJnbJpTizk+12KcUMWVMoxdXYYHVihyHQRE3kesIhfbs1mSZwEiJ4NQLs9arRgqmoXVE60WvGowkUMXZP1rsigCJWnkd8LVao28tbzaDXZYP9QyavissMTGGTxnKzIlyLDXJgnf+Z96R/cS7aE6JcS3lNZQQh32LahL1ssAL85rKKwamV0T6ZsoSIty5DgGPSBSCX3cXgKGjcwWS6WirV/kx8M6LrOf4pFaWIujfCabArox86+xICVYq9ejWFDIXxvopyqG/ARJVDmxvxPI990BHDO7OJgd2/aALASjvs7NJxFomCe9xwcgutfj7Y25wJJJ1QjlkANKfeYQIiBp1LKzhy5GfLc+uhsN6OQJhva4qx0d+5NVh1Bkm9IHoE4MSJIag2AsfI4buYOG1qTNOGYZSnUO2x+/Ow1CacIFxrRglDT7T3oY7c03Gf9Bo4eQ1T+2Lh/wC19HXP/asgWAAAAABJRU5ErkJggg==;" vertex="1" parent="1">
          <mxGeometry x="480" y="80" width="80" height="80" as="geometry" />
        </mxCell>
        <mxCell id="wxpGnIKAjZEVVhN0BYbd-7" value="DCRNet" style="text;html=1;resizable=0;autosize=1;align=center;verticalAlign=middle;points=[];fillColor=none;strokeColor=none;rounded=0;" vertex="1" parent="1">
          <mxGeometry x="480" y="50" width="70" height="30" as="geometry" />
        </mxCell>
        <mxCell id="wxpGnIKAjZEVVhN0BYbd-8" value="" style="shape=image;verticalLabelPosition=bottom;labelBackgroundColor=default;verticalAlign=top;aspect=fixed;imageAspect=0;image=data:image/jpeg,/9j/4AAQSkZJRgABAQAAAQABAAD/2wBDAAIBAQEBAQIBAQECAgICAgQDAgICAgUEBAMEBgUGBgYFBgYGBwkIBgcJBwYGCAsICQoKCgoKBggLDAsKDAkKCgr/wAALCAFQAVABAREA/8QAHwAAAQUBAQEBAQEAAAAAAAAAAAECAwQFBgcICQoL/8QAtRAAAgEDAwIEAwUFBAQAAAF9AQIDAAQRBRIhMUEGE1FhByJxFDKBkaEII0KxwRVS0fAkM2JyggkKFhcYGRolJicoKSo0NTY3ODk6Q0RFRkdISUpTVFVWV1hZWmNkZWZnaGlqc3R1dnd4eXqDhIWGh4iJipKTlJWWl5iZmqKjpKWmp6ipqrKztLW2t7i5usLDxMXGx8jJytLT1NXW19jZ2uHi4+Tl5ufo6erx8vP09fb3+Pn6/9oACAEBAAA/AP5/6KKKKKKKKKKKKKKKKKKKKKKKKKKKKKKKKKKKKKKKKKKKKKKKKKKKKKKKKKKKKKKKKKKKKKKKKKKKKKKKKKKKKKKKKKKKKKKKKKKKKKKKKKKKKKKKKKKKKKKKKKKKKKKKKKKKKKKKKKKKKKKKKKKKKKKKKKKKKKKKKKKKKKKKKKKKKKKKKKKKKKKKKKKKKKKKKKKKKKKKKKKKKKKKKKKKKKKKKKKKKKKKKKKKKKKKKKKKKKKKKKKKKKKKKKKKKKKKKKKKKKKKKKKKKKKKKKKKKKKKKKKKKKKKKKKKKKKKKKKKKKKKKKKKKKKKKKKKKKKKKKKKKKKKKKKKKKKKKKKKKKKKKKKKKKKKKKKKKKKKKKKKKKKKKKKKKKKKKKKKKKKKKKKKKKKKKKKKKKKKKKKKKKKKKKKKKKKKKKKKKKKKKKKKKKKKKKKKKK7D4Kfs9fH39pTxVceBf2c/gd4w8f63aae9/daN4K8M3Wq3UNqrxxtcPFaxu6xB5YkLkbQ0iDOWGfX/ABN/wSF/4KXeE/2uI/2FdU/Y48YS/FKXT7TUV8OaZbR3sY065ljgj1E3lu72i2ImlWKS8Mwt4ZA6SyI0bqv0h8Lf+DT/AP4La/EDx3Y+EfFn7OXh/wADafd+b9o8U+KfiJpM1hZbIndfNTTbi7ujvZRGvlwPhpFLbUDOv2f4T/4Ma/FV54V0y88df8FK9P07W5dPhfWdP0n4Sve2trdFAZYobiTVIHniV9yrK0MTOoDGNCdo9g+Cn/Bkf+xfoPhW4s/2jP2x/ih4q1ttQd7XUPBVhp2gWsdrsjCxPb3UWoO8ocSsZRMqlXRfLBQs/Yf8QVP/AASy/wCi+ftAf+FTof8A8p6P+IKn/gll/wBF8/aA/wDCp0P/AOU9H/EFT/wSy/6L5+0B/wCFTof/AMp65/4pf8GS/wCwLq/gS+0/4KftXfGDw/4nk8r+zNX8UyaVrFhb4lQyebZwWdlJNuiEirtuI9rMrneFKN8IfH7/AIM0v+Co3wz07xD4j+DPj34X/Eq00/UCnh/RtM8QXGmazq9qbgRxymK+gjs7aURN50kTXrKoR1SSZgm/4f8A2vf+CQv/AAUu/YQ06fxD+1L+xx4w8PaJaafBe3/iiyto9V0ayjmuDbRLPqOnvPaQStNtQQySrJmSL5cSxlvnCiiiiiiiiiiiiiiiiiiiiiiiiiiivcP2If8Agm9+21/wUe8Va54O/Yu+AeoeNbvw1p8d7r80eoWlja2Mcj7Ilkur2aGBZZCHKQ7/ADJFimZVZYpCv63fC3/gx0+Ker+BLHUPjX/wUS8P+H/E8nm/2npHhb4cT6xYW+JXEflXk99ZSTbohGzbrePazMg3hQ7ff/7NH/BqZ/wRt/Z3+yah4i+CviD4oavp/iCPVbHV/iZ4pmuPL8vyilpJZ2ItbG5tg8RYx3FvL5nmyJIXjKov3/8AC34T/Cz4HeBLH4W/BT4aeH/B/hjS/N/szw54W0aDT7C08yV5pPKt4ESOPfLJJI21RuZ2Y5JJroKKKKKKKKKK8A/bW/4JY/8ABPv/AIKJf2fc/ti/sveH/GGoaX5S2OveZcafqsUMfnlLb7fYyQ3TWwa5nf7MZDCXfeULhWH5gft0/wDBlx8Cfil471n4i/sG/tEf8Ku0+Tw+P7J+GviPRrrWLA6rHEyjGpyXhura2mZYi++K7eJmmdN6GO3j/DH9t7/gm9+21/wTh8VaH4O/bR+AeoeCrvxLp8l7oE0moWl9a30cb7JVjurKaaBpYyULw7/MjWWFmVVljLeH0UUUUUUUUUUUUUUUUUUUUUV9f/8ABOj/AIIXf8FHP+CnP2fxH8Avg1/Y3gmff/xczx1LJpuhNt+0r+4l8t5r799ayW7fY4p/JlZBN5StuH7/AH7Gf/BpV/wSo/Zk/s7xN8YPDXiD40eJ7T+zLp7vx1qRh0qG/tcvM8Gm2flxvbTykFrW+e9XZGkZZgZTL+j/AMLfhP8ACz4HeBLH4W/BT4aeH/B/hjS/N/szw54W0aDT7C08yV5pPKt4ESOPfLJJI21RuZ2Y5JJroKKKKKKKKKKKKKKKz/FnhPwr498K6n4F8deGdP1rRNa0+aw1nRtWskubW/tZkMctvNFICksTozIyMCrKxBBBr8sP2xf+DPz/AIJgfHHwJDp/7KyeIPgf4ns932fV9O1a98QWF3vlgLfbLPUrp5JNkUcyx/Z7i22tOXk84IqV+GP7eX/BAH/gqN/wT61G9vPiZ+zpqHi/wpZafcX83xB+GVvca1o0VrbW8U91cXDpEs+nxRCUqz3kNurGCZozIkZevjCiiiiiiiiiiiiiiiiiiiv3u/4IS/8ABqf4qbxV4Z/bK/4Kl+EtPTRE0+DVvC3wRv43e6numdzG2vwyRhIokRYpv7PDO0jTLHdCIQzWk37/AHhPwn4V8BeFdM8C+BfDOn6Lomi6fDYaNo2k2SW1rYWsKCOK3hijASKJEVUVFAVVUAAAVoUUUUUUUUUUUUUUUUUUUV+WH/BXX/g1s/ZH/bq8K6d4x/Y10Lwf8CPiF4f0+4gt4fDfhKK00DxFHsleC3vbWzEYtpRcMg+3xJJIsTyK8NztgEP86P8AwUL/AOCYv7ZP/BL74p23wt/a5+GH9kf2v9qk8LeI9NvEu9K8QW1vOYXntbhP+2chglWK4jS4gaWGLzUB8AooooooooooooooorQ8J+E/FXj3xVpngXwL4Z1DWtb1rUIbDRtG0mye5ur+6mcRxW8MUYLyyu7KiooLMzAAEmv6nf8Ag3m/4N5vCv8AwTR8K2f7VH7VGkafrXx/1rT2EECulza+A7WZCr2dq6kpLfOjFLi7QlQrNbwMYjNNd/qfRRRRRRRRRRRRRRRRRRRRRRXP/FL4T/Cz44+BL74W/Gv4aeH/ABh4Y1Tyv7T8OeKdGg1Cwu/LlSaPzbedHjk2SxxyLuU7WRWGCAa/FH/gqH/wZx/BrxP4V1v4v/8ABLnxVqHhjxFZae9xa/CLxJqJvdM1aSNLdVtrLULqTz7GVxHcyZupLmOSeeNN9nCpdf54fFnhPxV4C8Van4F8deGdQ0XW9F1Caw1nRtWsntrqwuoXMctvNFIA8UqOrIyMAyspBAIrPoooooooooooorQ8J+E/FXj3xVpngXwL4Z1DWtb1rUIbDRtG0mye5ur+6mcRxW8MUYLyyu7KiooLMzAAEmv6nf8Ag3m/4N5vCv8AwTR8K2f7VH7VGkafrXx/1rT2EECulza+A7WZCr2dq6kpLfOjFLi7QlQrNbwMYjNNd/qfRRRRRRRRRRRRRRRRRRRRRRRRRXxB/wAFm/8Aghf+zj/wWG8CaVc+Jtf/AOEE+JvhrZD4b+JunaMt5MlgZS8un3lv5sX2y2O6R41MiNBMxeNwslxFP/KF+3T+wt+0d/wTo/aO1n9l/wDag8Gf2V4g0rE1le2rNJYa1YOzCHULGYqvn20uxsNhWRkkikSOWKSNPH6KKKKKKKKKK0PCfhPxV498VaZ4F8C+GdQ1rW9a1CGw0bRtJsnubq/upnEcVvDFGC8sruyoqKCzMwABJr+u3/ggZ/wRR+Fn/BKj9nHT/Gvizwx9r+Ofjnw/bS/EbX9RWCSbR/MVJm0GzaGSSNLaCUBZJI5G+1zQiZm2JbxQff8ARRRRRRRRRRRRRRRRRRRRRRRRRRRXj/7dP7C37OP/AAUX/Zx1n9l/9qDwZ/avh/VcTWV7assd/ot+isIdQsZireRcxb2w2GV1eSKRJIpZI3/lS/4Kp/8ABvN+3n/wSw07Uviv4x0jT/HXwntdQjgh+JXhNyY7VZ7iaK1XULNz59jK4jiLMBLapJdQwrdSSOFPwhRRRRRRRRRX7vf8GbX/AATF/wCEk8d+If8Agp18a/hh4gtYPDeNK+CWt3F59nsNQuZ4r211i7SEYkufJiaO1SRs2+65ulAkmgzb/wBD1FFFFFFFFFFFFFFFFFFFFFFFFFFFFFfOH/BYfwn4V8af8EoP2ktH8Y+GdP1a0h+B/ie/htdTsknjS6tdMuLq1uArggSw3EMU0bj5kkiR1IZQR/ElRRRRRRRRWh4T8J+KvHvirTPAvgXwzqGta3rWoQ2GjaNpNk9zdX91M4jit4YowXlld2VFRQWZmAAJNf22/wDBLH9in/h3b/wT7+F37HVzr/8AamoeD/D7f29fJdefDLqt3cS31/8AZ3MMLNbC7uZxDvjVxCIw+XDMff6KKKKKKKKKKKKKKKKKKKKKKKKKKKKK5/4s/C3wJ8cfhZ4m+CnxS0L+1PDHjDw/e6J4j0z7VLB9rsLuB4LiHzIWSSPfFI67kZWXOVIIBr+DPxZ4T8VeAvFWp+BfHXhnUNF1vRdQmsNZ0bVrJ7a6sLqFzHLbzRSAPFKjqyMjAMrKQQCKz6KKKKKKK/S//g1g/wCCePir9sv/AIKXeH/jxqnhXT7/AOHvwK1C28SeLJ73WHtpE1No7ltESBIWEk0ovrZbkg4g8uylWVjvjhm/rNooooooooooooooooooooooooooooooor+IL/grF/ylN/aW/wCzgPGX/p8vK8Aooooooor+i7/gx9+CnirQvgF8ff2jLzUNPbRPFXjDRfDen2scrm6jutKtbm6uHkUoEETJrNqEKuzFo5gyoFUv+51FFFFFFFFFFFFFFFFFFFFFFFFFFFFFFFfxBf8ABWL/AJSm/tLf9nAeMv8A0+XleAUUUUUUUV/W7/waf/C3wJ8P/wDgiV8OPFnhHQvsmoeOfEHiLW/FNx9qlk+238erXOmpNtdiseLTT7OLbGFU+TuI3u7N+j9FFFFFFFFFFFFFFFFFFFFFFFFFFFFFFFfxBf8ABWL/AJSm/tLf9nAeMv8A0+XleAUUUUUUUV/X7/wa4/8AKCj4Gf8Aczf+pPq1ff8ARRRRRRRRRRRRRRRRRRRRRRRRRRRRRRRX8If7WPx0/wCGoP2p/iX+0v8A8It/Yf8AwsT4gaz4n/sT7d9p/s/7ffTXX2fztkfm+X5uzfsTdtztXOB5/RRRRRRRX9fv/Brj/wAoKPgZ/wBzN/6k+rV9/wBFFFFFFFFFFFFFFFFFFFFFFFFFFFFFFeH/APBTbxZ4q8Bf8E2/2g/HXgXxNqGi63ovwP8AFl/o2s6TevbXVhdQ6PdSRXEMsZDxSo6q6upDKygggiv4c6KKKKKKKK/qt/4M9PjX4q+Kn/BH6PwL4h0/T4bT4a/FDW/DehSWUTrJPaypa6uzzlnYNL9o1W4QFAi+WkQ2lgzv+p9FFFFFFFFFFFFFFFFFFFFFFFFFFFFFFfnB/wAHYHxS8CfD/wD4IlfEfwn4u137JqHjnxB4d0Twtb/ZZZPtt/Hq1tqTw7kUrHi00+8l3SFVPk7Qd7orfyRUUUUUUUUV+93/AAY1+LPCtn4q/aW8C3nibT4tb1HT/CV/p+jSXqLdXVrbPq8dxcRxE73iie6tUd1BVGuYQxBkXP8AQdRRRRRRRRRRRRRRRRRRRRRRRRRRRRRRX4Y/8HuH7UHhXS/gF8G/2LrNNPu9b1zxhP411Bo9aT7VpdrY2s1jbiS0Cl/Kun1C62TsyLu02ZFEh3GP+dGiiiiiiiivu/8A4Nw/+CgXhX/gnh/wVG8KeOviVPp9p4N8f6fL4H8YazqDJGukWt9cW8kN95ss8MVvFFeW1m880hdUtRckIz7Mf2G0UUUUUUUUUUUUUUUUUUUUUUUUUUUUUV/KF/wdy/tL/Cz9oj/grhc+Hfhbq39of8Kv+H+n+DfEd9DPBLbSarFd319cRwvDI+fJ+3pbSq4R47i3uI2QeWGb8wKKKKKKKKKK/s9/4IXf8FF/+HnP/BOPwZ8ffEeo+f420bd4Y+Jf7nbu12zji824+W3ghH2qGW2vdkCmKH7Z5IYtE2Pr+iiiiiiiiiiiiiiiiiiiiiiiiiiiivL/ANtb9qDwr+xX+yP8R/2r/GKafNaeAfB99rEOn6nrSadHqd1FExtdPFw6sI5bm48q2jwjsZJ0VUdiFP8ADn8Wfil47+OPxT8TfGv4pa7/AGp4n8YeIL3W/Eep/ZYoPtd/dzvPcTeXCqRx75ZHbaiqq5woAAFc/RRRRRRRRRX3f/wQD/4LBeKv+CTf7XEcviE6fN8J/iVqGmaX8V4L20dpLC1ilkWHV4Hgikn82zFzcSGBFdbiN5Y9gkMM0P8AYbRRRRRRRRRRRRRRRRRRRRRRRRRRRRX4Y/8AB45/wVD8K+GPg1pX/BLn4QeNtPvfEXifULbWPi7a2U6TSaTpluYrrT9PnVoGEctzceTeDZNHPHHYxb0MN6hb+dGiiiiiiiiiiiv3u/4Nc/8Agv8AeFfAXhW5/wCCfP8AwUP/AGi9P0XRNF0+Jvg14y8Z3CW1rYWsKSm40a81KaUJFEiLE1kJlCqqzW4mAFlb1/QdRRRRRRRRRRRRRRRRRRRRRRRRRRXl/wC2h+158Gv2C/2X/F/7XHx/vdQh8KeC9PS41BdJsDc3VzJLNHb29tDGCAZZriaGFS7JGrSBpHjQM6/xJ/tVftL/ABT/AGyP2jvGn7Ufxr1b7X4n8c+ILjVdT2TzyQ2vmN+7tLfz5JJEtoIhHBDGzt5cMMaA4QV5/RRRRRRRRRRRRX7ff8G3X/ByL/wz/wD2D/wT0/4KF+Pf+Lf/ALrT/hp8TNYuf+RU6LFpeoSsf+Qb0WG4Y/6FxG5+ybWsv6LvCfizwr498K6Z468C+JtP1rRNa0+G/wBG1nSb1Lm1v7WZBJFcQyxkpLE6Mrq6kqysCCQa0KKKKKKKKKKKKKKKKKKKKKKKKK/mR/4O7v8AgqnqP7R/7UEf/BOf4UeI9Puvh78JdQgvfFM1pBbzNf8Ai7yZkkVbqOWQ+VZ29ybUw4hdLpr1Jlk8qEp+ONFFFFFFFFFFFFFFfpf/AMEOP+Djv4y/8EpNOf8AZ8+L/hHUPiP8F73UEntNCi1QRaj4SkluFa7uNNaRSksTo00jWDtFG9xtkSa3Mlw0/wDUb+zR+1V+zj+2R8LLT41/sufGjw/458MXflr/AGnoF+s32WZ4Ip/s1zHxJaXKxTxM9tMqTR+YodFJxXoFFFFFFFFFFFFFFFFFFFFFFFfIH/BdH/gov/w7G/4Jx+M/j74c1HyPG2s7fDHw0/c7tuu3kcvlXHzW88J+ywxXN7snURTfY/JLBpVz/Gl4s8WeKvHvirU/HXjrxNqGta3rWoTX+s6zq169zdX91M5kluJpZCXlld2Z2diWZmJJJNZ9FFFFFFFFFFFFFFFegfs0ftVftHfsb/FO0+Nf7Lnxo8QeBvE9p5a/2noF+0P2qFJ4p/s1zHzHd2zSwRM9tMrwyeWodGAxX73f8Eiv+Dvv4Z+NPCuo/DL/AIK6a5p/hDW9H0+3fQPiV4b8L3s9rr6okUUsV7Z2STvBfM+6482CNLV1eRBHbGKNbj9rvhb8WPhZ8cfAlj8Uvgp8S/D/AIw8Map5v9meI/C2swahYXflyvDJ5VxA7xybJY5I22sdrIynBBFdBRRRRRRRRRRRRRRRRRRRXP8AxZ+KXgT4HfCzxN8a/ilrv9l+GPB/h+91vxHqf2WWf7JYWkDz3E3lwq8kmyKN22orM2MKCSBX8gX/AAXQ/wCCzfjv/gsN+0dYeJrbwp/wjXwy8CfbLT4ZeG7qGI36Q3DRfaL6+lTduubj7PATCjmGBYo40MjCW4n+IKKKKKKKKKKKKKKKKKKK9/8A2Fv+CoP7cX/BOjx3o3iz9l/4/eINK0jSvEB1e98A3Wr3MnhvWpniWCYX2nCRYZ/NhRYjJhZkCRtHJHJFG6f0Hfsh/wDB45/wTR+NWnQad+1L4V8YfBXW10+e4v5r3TpNf0bzFuAkVtBdafGbuWV4WWUmSyhjQpKm8kRmX9T/AIW/Fj4WfHHwJY/FL4KfEvw/4w8Map5v9meI/C2swahYXflyvDJ5VxA7xybJY5I22sdrIynBBFdBRRRRRRRRRRRRRRRRRX4I/wDB45/wVT1HQdO0r/glJ8GfEenvFrWn22u/GZo4Le5kjjW4iuNK0wSCVntZd8H22ZGiSQxtp7JKYppkf+fGiiiiiiiiiiiiiiiiiiiiivcP2If+CkP7bX/BOHxVrnjH9i74+ah4Ku/Eunx2Wvwx6faX1rfRxvviaS1vYZoGljJcJNs8yNZZlVlWWQN+33/BLz/g8c+DXifwronwg/4KjeFdQ8MeIrLT0t7r4u+G9ON7pmrSRpcM1ze6fax+fYyuI7aPFrHcxyTzyPss4VCL+x37NH7VX7OP7ZHwstPjX+y58aPD/jnwxd+Wv9p6BfrN9lmeCKf7Ncx8SWlysU8TPbTKk0fmKHRScV6BRRRRRRRRRRRRRRXwh/wXH/4Lj/Br/gkL8Gk0vS4tP8VfGjxVp7v4D8ByzExwR5aP+1dS8tg8VijqwVAVkupI2iiKhJ57f+QLxZ4s8VePfFWp+OvHXibUNa1vWtQmv9Z1nVr17m6v7qZzJLcTSyEvLK7szs7EszMSSSaz6KKKKKKKKKKKKKKKKKKKKKKK6D4W/Fj4p/A7x3Y/FL4KfEvxB4P8T6X5v9meI/C2sz6ff2nmRPDJ5VxA6SR74pJI22sNyuynIJFfo/8AsZ/8Hav/AAVX/Zk/s7wz8YPEvh/40eGLT+zLV7Tx1poh1WGwtcpMkGpWflyPczxEBrq+S9bfGkhViZRL+t37B3/B29/wTR/al06y8PftI3eofAnxldahb2S6d4nMmo6NcSXFxLFG0Wq28ISKJEWF5pr2KzjiM/DSJG8o/S/4W/Fj4WfHHwJY/FL4KfEvw/4w8Map5v8AZniPwtrMGoWF35crwyeVcQO8cmyWOSNtrHayMpwQRXQUUUUUUUUUUV8wf8FXP+Crn7OP/BJX9nGX41/Gu6/tXxBqvnWvgDwBY3ax3/ia/RVJRCQ3kW0W+Np7plZYVdQFkllggl/kC/bp/bp/aO/4KL/tHaz+1B+1B4z/ALV8QariGysrVWjsNFsEZjDp9jCWbyLaLe2FyzOzySyPJLLJI/j9FFFFFFFFFFFFFFFFFFFFFFFFFFFdh8FP2hfj7+zX4quPHX7Ofxx8YeANbu9PewutZ8FeJrrSrqa1Z45Gt3ltZEdoi8UTlCdpaNDjKjH6f/AH/g8t/wCCo3wz07w94c+M3gL4X/Eq00/UA/iDWdT8P3Gmazq9qbgySRCWxnjs7aURN5Mcq2TKoRGeOZg+/wDV79l//g7M/wCCP37R/ipvB3ifx94w+FN3NqFlZaVN8UPDSQWt/JcOybhdafNdwWkURCGWa7e3jRZVbcVWQp+h/wALfix8LPjj4Esfil8FPiX4f8YeGNU83+zPEfhbWYNQsLvy5Xhk8q4gd45NksckbbWO1kZTggiugooooorP8WeLPCvgLwrqfjrx14m0/RdE0XT5r/WdZ1a9S2tbC1hQyS3E0shCRRIis7OxCqqkkgCvzA/4Kh/8HWH7Bn7HXhXW/h9+yR4t0/41fFL+z3TRj4bkFz4X026ZLd4pb3UY5FS6i2Ts/lWLTMz20lvLJaMfMX+aL9r39tD9p/8Ab0+Ms/x//a4+L+oeNPFc2nwWC6hewQwR21rCCI7eC3t0jgtogWdykSIrSSyyMC8js3l9FFFFFFFFFFFFFFFFFFFFFFFFFFFFFFFdh8FP2hfj7+zX4quPHX7Ofxx8YeANbu9PewutZ8FeJrrSrqa1Z45Gt3ltZEdoi8UTlCdpaNDjKjH2/wDsh/8AB0d/wWB/ZL06Dw1ffHPT/irolpp89vZ6V8XtMfVZIpJbgTm5bUIpYNQnlU740E11JGschQJhIvL+n/gp/wAHuH7aGg+Kri8/aM/Y4+F/irRG090tdP8ABV/qOgXUd1vjKyvcXUuoI8QQSqYhCrFnRvMAQq/qH/Ec5/1i6/8AM2f/AHlr3Dwn/wAHr/8AwTbvPCumXnjr9mr44adrcunwvrOn6TpGj3tra3RQGWKG4k1KB54lfcqytDEzqAxjQnaPH/Fn/B8p4Vs/FWp2fgX/AIJqahqOiRahMmjahq3xaSyurq1DkRSzW8elzpBKybWaJZpVRiVEjgbj5f8AHT/g95/an8Qf2X/wzR+w/wDD/wAJeT5/9t/8J14ivvEX2vPl+T5H2Uab9n24l3bvO370x5ew7/zQ/wCCgX/BWf8Abz/4KaeKn1j9q3466hqOiRagbvRvAmkk2WgaSwe5aLybKM7HliS6mhW6n826MRCPM4FfOFFFFFFFFFFFFFFFFFFFFFFFFFFFFFFFFFFFFFFFFFFFFFFFFFFFFFFFFFFFFFFFFFFFFFFFFFFFFFFFFFFFFFFFFFFFFFFFFFFFFFFFFFFFFFFFFFFFFFFFFFFFFFFFFFFFFFFFFFFFFFFFFFFFFFFFFFFFFFFFFFFFFFFFFFFFFFFFFFFf/9k=;" vertex="1" parent="1">
          <mxGeometry x="210" y="80" width="80" height="80" as="geometry" />
        </mxCell>
        <mxCell id="wxpGnIKAjZEVVhN0BYbd-9" value="Grount-Truth" style="text;html=1;resizable=0;autosize=1;align=center;verticalAlign=middle;points=[];fillColor=none;strokeColor=none;rounded=0;" vertex="1" parent="1">
          <mxGeometry x="195" y="50" width="100" height="30" as="geometry" />
        </mxCell>
        <mxCell id="wxpGnIKAjZEVVhN0BYbd-10" value="Images" style="text;html=1;resizable=0;autosize=1;align=center;verticalAlign=middle;points=[];fillColor=none;strokeColor=none;rounded=0;" vertex="1" parent="1">
          <mxGeometry x="125" y="50" width="70" height="30" as="geometry" />
        </mxCell>
        <mxCell id="wxpGnIKAjZEVVhN0BYbd-11" value="" style="shape=image;verticalLabelPosition=bottom;labelBackgroundColor=default;verticalAlign=top;aspect=fixed;imageAspect=0;image=data:image/jpeg,/9j/4AAQSkZJRgABAQAAAQABAAD/2wBDAAIBAQEBAQIBAQECAgICAgQDAgICAgUEBAMEBgUGBgYFBgYGBwkIBgcJBwYGCAsICQoKCgoKBggLDAsKDAkKCgr/2wBDAQICAgICAgUDAwUKBwYHCgoKCgoKCgoKCgoKCgoKCgoKCgoKCgoKCgoKCgoKCgoKCgoKCgoKCgoKCgoKCgoKCgr/wAARCAFQAVADASIAAhEBAxEB/8QAHwAAAQUBAQEBAQEAAAAAAAAAAAECAwQFBgcICQoL/8QAtRAAAgEDAwIEAwUFBAQAAAF9AQIDAAQRBRIhMUEGE1FhByJxFDKBkaEII0KxwRVS0fAkM2JyggkKFhcYGRolJicoKSo0NTY3ODk6Q0RFRkdISUpTVFVWV1hZWmNkZWZnaGlqc3R1dnd4eXqDhIWGh4iJipKTlJWWl5iZmqKjpKWmp6ipqrKztLW2t7i5usLDxMXGx8jJytLT1NXW19jZ2uHi4+Tl5ufo6erx8vP09fb3+Pn6/8QAHwEAAwEBAQEBAQEBAQAAAAAAAAECAwQFBgcICQoL/8QAtREAAgECBAQDBAcFBAQAAQJ3AAECAxEEBSExBhJBUQdhcRMiMoEIFEKRobHBCSMzUvAVYnLRChYkNOEl8RcYGRomJygpKjU2Nzg5OkNERUZHSElKU1RVVldYWVpjZGVmZ2hpanN0dXZ3eHl6goOEhYaHiImKkpOUlZaXmJmaoqOkpaanqKmqsrO0tba3uLm6wsPExcbHyMnK0tPU1dbX2Nna4uPk5ebn6Onq8vP09fb3+Pn6/9oADAMBAAIRAxEAPwD+f+iiigAooII6iigBQCDgdaGyeCKASWyBXsvwn+ERsdnijxRZfv8A/l0tZR/qv+mkno/oKyxOIpYWl7SodOGw1XFVOSBX+FPwaS3jj8Q+LbLzXk4hsJYj8nvJ6V6HD4G8FE4PhHSv/BdFWnDZ+dVyGz/dV8niMfXq1tGfU4bA0aNI5yXwN4REmB4R0r/wXRVJaeEvAUUv+keENK/HToq07v8Aj/Gs+aao9viO50fVqJoWek/C20/4+PAWiS/9ddIirU03SPhpqM3kW/wt0D/wTxf/ABquf0HwrqusXXkaVB5teyfDH4VwWd1HPqv+s8muTG494Wl/FPTwOSe2ZQ034Q/C2b9yPhpoEnm/9QiKuk039mv4W3g8+++HeixR/wDTLSIq9D0fQYLOLyLGCKug0fQZ7yKSC+/1n/TGvj8TnuN/5d1T7CllGDpf8uzziH9nn4Jny4P+FX+HP+uv9hRVds/2avgrexSCD4Y+HfMH/UDtv/jVepWfhueHvLWpDo3+rg8iQyf89q4v7ZzT/n6dX9mYL/n2eVWf7L3weNr5N98JPD3m/wDTHQ7b/wCNVbm/Zp+CsPlzwfBvwz5ffztDtf8A41Xq1no+ZY/3/wD36rQh8N2PlefNWf8Aauaf8/WV9Rwf/Ps8eH7MnwPl/wCPf4R+GZP+5dtv/jVJD+zH8DhJib4N+Hf/AAR23/xqvZofCsEJkn/e/uv+eNRw+HP9XP59T/aeZf8AP2oH1HB/8+zxq9/Zf+C5k/cfBbwzH/3A7b/41WNrH7MPwU8oAfDbQYpB/rfK0O14r6G1LQcWv+orn7zQZ4f3Hn/9tpqP7TzL/n7UIWBwf/Ps+ddZ/Zn+G1p5lxZfDbQT6Rf2RF/8arm9S/Z18CiMRD4e6N5cnSaHSYq+ltY8K/8APeDzJJf+W1c3q/hW+hv/ACIIPNjrvpZ5jf8An6a/2Zg/+fZ8w6z8C/h7FHmy8FacfL6n7JFzXNap8J/BEU3kQ+D9Nj+tnFX0vr3gm3m/1EFcHr3g/wDeyTz3H7yL/llXvYbO6z/5eHk4nIMJV/5dnhl58M/C8Mv7/wAH2X/guiqmfAvhBv8AU+F9OP106KvW9e02eGKOD/WW/wDz1rDvPDYm/wBRXrUsfXf/AC8Pm8TlFGl/y7OHg8I+Dx/rvBOkj/uGxVs6d4S8BtLz4J0X8dIip95ps9n/AK+Co7P/AFp+tdyq1qq/iHm/UaNI63QE+GsF15F98H/CdzH/AM9pfDlr/wDGq3IPBnwg1i7/AHHwu8ORH/nlDoVr/wDGq4azu/J8u3/5Z1uaPqUEMvNeXiJ4lbVT0cNhqH/Ps3Z/hF8Lpunw70GL/rlpEVSWXwR+Gss3kTeA9FH/AHCIq19Hmt7yKOeCetSz/cy+f5FeRVx+Opf8vT6DDYbB/wDPszYvgL8KSuIfh9o2/wBDpMX/AMaryT9pH9i59Ssn8c/CewSG+toh9r0S0iwLmPsY4+0v/TP/AJaf9df9b9I6P9nP+kQT1ueG4YLy68j7R5VGFzzMcBXVV1LnRjsky7MMH7OdOzPyaaMrIVcYpGQKMmvvH9tb9hGfxpZXnxi+DWiD+14v3muaNbDP9o/9Noh2l6fu+sv/AF1/1vwfIHUlHBr9NyzNMLmuEVWkz8azXKsTlWJdKqhlFFFd55gUUUUAFAODmjBHUUUASZBpm0k7RQu4nAzXvnwU+B39hCPxl40tM3f+stLGY/8AHv8A9NJPR/QVhicTSwlLnmzrweDq4yryQK/wg+CraREni7xdaH7X9+0tZT/x7D/npJ/t+gr0eGz86tCGGpPJ87/lhXxmIxtbFVeeZ9xhsFSwlLkp7leGz8mo7z9zFirlVrz/AFQ+lctzqVJszJofNrU8K/D2414f6iug8E/De+1jVI554P8AR6908H/DeCztY/8AQY44/wDnrXm43NvZKx7eByT/AJeVDl/h78H7Hw3ax4g/ef8APavRNH8K+TL9ungjrpPDfhv91/z0klrcs9BgPlwGvk8Vjq1Y+npUlRM/TtB8mLHkRVqWeg/Y7qOfyIvLq5o9nPZ+ZmtSCz87tzFXCahN4bg+1efB/q5auTab+6/1FbFn++jj8gVJqej/AGO6juIIP3ctBmYf9jwWf+vsY/MqxpumQTHyJxViazn/ANfVzR7PyZZJ8ebXQBX02zE3mQeR/qqk/s2CHH/PSrl5/qvPgos/3/8Ar629mZ8hnzWfnRfv6y9T0fyvLz5fl10F5D5H+oNU5ovPi8ies/ZM09mcnqejwT/6+DzI/wDnjWHqWj+R+/8AI/d/88a7iHTZ/tWZ6y7yygm8ysfZs0PN9S8N2M3mf89Kw9S0HSprX7Dq1jH5n/PavQL3R/3Uk9YepabBdxSQeR+8p0qtjoPH/EnhX/WQQQfu64fWPDcFnL+4r2zXtHg+yyefB+8rh9Y0GDzfPnFe/gcccVXDaHk/iTQTef8AbKuXmh8iWvQNe024h4rj9Y03EvWvqMNiT5DG4FlOGarkN55NV4bP97WhDZ/88PzoqbnDSuanhvxJPpt15+P3degabrEGpWEc8FeX/Y/J4rQ0fWJ9Nl/5aVxYjDKqduGqukekWesT6bL/ANM66zR9eg/dzzzxR15nZ+JILzy/In/eVoabef6vIrzauFPfpYo900fUp/K8i3/eV85/tzfsHv8AEr7X8aPgjoxXXsfaNb0G1hONS/6a24H/AC8esQ5l7fveJvQPCvxIvrOXyJ4P+21egeFfiRB5Un+nRVhgMXi8oxntKGxOZ5ZRzbB8lTc/IJkcNg8YprqByK/Qb9u/9hKx+JVnP8cPgTppk8RSA3HiHQLWEn+0hzm5iGeLgk8xdZf+uvE359tHhiGzX65luaYXNcIqtL/hj8UzPLK+WV/Z1BlFFFdx5xIST1pEJY7QtAJZsAV738EPgcNIiTxZ4ss/9Px5mn2Mv/Lv/wBNJPR+OB/kZYnE0cLS9ozswWCq4ytyQD4H/A86RLB4r8W2mb7/AFlpYS/8u4/56Sf7foK9evIR9ljo02ECXz6NS/gr4XE42ti63tKmx95hcLRwlH2dMr2cP739/wD6upLzPm/uP9XVizs/O/f0TQ/6VHBBBXNsdypMpww+bXUeCfhvPrF/H58HmR1seCfB8F5LHP8A8s69s8H+CbGzijxB/wB+a8THZl7L+Ge/gsD/AMvGR6D8PrfR7W3g8/y67jTdB+xyZ/dR1c0jR54ZYzPW5DZ+TLivm3UdY9sp6Po8Hk81qf2bB53+oqSDvViCGf7V5H+sjo9kBTgsv3snP7urH2PyYvPt4P3daFn59ndVoQ2cF3F+/pGhn6P5H/LfFdJDDBNax2M9Y9nZzwSx/uP9VWpD5E1rWZnVKd5pvk8UQ2f2KX/UVoeT+78nNSTQ+dL54nrWkBTns/3XH72o4bOf/X1qQw+bR5UPpWvszP2iMu8sx5VU4YfNrcmszPFWXqWmz2V1nz609oHtCneQwQxfuDWXeWeIv+mdbnk+f/r6rzQ+VXNVNDl7zTYP9eIP3dYesabBD/p1dxrFn5N1H/01rn9Sh8/9xPXMdtI4PWNHgm/fwVx/iTQYJv34Neqalo88P+kQQfu65fXtOvryX9xRSqeyEeJ+JNCgmi8ivP7zR/8AWfuJP+u1e2eJNBg8rz6838SQ+T5lfW5bibnnY2l+6PO5ovIl8ietjQbIzRSVHqVmfNzVzwrOPKkgnr1qmx8lUpWrGpN4P86Kufm0GfTfM+3T/wCqr0jyYJoo8XFc34k02CbzPPripVTT2djh+IZq1NB16+m/18/61T1Kz8nrWX508Mv7ivW0q0RqrY9Q0HUoPKrqNHh86vK9H8STwSx/aPK8uvQNB1iCaSODz68TE0qx7+GxPtTuNM8SarZ+XBBcfu4q+f8A9tP9lDTPifLdfGX4TafHDr8h8zV9AtYuL3PWWL/pr/6N/wCuv+t900yaDyvIrY02G3vIvPnnrjwGZ4vKa/PDYWZ5RhM1wnJX3PyaMZSTa4pSoWvt39sX9huTxVZ3nxb+EdiJNWi/eaxosK5+3f8ATWL/AKa/9M+sv/XXiX4hkWRD5brX67luZYXNMKqtJn4jmuU4nKcS6VVHtvwL+E1pp0Nv418Qskk8o36da5/1fT95/wBdOOBXrkM37quU8GGY+CtII/6BFr/6Krbs5j5tfO4+rVq17VD6fLaVKjR/dm5Zz+V5lWPO82qdnWhZw+dXhzPbpBBDPN/qa6TwT4PvtSuo8QVn6PpvnXUcFeyfDfw3AIrO3/5615mY4n2SPXwVL/l4dB4P8EiGw+3T/wDLWvQNN0e4hi8iepPDej+T5kHkfu66CHR/3X7+vl/a+1Z7XtQs4f8AVietSzs/3UnnwVJpum/uvI8itTyTDF/x711JG3tEYc0Pk/6irlnD5NH+ptfI/wCWkX7yGpLL99axzz/6ysalQ6NyT/lrWhDNPDFWX5M/m/aK1IYf3Uc5/wCeNcQEkP72rEHeqf8Ay5VoWf8ApkUn/TKg19kWLOHzpcirE0P/AEwiqnZ+f5XFakP+u/Gu2kc1WkU7ypIYT9l/f1dm/wBT+FVppvIirc5qdMx5Zv8AnhUc00F5F5E5/wBVSzf61/rUVcZ2+zI7uH/ngKrz9qkm1LEvkVHWYFOaexm/cT1X1LTIBLHPBBVy8sxD+/g/5a1nz9qDoMeey/54Vj6xo4m/f11E/as/WLP91JPBB5lHs2B5nqXhX/RZJ4K8n+JHhv8Ae+fB/wAtf9dXvmpWc3m/6j/ljXm/jDR5/stdWBxPsqw6up4XqXhuf7Vx/q6p3mjz6b+/Fekalo/k/wCvgrHu9Ngg/f8AkV9RSxPtT5zE4LqU9M1P/VwYqPxJ9ySqefJl/cVqalB51rJBR/y8PIqUzzu8qv5HvWhrtnPpsv7/AP5a1Thm82vSpGAkP+u/Guh8N3k8N15H2jyqw7OE+bWxB3oq0/anoYaqeiaDrH7qP9/+8rqNB8SQfavIn/1kVeZ6dqU4i/19akOveTL+/r5/E4Y9ulUPcNH1KxvLD9xPXzZ+3t+xRZ+JNE1H4/fDGG2ttSs4ZbzxPpYURx30Uf8ArbuP/nnKOfMGf3pP/PX/AFvrfhXxJ/q+fLra+M2pQXvwD8cj18F6n/6Sy0ZNisZl+ZU409mcud4GhmGX1IVD4x8Df8iVpH/YNtf/AEVXQWcM/mx81geB/wDkTNI/7B1r/wCiq7f4b+Kv+EJ8UWfir+w7bUvsv/Lpd/6qvs8d/GPicDT/AHBXhmrUs/8AWn61n6lqUGpapcX0EEUX2qbzPJhqSGafzbeG3/5azV5lU9PDUz0T4e+GoNSv48/8sq98+Hvg+CGLz/8AlnFXD/Dfw1Yw2FvPBB/12r2DwVDP5sljXxOZVfa1j6SnT9lROo0ezgi/5YVcvIZ4YvPggqxo808Nr5H/ADyqx53m1zUqdjWkWLOf91HPVjzoJvMJqn+4+y+RBUfnTw/6+tKlQ7adIr3n7mXNWIYaIT51rHP/AM9aJv3H+orzvaHVSRYq5Z/v/MgzWH/aU+cf8tK1LO88nT4/I/7bUGnsyxZwzwy+ROKsWY8mXz6jhm82q/2z97JitDT2ZoQ6lP5Xkef+7o/tLyR+4g8v/ptVPz/ao5pv9A/f/wCsrT2jD6sdJNemaKP7D/zxqvef6ofSsuHUsxRwf6qrE17+9k/f+XHWvtTm+rFeaH97Ve8HkxefQdSgmlqObz/KrI19kU5pvO/5b1of6PeRefBWPD++lkgrU00+TFWYqlIJop5jWfBZmaLz563PJ86Wo5tNg839xP5daHMYd7Z/8sIP3VZeo2c/7yCf/llXUfYoIYpP+WlU5of9Fkt/I82s/anQcHef6rz/ACK4vxJoP2uL/X13l5DBDa+RB+9/fVzepRCbzP8AnnWlPcDyfXrPzrr7PBBXL69Z/upPIr0zx3ZwQxRzwT+bJXnepfvopPP/AHdevhaupz4mkcXqUM9ndRz/AGfzKuabeQTRYn/1lSax5H/LDFY8w8m6zXtr96eBiaZY1LTYNStZILiCuLm02+s7+SCeu4hlnmNU/EmmwTWvn289dNKpY8n2Rz9nW5ptn50X2iqdnpvnS/Z63NNh8mLya0q1T0cNsEMPlVqWdnVeGz86tizh86vJqVT16JXhhnhl8+CeWpviFrl9a/Bfxlp1wfM87wvfc/8AbrLWl/Y/nWvn+f5dYvxTs/J+EPiU/wDUu33/AKSy1WD/AN+pF46n/sVQ8B8Cf8idpH/YNi/9FV0kP+q8jNc34A/5E/SP+wda/wDoqugmnt8xz19Zi/47PgMN/BpliGGuk8B6bDqXi63gnH7usuzs/wDiTfb5/wDWV2nwT0eDUrq4vv8AlpF/qa8PG1PZUT2MF/FPfPAej/Y7CvQPDc32O188f89q5/QtNg/svyIP9Z5NdpoOjwTRW8E8FfE1P4x9Cbln/qvPz+8ovJv9F8ij+zTDL54nqSGHzv8AX1pV/hHRSpEcN55FrUcN550uajvP9bJBUdn+5/4+IK86pUPSp0y5/aR8ryPIos9T86KSxmgqOGHzv3EEFWLOz8qXz/8AlpWZ2UivNN50vnitTTYZ7yL9/BVc6bB5X7+CrlnN5NKqUSQ5hi/1FH2z/WVYvIf+un72qc0PkS0zQjF5B+8onmg8r/SKpzQ/6f8AuKJpvKrQ6PZssTeR5vnj/WUTXgm/5YRVl/bJ/OzVyDPlfv60M/ZEdleTw3Uc8Fal5NBNYf6d/rJaw/8AjzuvInnq5/rpf3H+roMqlIsQw/va2LOHzov3FYdnMftUldBpvkeV59Bz1Q+x+361H5HvVyzmgm/cUTQ+dLiug4Cn+/8A9RPUd5DBD+/gnrQni/5b5qvqVnPKf3Fv+7rn9kBxer6bPBL5/wDrfNrj9es/OluIJx5UlemalpvnWtcP4k039758FBrSPP8AxhDPDF5EFeV69Z/uq9g8SQQTRef/AMtK838VQ/6dJ/zzr0sFUNKv8I8/vNNn/wBf59Y+pabiWu0vIYOtYd5psHWvoKVQ8HE0jP8AJ86Lz6k86CCw8iefyqj8mez/AHFU9TvIJpfI/wCWlaKmeHU/dFeGaD7V5FakHeub+2QQ3Xn1uQ3nnRfuJ66Kmxnhqn746Oz/ANUfpV2zh8mXrWfo83+i1sabD6V5NTc+kw1S5saaPOirJ+M9pCPg34qI/wChdvv/AEllrSg/df6/91VT4xf8kW8Xf9ivff8ApLLWOD/5GdL1NMb/ALnUPl7wH/yJuj/9g2L/ANFV0kMJm/cVzngT/kT9I/7Btr/6Krr/AArDALrz56+0xv8AGqH55hf4NI1Lz/QrWOx/5aV6h8AfDcA0bz/P/eS15Xr15/ad1HPB/wAsq9g+DMxs7q34r5/Mv9zPqMuPePCtn+9/fiu40H9zaeeZ/wB5/wA8q4vTYftkUd9/qq7TQZvJ/wBR5X/TaviT2DQMM5Hn+f5sdSf9e/4VJZ/88KueSfK/5ZVodFI5swzzSyD7PVjTf460P7N/e/8APWrEOmwWf+og/wBbWZ6VKoV4YZ+tR+d5Msf7+tCGz8mXFE2jwTfv5/8AWVzeyOop+dP9l8+rFn581r59WPsf+iyf89Kk03Tf9F8mtToKc15P/wA96r3k3nf6+eq+pWc9ndRwQTy/vZq0NN03zov35oNDL8797Unk+dF+/rY1LQfOtcWMHlyVz8M08MskH/PKszoDyYIelWPtkHm/6iiaYzRZ8io/+Wfn1PtSKlMr6l/x9ef0qvo+vQXssdaH2P7ZH59U5tNghv5J4IKPanMaFn++5/5af8tq6iysx9gj/f8A7yuPs7z7HLXQabrHneZ5/wD2xrWnVOapSNSGGfrUfn+1XIdS8m1jrLm/6Yfu66Ti9mannfusT1Tnm/dSQf8ALSq/7+GX/X1JNN9jHn/8tK0JM+8vB5Vcvr0MF4ZIPP8A9bXSalDPNYf9M6x7yGCGucDzPXtN/wBPksf9XXmfir+OvXPEkMHmyTwf9tq8v1LyP9I88f62unDVP3x0HD6z/qv3FY9759dBeQjyqxrv/VSfSvpKR5eJpGBqV55Uvn+dXP3k0/myTmug1iz86sO8s5/ssk//ADyr0qR8/jaRj3l5UlnqXk+XP/yzrPvP9aPrVP7Z5PNdvsvange1tWPVPCuvQXn/AC38qOu00fyJuv8A1zr57s9ens9Ut8/6uvbPB+pC8sI5/Prxcxw3stj38tx3tX7M7T7FBNFmeCsH41w+V8HfFohn4/4Re+4/7dZa1rPUvtdrWb8Zrzzvgt4uE3/Qr33/AKSy15eC/wCRpS9T18d/uVQ+XvAv/In6R/2Dov8A0VXTad/qvwrnfAH/ACJ+kf8AYOi/9FV1dleQQ2klvX3OL/js+Iw38GmFe6fCuH97H/2yrwuGbzpfIr2z4M3nnW37j/WfuvJr57Nqf7k+ly0948OXs8MP2Ge3/eV2mgzf6V+4nrj/AA3NP5Ud95/7yWugtP8AWx/WvjT26R2FnD9sP/TSrE3nwy9Kp6FD/wBN60PJ/e1oaEkP+u/GrEMNXLOzgmtf38FRzRQQisKm51KoR+R70eR71oWcP+i+fR5ME0Xn/wDLSrWx0U6hl/679xWhZw+Ta1Yi03/l4nhqneTEy+RBWZ1e0Rqf2PBNF/qKP7Bnil8+CD/VVY02bzrDz/8AnlVyzm86LArQDH8meHzOf3dYd5oM/myX0H/LWu0ns4JutH9jwTRf6iuarSNKdU831LTJ5tL/AHFv+8qnNZf6L5E/m16B/Y9j5v7jzPLqneaCYZZIIIJK5vZGvtGcHZTfY7ryP+WdSaj5E5k8if8A1tak/huDzf3HmeZWfqUP2OXyJ6osp6b++i/f/wDLKrlnMfNos7Pzv38H/LWqcP26zu/IngoOc3IbytCGbz4qy5vPh8uCCCrFnNP0rspHNUpFjUof9XPCKr+dPMfIqSGae88z/plUc0PkxefWntGYBefuovsP/PWsfxJZ+lWNYvJ/3eZ6z9Yl8+1jAoOc4vxtDYzeZBYz/vIv9dXl+vQwf8v3+r86vVPEk3kXVx5EFed+N7LzvM/0f93WuG/inQcHqH/LSsO8rpNSgMMv/TOsPUoTN5ma9+nuclU5+8hPm0f6DDpclj5H+tqOaaqepXn+i/8ATSvQW54mJOP1i0xL+4rL8j3rrJrO3mlrPm0fvXqUj5erTObmxDL/AKiu0+EviT7ZqkljcT/u65fWbPyYv+mlY9leX2m3Uc8E/lSRTUVaXtqJnSqexrH05oN3PDLHBmqvxi/5I14y/c/8ytfc/wDbrLWb8MfFUHiSwxcf8fFWfjTN5Pwe8VQf9Stf/wDpLLXz2EpeyzWl6n0WJxPtctqHzd4A/wCRP0j/ALB1r/6KroP+vf8ACub+H0w/4RPSP+wdF/6Krch/cfv8V9ZW/wB4qHyWC/gUzQsvPr1z4A6l+9uPP48qb9zXk+mzfuo67z4P3n2PVPI/56zV4+ZU/wBwfVZR/FPqDwrNALW3n8+uw0zvXB+Gv3MVvn91JFXcaND/AKvz6+Be59GdR4bmuPK/f10EMP7quf0E+dL5EFbkP+u/GtzQuQzVchmnm8zzzVcfwVcoHSI4byCH/Xz+VHWh+4mtaz/7N/54flVyzh86KP8AceVHQdZJZw/vfPqPUtNgvL+3vp/+WX/LGrEHerGP+mH60HQXIfI8ryIKr2cM8NSfY5xF+4qxBB3goNKexYs4R5VSf63zM1n+d5H7irGmzGGWQT1mBT/szyZap3nn/a44IO1bF5NDNayQW9U4YfO/5YRfuqzNDPvLOAy/6iuX8Yab9sik/cf6quw1PtWXqUM80vkf8tK5qoHJ6bNPZ6X5Hn+VJWXeTQTf8t66TU9N8mWTz/3cdcveQ+TL/qP3dKkBoWWped5f7+tSab/lvBXL6bN+9j/67VsQ6l5P7ief93WwVKZY+2e/6VJ55/57RflWfNeCeWo5pv33+ooOKpS1JNY8jyo/s89cfqWvD7BcWOZPM86uommrh/Ek32PzIP8AlpWhfsjD1jUp/Kkrm7yYTRfv/wDvzWhrF550snkVnzfuq6qRRyeo2cH+FYd5D/y8T11mpQwTeZ5EFcve+R5UletSPNqnJ6lpsFnL+4nrn9SPky10GpT+VLXP3k1xNLXtYY8PEmfNN5VV/wC2J/8AlvUmp9qy67qR4mJphqXn3lY95pohl/fwV0lnD9srQ/4RXzo/3/8Ay1rT2jPOq7mX8Mdfn0fxRH58/lxy/wCur074k6xNe/Brxdn/AKFe+/8ASWWvKbzR59M1T7R5/lyRV0PiDxSdU+Eniq2mvf3sfhy+80f9spaxdL2uOpVC4VfZYOpTPM/AEOfCGkf9g61/9FV0c0P/ADwgrM+HEEEvgrSARz/Z1r/6Krb8n97Xo4n+NUMsDS/c0w02zHlZrqPDc/2PULe4gn8rypqp6DpsE37itDUrOCGwk/1teXVqe1/dnsYX91WPozwrqX2yK3n/ANVH5P7mu8s9SuIf+udeL/BnUrjUdGjgn/5ZV6xoN550X/TSvhcdT9lWPrKR6B4V1KC8ijngNdJDeHzY64fR7zybqOCD/V11mm6lBNLHWXtGdNSmdZZw/bNLj8ijyPepLP8A6Y/6upPJn8r/AJ51oILP99Fj95ViGGq9mfI/cTz/APLarn/LKg6qVMsQw/8AXSrEMPm1XMM89r/r60IYfI8uszYj/wBTF5FU5pp/NrQvIbK8/f8A7zzKpzReSZIPPrM0p7Ffzp/N/wBfWhDDB5Un2iqf9mf7VWP+WVZmhJo8NvqUX7/zakh/0OWSq9nefY/38EFSTQwTS+fBQBTls/tnaSKOsvUrPN1/r66CaG4hi/496pz9qAMP7HBPF+//API1cveaBPNF+4ruLys+bR4BL/r/AC6VSmBw/wBjgh/1E9RTf678a0dYszD+/ggrLhvYPN8iub2oEnneTLReTQeb+4qveTQeb+4qOabyqozJLyb/AECSeuL1KeCG6knuJ62NS1jyYZIPP/5bVy/iqb/QJIPI/wBVXRSCmcvrF4ftUn/Xas+a8Hm+Rmo9S8/ze9ZfnTw/v69akgDXrwQ3Vc3qU37qSrl4POl8+sfUphDLJBXpUqZ5uI2Of1jzv3n9Kw5pvPlroNSm/wBZtrn5+1ethtzxMRuZ95Wdef6ofStG8qubP9159x/q67lUPIxRl+d+8/19dZ4b16xmi+w33/bGuXvIYIarwzfva0qHk1NzuNY0exvLXzoK4jx3/ofw/wBf8if/AFukXUf/AJCrf0e8/c+RPWH8R4f+Lf63/wBge6/9FVGFv9dpHBif4NQxPh1NjwhpH/YOtf8A0VXTQ/678a4j4c3mPDOmQf8AUNi/9FV2GmTedXdif41Q6sDU/c0zpPDcphl8+r+o/wCq/CqGjWc/lVqTWZnirxqp9JSpnefBO8xdSWP/AD1hr2Dw3+//ANf5n7qvB/h7PNZ69bzwf6uvcNNmns5f3H+rlr5PMv4x7+F2O802byYo5/8AlpXQabeT2Y+0Qf8ALWuL03Up5os/8tIq2NN1KfMdxPcV5J6B6xo+pedYR+R/yyrQhvPOrj/CupTw2v2fz66C01L/ALZ1pTqgaE0MGPPos7y9ml8jyKLMedF59EP+t/cT/vK6Dsp7GhD5/wDy8Y8ytSH99Fisuz/c/wDHxBWhDP5MXnwD/W1mFTYsVTms57y6qx53nRVH5P73z/PrnAk+x+Va8TxeZVfyf3P+vomm82isvaGhHCfO6T0Wd5RDn/trVOWH/nhWoG5NNBNF5HkVlzQ/6zz/APV1Y/5ZVHef6rmf93WgUinNDP1qnqV55MWP+Wn+rrQnmg/6a1l69DP5Ul9B/wB+ayqbAc/qWIZf9RXL3kP2O/8AP8j/ALa11l5++/cQf6yub8SWc/SCuQDP1K8ns/LqnNeeTa1JqU3nWvkT29Zd3efuv3/+rrQDP1LyIYq5vWNY8mX/AJ60axrE/lf6PB+7rl9Y1Lzh5E9ehhqQEevXkH7zH+rNc/eXlXLy8zFJBWXefvutetSOcrzTVj6l/qXq5N+5/wBdWXqU3rXfSpnmVTPmh87/AJb+XWHeVqXl55MvkVlzTV6VI8TElOGGeaXyPIrQvLP7HYfv6jhm8mXzzUesXkE1rXaeRiTl9Rl86Wo4f3MuKk1H/W/jUfn+1dB51TckF55MtL401mDUfhtr8H/LT+yLr/0VLUN5/wAeo+lYPjS8MXg7Vx/z1066/wDRVb0af+0UmcGJ/g1DK8CTeV4Y0wn/AKB0X/oquw0e8/ex1x/gr/kVNL/7BsX/AKKroNNvPJ6V24/97JnPgav7mmeweG7OCbS454K1IdNg/wCeFcv4J8SQXtrbwf8Af6u007yP3fkfpXx2Jv7U+2wr9qGm/wCh3dv6+dXtGgwwSmOf/lpLDXk8NnXqHgObzrC3uJ/9ZXz2O/en0lL+CdZZ/uZcwVqabef6VWX/AMtasabN/pVeSdNM7TQdS/cxwV0mmzf6y3xXH6bNBDLHXSabmG68jz6x9qdKpmxD5/lVuaP++i4/1lY9nNBDL+/rYs5vJi8+AVtSqmntEbFn5F5N+/t/KkqSqdnP50X7+tStCCv5M8MUnkVH5/tVyazEP/LeKq4s/OlrM6KdQr1Yh/e1J5P73/pnR5MFn5Ygg/67ebQBUm/1P4VFCYP+eFXJvIm/1FV5vtGf3NBoSzf6n8Krf9fH41IPP/eQf9Majhm/e+RPWgFf/lrieD93VPWJv9F8jyP9bWpP2qveQwTRfv4KDM5+aHyYv9RXP+JObX/UV2GpWfnRda5/XrO+8r7P/wAtP+uNcvsgOD1iGeGKSeCubmvINSlkrvLyzg8qSC+rzu8Pk6pJBbwfu61p0gPP/FV3fWeqR6V5/wC7rPvLw+VxB+8roPidoJ1O6t9cg8qOOL93XJ3kM8MX7+CvXw1MzKd5MfNqnNLPCafN/rvxqhqU/WDFelSpHDVqleabzaz7ybzqjvJj5tV5v31rJ5FelTpHm4mqZepTf6VJkVTn7VJNDPD1FRz9q7aex5NUrz9qrzf6n8Kkn7VH5/tWp5tTYz7yEeVVOtS8/fdapww100jhqUzOvP8AVD6Vznjv/kV9T/7Bsv8A6KrsLyHtXOfECHyvB+r/APYOuv8A0VXVhP8AeEeRif4NQy/Bf/InaX/2Dov/AEVWvB3rI8F/uvCmmcf8w2L/ANFVpz9q6cV/HPOwn8FHQaPqU+m3Uc8H/LKvXPBOpQanax30MH+trxfR5vOr0j4P6x5Ik0qaf93XhZlSPrcsxPskeoaPD+9r0DwT+5i8g1xdnZiz8v8A0fyq6zwr/wAeor4bEn2uGq/uTtIO9SWcE4uv9BqvF+5i8itSzmg8qP8AcV5p1UjYs8+b/r62NNvP9Kjrm7Pz/N5q55372PM9c520juLK8Jij881uQ3kH2WPyLj/W1w+m6l5Mv+vrcs5p5ovPrGnUGdZps3r/AKytjz/auf0G8n+y+RP5VbmmzQeV/r/9VXbSqAak37mLFRwwwdakhngmi/19R/6mXz4KYqRJP/rfIzUc/aiabzpfPFE03m1odJHVOtSDvWX9j/e/aPIoAJofNqvND+9/1FaEMNE3kVoHtTLu8/8AbSjzvP8A9fWh5P7v/UVH5HvWfsgqVDLvIe1ZepabPN5f/LXyq6iGGfyvI8jzaz7yHyf39aezZznB+MLOD+y5J/I/eVw/9jwTRSefXqniSGfypPI/1nnVx+o6P9j/AOedZmntEef69ptjqX+gzQfu/Jrj/FXhsabYef5/mx/88q9Y16zgmix5H7yuL8SQwTaNcQT100qnsjKqeH69+5uZIIP9XFWHeXldZ4k8NX3lXE9jb1wd5N5MvSvpMLqcOI2K+pTetU5r2fyvIqxNN58tU/JP2ryK9ZbHk4krzTefLUdWJoasf2b50RngpnFVMO8h7VXn7Vpzf678aoXkPatDlKc/ao/P9qkqnNNWlPc86qSTTefLXP8AxB/5EjV/+wbdf+iq1KxPH/8AyJep/wDYOuv/AEVXfhP94R4eJ/g1DH8If8ifpn/YOj/9FVp1Q8Fw58KaYf8AqHRf+iq1/I967a38Y4sL/BLGjzeTL/rq6Tw3qU9nqlvPY/u/33+trl4f3VaGmzT+bXmYmnc9LDVPZM+nLPWP7S0G3vvPx5VanhvUvOij8if95XnfhXUvtnhuOx/5ZxVn+G/GH9m38n2j/V+dXx2JwR9tluJ0PojTdSg82OtzTdSgvOsFeZ+D/G0F5FHPP/rK6jR/En+lSQT/AOrrwKtL2J79I6yG8Pm+RBPWhDN53/LeuX0yaCaWPyK3IZq5atM9OnsblnNP1/5Z11Gg6l+9j8+f/ljXJ6bN537irlnef6uAV5gHeQ3kEH7/AM+ug07UrH7L+/n/AHkted2esT+bHAK6SHWPOPWtqVU0Owh1KDyqsQzQTdJ6w7PUoPssfn1qQ/8ATD8K7adU5zQ/5ZVH5xmP+o/d1Xm/54YqSuk6C5B3o/0f/lh0qvBN/q56kg70GZJ53+sqnN++izVybyIZf34qvN/0w/CugKexX/1tEEv/ACwxRRNDWZoEP7qqd5N5Mvn1Hd3nk/6+eo5pv3VaHPUp6mXrEH7qOfyP3dc/rFniGSfyK6S8/fe3lVzesXv+sg/rXPU3L9mji9fg/wCW/n1yevfvv3//ALRrsNeh/dR1h6kPJtfPgg/eVoFTY4ubTftkUkBg82vE/iFo8H9s3EEH7v8AfV7xeTTw3/nwf+Qa8f1jTf8AiaSef+882avXwtU4qlM4v+zZ4es9U5oZ/NrtLzQYBFnyPLrHm0397Xr/AFk8mrSK+m6bDeRVYvNNsdNH/H9Viz8izrP8VXnkxRz/APPWs/afvjzapy+pT+TdSVnzTebVjWJvSsuaavWpHm1NhLz/AFQ+lZk0M/WrnnedFIaP+vj8a6DzalQpww1keOv+RP1f/sHS/wDoqunm/cf6iuX+IH/Iq6v/ANg6X/0VW+F/jo8zE/wiX4fab/xR+h/9NdIi/wDRVac0PkS1meBJv+KJ0fH/AECLX/0VWn5372unF/x2cWG/gUyOaz/e1JZw9qKkg71xndSOk8N+JJ7SLyM1qWd4fNrD02z86LpXQabZ/wDLcCvOqbH0mANTQbyez/fwTy13Hhvxh3/9G1w8MNdBoMME0UcH2evExNJVT6jDVD1Dw34r8n/Ufva7DR7yeaKOAQVyfw98IeHJrrzzP/pH/Tau0hhgh4sZ6+cxP8U9KliTY0fz5rqMwQf6qtiHyLOX/UVh2epeda/6D/39qxNNPeWvkfbv3nk15tSkbHQQ/wDLStCzvPJ/19cnZ+eLWOCaf/VVqWeped/x/VzezNDuLLUj5XkVuabr2LXyK8/03WIIP9R5ssdbmm6xbi1j8/8A1ktCqHQdpDeVY+2Twymuf0288mLyJ561PO86KvRpVQLHnf8ALfyPxqxDN5VU9N/6eP0rQh/e100qhoSed5/+vqP/AJZUf8sqIYa6DMPJ/dVHUnnQQ/6+s/7Z+9k8gVmAzUf+Pr8aztSm725qxNqXnXX7+3qneTedLg0AUz/HWP4q/wCPWOetiXz4T59vXP6xD+9kp1TM5vXv30Uf7+LzK5e8vP3X+orU1iaeGWOC+grl9Y1LybWO3E9ZB7NBND5MVxff9MZa8r1Kznmlkr0S7vPtmlyW9jcfvK4u8s54rr9/XTSfsjMy54Z/Jj/6ZVj3kB82TEFdx/Y881rHn93Wf/YNiZfIv5/3lelSqnDUpnD3lnPWHr1nDNYeRP8A8sq7i80f+zLr/Tv3nm1yfiSGeG6kngg/d13Uqt6x5GJpnB3n+t8isu8hn8rJroLzTRDL+/grPms/Ol8g179NniYmkZ+mw+TL589U7yb9759dho/gnzv+P6fyq5vxJo32OX9x/q619qeTVK8M1YnxF/5FXV/+wdJ/6KrT8/2rA8df8inqf/YOuv8A0VXVhNa6PMxNT9yP+G//ACKWj/8AYNi/9FVueTPLL/qP3dc34FvZ4fB2jwr306L/ANFV0lnr08P7jyK6MR/GqHm4famXIbOrEOjz+n7urnhvWdK/eefb/vK0IvFUHm/8gqLy68w9ekGjw+Ta1uabD/q91Z9nNBNL9ugg8v8A6Y1uabeWPm/6RBXnYk9rBVP3pcs9BvpulvXWeG/7K0eLz7i3/eVThvPOi/cQfu6LO8Pm14lWofS4Y7TTfFU8Msk9jWp4b16/s/Mn8/8A1tcnpsw8rmtjTJvOryMTTPTpbncaDr37ryMxxx1sQ3kP2quL0e8ghuuldRZ3kEPl+RBH/qa4j0lsblRwzT+bVOG8Hm/v6sQzVxVToNSz1ieHpPWxZ6x51cv5/tVyHUhD5c/+qqAO8s9Y86KPNdRZ3nnRYrzPQdY/tKWOCCu0hmns4ozBPXOgOghmrUhvIIe1cv8A2nB5XnwVoQ6l+68iCf8A1td9KpYDoPOsZv8AUVHNN5EVZcN5Uk15/wAsZ66fa3OcJv30uKz/APUy/v8A/V1c87935OKz7y887zMwf6qug6CO8m/ff6DWXNr3ky+R59SHUoJv9Qaz9YngvbXyPs8UX/XKg0JJtY8mKTmsO81Lzj+/qx53lVh6lN50Uk+KzqbmZj+NpvJlt54K8/168n+1f9M5Ya7jWD50Vc/rGgwf8fxno9owMPTf3Olfv/8AttUl5o8Ep8+GCtD+wZ4bXz4J/NqxptniLyKPaM5qlQp2egwebJBOapzaP9supIPs/wD1xrsIbPzrX/UVHNo/kxfbv3UVbe1OKpUPN9e0GCeKSCeDy5Iq4fxVoN9FF5+f3deueJNNvvtUl9+6kt5f9dLXH6xDBNayWNduFq6nDVPG9Ssx5Wap6bo8H2qSef8A5ZV0F5NYn9x5H7yqcNnYzRfv6+jpVdDxMbTI/wDXReRXL+L9Nns/L+3QV0HneT/pEE9cv4k1KfWL+Tz66qVU8CqYfk/9MKyPiBZj/hCtXnMH/MOl/wDRVdPZ6b9sl8iCqHxL037H4M1v99n/AIlF1/6Kr0sLU/f0zy8V/CLmifBnXbPwD4Y1bSx5lvf+FrG5mH/XW1irC+xz2d/JBP5f7r93X2D8HPB9vr37NngiaeD/AFngrS//AElir56+MHw9g8H+KJIPs8sUks1cazH2uPq0jzqVP9zTOP02byZf9IrUl/cxefWP5PlVc028+2eZB/zyreqelTqeyNzQdS8mKTz66DR7yCuPs/3MuK6izmg/dz1xVNj08LV1PSPCpsZv9Hn/AOWtaE8Pk3Xkfu5a5fQZsxf6P+9rpIfPmr5+rT/fH1mFq6Gpo9n+9krY0ey8668iqemjyZa1NNn8mWSvNqHpJlybTPsfl3Hn/wCtrY8Nc2HH/LKiGzhvLCPz4fN/c1Y0fTfJ/wBea806liTQtP4PwrUs4f8AWVXi03/l4FXIf3Vc520qpHND+6qOH/nhirlRww/veP8AWVznT7UuaDeT2evW/kT16ZqUx8r7dB/q7qvL4bOf7V588FdBDrF99ljsZ5/3dALcsTXk8N3JXSQzf6B59vXHzfvpcV0EN55Phz/tjQaTNDTdY8m6SeeD/tlWxDqX2z9/BBXncP27zY5/P8qtzTbzMXn1dIzOo+1/9MapzfaIf3FV4ZqsXn76XFdpmcveT+TfyQVJVjWNG866+3QebVf7H5P/AEyroNPalO8/fRZrm7y9HlSV0l5eed5nnwVz+pab50snkebFXOZ+0RjzQz3kXkis+aGezl/f10Fnpvk3f7jzKsalo/nRcDzKDm9qV/7HgvLXyJ//ACDVjTNBg/5b/uquabp3nWsfkQeV5VWIbOfypKDhqVTHn03yZfP/AOWdV7yGCaLyK6yaH91HB5EdU5tBsZv+WH7z/ntWhze1OPm02Cb9wK8z8VeGzpt/cQQeb5leyalDBZ3WIP3kdcH4qvLH7V5//PX/AFNOlU/fGdOrc+f/AB5o89ndSTwf6ysP/SLywj8ivQPiFoNjNFJPB/rJa8rM0+j6/wCRPP8Au6+twWtI8jG7mh9j8mwuLieeuTm/e12GvalY3lh58H/LX/XVx97NBZ8z16NPY8CpUIxeeTLWR8S5vO8Da3Pn/mEXX/oqnzXgnlqh47vCfAmsAf8AQHuv/RVenhaf7+kePial6NQ+4f2Yh9r/AGc/AtvPP+7/AOER0z/0lirzH9qjwSYNU+3fbv8AWw/6mvP/APgnN+2xpU+mWn7PvxSuYLa8gEVt4Z1CQeXFcxj7lrJ/00H/ACz/AOen/XX/AFvtn7TmmaVrFrZ31j+9k/5bV8ljcLjcqz6pKps9Ua4GrRxWEpzpny3Npvk3X2Gesc3n9m38nkf6vzq7Dxto8+mar5/n1xd5Z19Rhn7Yzq/xTUstSgmrU03WPJ/cVy8MPlVY+2e/6VpUpBTq2PXPAesQTR+R9o/1Vd54b/fWEnn/APPavnvQfFU+m38f7ivoD4G6xB4wi/sq+/7Y185mVJ0v3h9blmJVWkdBDNV+0/1Uf0pbzR57OWSCe3/7bUWfkf2pbwX3+rr5qpVPo6VXQ7DR5vOsI54KsVThmnhtY4IR+7i/1NWLObzpfs9ecOkbmmTeda/uKsVX0eGCG1/ceZWhDZ1znbTqhZ4m/wCun/PGrEOmz1JD+5/5YeXViH99F58AoOn2pHDFPCasQ/8AH1+/qP8Ae1oQQwQ3VV7I19qSWdn53meR/rK0IYZxF5BNR6b+5uq0PI96fsgqVSnNo/aEVJDZ+TVypP8Ar4/GtaVIz9qMh/1P4VP5/tUfke9SQw1006QvaojmvJ5v9fRMPOh/f1J9juPUflUfkzwzeRPb1p7Iz9oY81n5Mv7+o9S0Efu58f62tT7HB5v+oqxWXs2c/tTl4dHns+IKsQ6bYTfv54Ja6CazgmiqPTovJirMxq4ky4YPJ/cQVH5373E9XNSh8n9/BBWfN59Hsjn9oixD++ixUc32eaXyMfvKz5pp7OX9+akF5/rJ60Oc5/X4v9Pj+0Tf8sa4PxVZwfb/ACB+8jruNY/fSyTz/vZK4PxJ+5/fj/lrWdI6Kex5348hghtf39eL+Kv32qScV6x8YNSg/suT9x+8ihrw/Urye8uvPr7HKaf7o8PMS5o8M+vX8djPfeVHFUmpaPod5qkcAnk8useGbyq6DwrpkGvf6/8A1levU/cny+JqmP4k0fSrPS7i9gg/1X+pmrzjxndzTeFNWH/UOuf/AEVXo/xIvPOk/wCEcgg8ryq8F+L3xFg0uKbwVoEiSTH93d3eP9WP+eQr2Mnp1qrueJjqtGlRPJ0LBtwPSvsH9lj9rqXxtDafDD4rarJJqf8Aq9J1S6n/AOP7/plL/wBNf+mnWX/rr/rfj/hRSB2DZXivoswy+hmlB0qqPBy/MK2X1vaUz9Evid4bF5FH5EH+t/ezV5frFn5N1+/FUf2av2oYPiDp9v8AC/4pant1mL93omsyzf8AH7/0yl/6a/8ATTrL/wBdf9b1WvabPNLJ+4r4eWFxeXVvYVNj7ilWo5jR9pT3OPmhqtef6ofSt3+x5vWsu802cXWK66dQ56lOxTs5vJlwK7j4b/ELVfCuqR30E8vl1xd5pv8AZsvn1Y02aeGX9xWeJpKtROnA4l0ap9gaP4qg8R6XZ6pn95LD++82rmvaOftcd9Y15X8E/G1heaVHpU8/myRV6Z/b3/Erk/f+b5tfA4nDOlWPrcLifas2NN17zofIvv8AWVuaPN+68+vP9H1KCGX9/P5tdxoN7/xK4777P5kdeZVp+yPbVXQ6izm/5bk/WrkN55NYej6xBN+4/eRSVoTTfva82puZqojU82b1q5D5HlR+f+FYcN5/q8webVyGa3mix/y0rVbHYjY8if8A5YVY8k+VGf8AlpFVezm/0WOrnnQeb/r66SvalizhPm1oQd6pw/uqsWf+qP0rop7h7UsXk0/m1JB3qOb91Sw/6n8K6vZB7Ut1J5U3pVPzvKo/tKH/AJ71p7MxNCHz4arz58r9/wD6yoP7XP8A0ypP7S86Lj91XNYA/dUQzebVeab91UcN55NdPszM0PO8qo/O82q/nef/AK+o/O8quU5qoaleeb0H7us+8PkyyCrF5eed+4rPmm82ggpn/TbryJzVO81L/WQQH6cU+b/XfjWZN++lxWdTc0KepXk8MVxNBP8AvIq4PXtSn+y5/wDI1dB4l137HLJBB/q5Ya878Sa9BN/o9jTw1P2p0fwjzv4z6xBNYSeRPXJ+FdBgmi+3Tw+bXcXnw91XxhdfYf8AlnXWab8N9Ks9B/sr/lp/z2r6SjjqWFpezPksyxPtax5XZ+CYNSv/APjx8y4roNZ0fw54D8LyX3kebqEv/PH/AJZVqeKtYsdHuv8AhFfB0Hm3nk/vpZZq+Y/2p/j4PDd7efDTwhqf2nVPNMerahH0tf8AplH/ANNP/RX/AF1/1Xr4DC4zNq3J0PlsbiaWF9+e5g/Hf47G0mn8M+GbvN+f3eoX0X/Lv/0yj9H45P8AkeBYJOCaBknPejJBz3r9IwuFpYSj7OmfHYnE1cVV55iZJ6miiiug5hVLA5WvpH4BftD/APCRLb+BfHd+Df4CadqEhz9pH/PKT/ppn/v7wDz/AK35vOE7daQE7sjrXPjMHRxdH2dQ6sHjK2Dq88D7n17Tf9XPiub1H/W/jXG/AP8AaDHiOKDwL40mH27iO0v5Wz9qz/yzk9ZP/RnQ89fQtSszD/r6+Nq4arhK3s6mx9zSxNHMKPtKZzepfaLz/X1XrUmsx5v7iqc2mz1JGxY0fWL7R5Y7ixvpI5P+mNeqeA/jBBqVhJY65PJ5leN/Y54jVzR737HLXPicNRqnbhcbWpH0B4b8SaVNdSQWM8svm/8APavUPAesedYd/wDrlXyvZ+JJ4brz7C48uvWPhj8VLGG/t59V/ex/6uvl8blp9ZSx3taJ7hZ/vpfP/wBV5VaFneWN5/o8E/m1x/iS8g021jvrH97HLR/bwhijnsf3kf8A0yr5erhrHVSqHoFnN5P7if8A1lXLO8+xy4/5Zy1y+j6ydZtY77yP+WP/AC1q5DqR1KL/AJ5Vj7I7TrIrzye37utCzmnml/cVy+j6lP5fkVoed5Mv7if/AL81RodZZzedL9nqSG8/1n+FYcOsZij/AOu1WP7SgmlkMEFdFOqZmx9r/wCmNWLO89J6x7K8gm/cT/6yrEM1dXtGaXRcvJu9U7ybyYvPqxD+/wD3Gay72byYvIn/AOWtdFOoF0WLTUrf95B59WIbysOrlnd+d5dv/wAtKqwFya8/57/lUf2z3/So7yb/AFlU/O/5b+R+7qf4RmblneHzajvJu9Zf9pwQ/v4DUkN551c1SocZYvLzyf8Ann5lYc2pf6V5FWNYvLfypPPt/wB5/wAsa5f+04BL+/8A3dZ87Lp0jY1K8g/65R1zesaxbw2sn7/935NHirxhY6YP38/7uuDnvPEnjzVPsOlQf6P51ZU7i9nYr+JNY+2fuIJ6r6Z4Vnml8+eCPy4q7SHw34V+GOl+fqt/5lx/zxrl9Sm1XXv+JpfQfZreX/U1pSqHlYnHOp+7I/7YsfDcXn2P7yuT1jxV4w8SapJoehwfu5a6w+G77xgY9KsZ/Lt/+e3/AD1r5+/ba/bJ0L4UWdz8Bv2fb8f24B9n8ReJbabix6nybY54lOP3kn/LM/8ATX/Ve1k2VV8zxnJT26s+ax2No4Sj7SpucJ+1R+0Bp3wmkvfhP8MNcjudfl/d67rcJx9g/wCnaL1lHH7z/ll/11/1XyQc7uTRuYmj5i3vX7PgsFRwFFUqZ+eYrFVcXV55iUUUV1nMFFFFABRRRQAuWU55r6W/Zo+Pdj4pmt/AXj69xqn+r07UJel1/wBM5P8App/6N/66/wCt+aSCT65o5VuDXPjMHRx9H2dQ7cDjauAre0pn33eaPY/6iCCKKuX1Kzns5a4L4AftG2GtRHwZ8Ttbjt7yCD/RdVu7jZHdRgZMcsnaX/pp/wAtOh5/1vo2vePvhfeWP7j4h6D/AODeKviquDxuFrezkrn22GxuExdH2jMa8s/OizVP+zZv+eFL/wALA+Hfmf8AI7aT/wCDGKtD/hOfhX/0Pui/+DiKp9jjP+fQfuf+fhS02zvvtVdJDDPDbf6j95WRZ+OvhnDL5x8e6J/4Moq2P+Fl/C6W18gfETQf/BvFWFShiH/y6OmliaNL/l4eh/DH4natNpcnh3XJ/M8r/Uy10nw9+J1lqUtxoePLki/5614hD8RvhbDL+4+Iuif+DeKqd58QPh1o+qf2rofj7SfM/wCwvFXm1cnr1f8Al0elhs2o/wDLyofR/wDwsKfR7qO+ggk8v/ltXUaD4lg1i1kvoP8Ant5lfLkX7Q3h+X73jXRf/BvFXQaF+0N4Rt5o54vHeixex1eL/wCO15tXh/Gf8+z36WZYOr/y8PpO817t59XNB8VarDL/AK+vFdO/aL+F95a/6R8SfDEUn/TbXbX/AOO1ly/H7wKZZCPiR4Y5/wCo5a//AB2uH+wsd/z6OmnmWD/5+H09Dr083/H8KuQ+JP8Anyn/ANbXzboP7SHw4htpBP8AFzQue02uWv8A8droIf2mPhD5vkT/ABQ8Mf8AXb/hI7X/AOO1z/2NmdL/AJdGn17B/wDPw9+s9Yg6QVqWesnyv3/myyV4BZ/tNfB+b/mtHhOL/uZLX/47WxZftQfBGKL9/wDG7wd/4VVr/wDHan+z8y/59VCvrWXf8/KZ7f8A2x5377/VVTvLwTSfv/NryD/hqb4FQ3Wf+F3eDpP+5ktf/jtSXf7VnwRPT43eCv8AwqbX/wCO0f2dmf8Az6qB9ay7/n7TPVvth/54S0v2zyZf9RLXks37UfwUPI+Ofg//AMKm1/8AjtGo/tO/A0+X9m+OfhDjr/xVNr/8drT+z8y/59VBfWst/wCfp61/aXp5stV5tY8mL/USSx15Qf2nvgkI0B+Ofg/38rxHa/8Ax2o5v2kfgZN/zXTwn+Pim1/+O1n/AGfmT/5dVA+tZb/z9PUxrE5lj/f+VUc2vQQy4n83y68l/wCGi/gb5uf+F2eD/wDwqLX/AOO1l6j+0v8ABuH9/b/GTwzJJ/2Mdr/8do/szMv+fVQy+tZb/wA/D1rWfFVjZS/uJ5JJK5vUvEk15H+4n82vMf8AhfPwi1K786++L3hSOP0/4SO1/wDjtacPx1+AsPX42+D/APwo7X/47R/ZeZf8+qhzVMywdL/l4dHDpk+sf8f3meXXQWevQeD7DyPDlj+8l/5a1xM37QvwMPI+Ofg//wAKO1/+O1b0346/s7QTR30/x18FeZ/2NNr/APHahZXmf/PqoebiMyo9Kh0ej+D77xHdR654jn/7ZVqXmm2P/Hj5H+jxVyniT9qr4GTRR2+lfG3wf5f/AEy8U2v/AMdr5g/bP/blsdG01/hj8EvFceoX9zETqOv6feeZDaxyDPlW8v8Ay1k/6a/8sv8Arr/qvQwHDmb4vGqmqdl3Z4mNzLCUqPtJVNTR/bl/bbtvBBufgx8DdW8rWgDb69rlrN/x48H9zF/02/56Sf8ALM/9Nf8AVfBxZzyR+NKTl8nr3pHbsK/ZsryvCZVhFRpf8OfnmNxtbHVvaVBtFFFd5xBRRRQB/9k=;" vertex="1" parent="1">
          <mxGeometry x="120" y="170" width="80" height="80" as="geometry" />
        </mxCell>
        <mxCell id="wxpGnIKAjZEVVhN0BYbd-12" value="" style="shape=image;verticalLabelPosition=bottom;labelBackgroundColor=default;verticalAlign=top;aspect=fixed;imageAspect=0;image=data:image/jpeg,/9j/4AAQSkZJRgABAQAAAQABAAD/2wBDAAIBAQEBAQIBAQECAgICAgQDAgICAgUEBAMEBgUGBgYFBgYGBwkIBgcJBwYGCAsICQoKCgoKBggLDAsKDAkKCgr/wAALCAFQAVABAREA/8QAHwAAAQUBAQEBAQEAAAAAAAAAAAECAwQFBgcICQoL/8QAtRAAAgEDAwIEAwUFBAQAAAF9AQIDAAQRBRIhMUEGE1FhByJxFDKBkaEII0KxwRVS0fAkM2JyggkKFhcYGRolJicoKSo0NTY3ODk6Q0RFRkdISUpTVFVWV1hZWmNkZWZnaGlqc3R1dnd4eXqDhIWGh4iJipKTlJWWl5iZmqKjpKWmp6ipqrKztLW2t7i5usLDxMXGx8jJytLT1NXW19jZ2uHi4+Tl5ufo6erx8vP09fb3+Pn6/9oACAEBAAA/AP5/6KKKKKKKKKK9g/YW/YW/aO/4KL/tHaN+y/8Asv8Agz+1fEGq5mvb26Zo7DRbBGUTahfTBW8i2i3rlsMzs8cUaSSyxxv/AEe/sdf8Gfn/AATA+B3gSbT/ANqlPEHxw8T3m37Rq+o6te+H7C02Szlfsdnpt0kke+KSFZPtFxc7mgDx+SHZK9g/4hcf+CFH/RjP/mTfE/8A8s6P+IXH/ghR/wBGM/8AmTfE/wD8s69A+Bf/AAQH/wCCNv7O/wDan/CAf8E9vh/qH9seR9r/AOE6s5vFHl+V5m3yP7Zkuvs2fNbd5OzzMJv3eWm30D/h07/wSy/6Rp/s/wD/AIZvQ/8A5Fo/4dO/8Esv+kaf7P8A/wCGb0P/AORaP+HTv/BLL/pGn+z/AP8Ahm9D/wDkWj/h07/wSy/6Rp/s/wD/AIZvQ/8A5Fo/4dO/8Esv+kaf7P8A/wCGb0P/AORa9P8Agp+z18Av2a/Ctx4F/Zz+B3g/wBol3qD391o3grwza6VazXTJHG1w8VrGiNKUiiQuRuKxoM4UY7CivP8A9pf9lX9nH9sj4WXfwU/aj+C/h/xz4Yu/Mb+zNfsFm+yzPBLB9ptpOJLS5WKeVUuYWSaPzGKOpOa/KH9un/gzK/Y2+KWj6z4u/YN+K3iD4XeJ5MTaT4W8R3r6x4bPl2bILUPIDf23nXCxSPcvPd+UGmCW7gxpH+IH/BQv/gjn/wAFBP8AgmB9m1n9rL4J/wBn+GNU8QXWkaB410TVbfUNK1SaHLKVkhcyW3nRK00Md1HBNIiSERgwyqnzBRRRRRRRRRRRRRRRRRRRRRRRRX3/AP8ABFH/AIIGftHf8FV/inpnizxr4f8AEHgb4GWmLvX/AIjT6Y0P9sQpPJC1jozTIY7u5aWCaJ5gHhtPLdpQziK3n/qd/YW/YW/Zx/4J0fs46N+y/wDsv+DP7K8P6Vma9vbplkv9av3VRNqF9MFXz7mXYuWwqoqRxRpHFFHGnsFFFFFFFFFFFFFFZ/izwn4V8e+FdT8C+OvDOn61omtafNYazo2rWSXNrf2syGOW3mikBSWJ0ZkZGBVlYggg1+CP/Ba7/g0q8CeDfhZqf7TP/BJzw14gfUNFzda/8F59Sl1L7VYJBGrPo0k2+6kuUaOSZ7WaWZrjznW3ZHjitp/wBoooooooooooooooooooooor97v+CLX/AAaQ6d408K+H/wBqX/gqvaahDaatp9zPYfAdBcWF0kcqILW41W8gmjntpQGmkNhEEkRvs/nTKwuLMfv94T8J+FfAXhXTPAvgXwzp+i6Jounw2GjaNpNklta2FrCgjit4YowEiiRFVFRQFVVAAAFaFFFFFFFFFFFFFFFFFfjD/wAHLH/Bv/8As4/E79nH4j/8FHf2Vvh3/wAIx8VvDH2nxb4+stIuFSw8WWCrGdRuJoZ5khtbmCGOa+MtuA1wy3KyRXE9ykkf80NFFFFFFFFFFFFFFFFFFFewfsLfsLftHf8ABRf9o7Rv2X/2X/Bn9q+INVzNe3t0zR2Gi2CMom1C+mCt5FtFvXLYZnZ44o0klljjf+p3/gij/wAEDP2cf+CVHws0zxZ418P+H/HPxzu8Xev/ABGn0xZv7HmeCSFrHRmmQSWlssU80TzAJNd+Y7ShUMVvB9/0UUUUUUUUUUUUUUUUUUV/Nj/wc1f8G83hX9kvTta/4KR/sS6Rp+k/DSbUID8Rvh9E6QR+GLq6uEgivNNQkA2M1xNHG1onzW0kqmJTbMUs/wAUaKKKKKKKKKKKKKKKKK0PCfhPxV498VaZ4F8C+GdQ1rW9a1CGw0bRtJsnubq/upnEcVvDFGC8sruyoqKCzMwABJr+w3/ghf8A8EZPAn/BHn9nG/8ADNz4r/4SX4m+O/sd38TfElrNKLB5rdZfs9jYxPt221v9onAmdBNO0skjiNTFbwfb9FFFFFFFFFFFFFFFFFFFFc/8Wfhb4E+OPws8TfBT4paF/anhjxh4fvdE8R6Z9qlg+12F3A8FxD5kLJJHvikddyMrLnKkEA1/Gl/wWl/4Jn6j/wAEo/28/EH7MNnreoav4UutPtte+H2u6sbcXWoaNcl1QzLA5AlhuIbq1ZmWIytamZYY0lRa+UKKKKKKKKKKKKKKKKK/pu/4Nc/+CEvir9ifwrc/t3fto/DPT7L4peKtPiT4feHdWsXOp+CNMkSUTyzB22W99eJIitF5fn20EZiaRGubq2j/AGOoooooooooooooooooooooor8sP+DtL/gnj4q/bL/4J6Wfx4+FPhXT7/xX8CtQvvEl9Pe6w9tInhdrN21dIELCCaUG2sbkiTD+XZSrCxdxDN/KlRRRRRRRRRRRRRRRX7Hf8Guf/BCXwr+2x4quf27v20fhnqF78LfCuoRJ8PvDurWKDTPG+pxvKJ5Zg7b7ixs3jRWi8vyLmeQxNI6211bSf03UUUUUUUUUUUUUUUUUUUUUUUUV/El/wV6/ZD079hD/AIKXfGP9lrw9ZafaaJ4e8YSXHhew0y/uLqOy0a+jj1DTrYy3I815YrO6t45C5c+Yj/PIMSN84UUUUUUUUUUUUUV7h/wTq/YN+Mv/AAUj/a48J/sqfBnRdQeXWtQifxLrtlpwuY/DejLLGt5qs6vJEnlQI+QjSIZZGigQmWaNW/tM/ZV/Zo+Fn7G/7OPgv9lz4KaT9k8MeBvD9vpWmb4II5rry1/eXdx5Eccb3M8pknmkVF8yaaRyMua9Aoooooooooooooooooooooooor8gf+Dvf/gmj/w0z+xtp/7c/wALfCf2nxt8Ft3/AAkf2Cw33OpeFZ3H2jd5Ns8032KYpdLvljgt7eTU5WyzCv5gaKKKKKKKKKKKKK/rN/4NYP8Agnj4V/Y0/wCCaPh/48ap4V1Cw+IXx10+28SeLJ73WEuY30xZLltESBIWMcMRsblbkg5n8y9lWVhsjhh/S+iiiiiiiiiiiiiiiiiiiiiiiiiuf+LPwt8CfHH4WeJvgp8UtC/tTwx4w8P3uieI9M+1Swfa7C7geC4h8yFkkj3xSOu5GVlzlSCAa/hT/aF+Cnir9mv4++OP2c/HWoafd634A8Yan4b1m60mV5LWa6sbqS1leFpER2iLxMVLIjFSCVU8Dj6KKKKKKKKKKK9g/YD/AGOvHf8AwUA/bJ+Hv7Hnw6vPsmoeOfECWlxqflxSf2ZYRo899feXLNCs32e0iuJ/JEitL5Plod7qD/cZ4T8J+FfAXhXTPAvgXwzp+i6Jounw2GjaNpNklta2FrCgjit4YowEiiRFVFRQFVVAAAFaFFFFFFFFFFFFFFFFFFFFFFFFFFFfy5f8Hjn7Ieo/BX/gpdpX7UunWWoNonxq8H21xNf3t/bvH/bOlRxafdW0ESASxRJZrpMhMoYPJdS7HIUxxfkhRRRRRRRRRRRX7ff8GXH7C3gT4pfHb4ift5fEXwZ4gk1D4XfY9I+GurbpYdKN/qFrfR6mcqoW5uYbRrdPLLlYk1Le8Zd7eSP+j6iiiiiiiiiiiiiiiiiiiiiiiiiiivzw/wCDo79kPUf2tP8Agj945vvDVlqF3rfwq1C18f6VZ2V/b28csdiksWoPOZx88UWmXWoTiNGSRpIIgu8/upP5EqKKKKKKKKKKK/rN/wCDSb4KeFfhX/wRb8H+OvD2oahNd/Erxh4g8Sa7Heyo0cF1FfPpCpAFRSsX2fSrdyHLt5jyncFKon6X0UUUUUUUUUUUUUUUUUUUUUUUUUUVz/xZ+FvgT44/CzxN8FPiloX9qeGPGHh+90TxHpn2qWD7XYXcDwXEPmQskke+KR13IysucqQQDX8Gfizwn4q8BeKtT8C+OvDOoaLrei6hNYazo2rWT211YXULmOW3mikAeKVHVkZGAZWUggEVn0UUUUUUUUUV/ab/AMELfgp4V+AP/BH79nbwL4O1DULm0v8A4X6d4kmk1OVHkF1rKHV7pAURB5S3F9KkYILCNUDM7Au31fRRRRRRRRRRRRRRRRRRRRRRRRRRRRX8SX/BYfwn4q8F/wDBV/8AaS0fxj4Z1DSbub44eJ7+G11OyeCR7W61O4urW4CuATFNbzRTRuPleOVHUlWBPzhRRRRRRRRRRX9/lFFFFFFFFFFFFFFFFFFFFFFFFFFFFFfyxf8AB4p+zR/wp/8A4Kr2/wAdNK0nxAdP+Lfw/wBN1W91TUYP9AfVbENpk1pZyiNVPl2lppsskZaR0a8DEqksaj8oKKKKKKKKKKK/v8ooooooooooooooooooooooooooooor8Af+D5z/AJtd/wC52/8AcBX4A0UUUUUUUUUV/e58J/il4E+OPws8NfGv4W67/anhjxh4fstb8Oan9llg+12F3Ak9vN5cypJHvikRtrqrLnDAEEV0FFFFFFFFFFFFFFFFFFFFFFFFFFFFFfgD/wAHzn/Nrv8A3O3/ALgK/AGiiiiiiiiiiv7ff+CTv/KLL9mn/s3/AMG/+mOzr3+iiiiiiiiiiiiiiiiiiiiiiiiiiiiv5Yv+DwP9sXx38cf+Cn5/ZW1Cz+x+GPgf4ftLTSLfzIpPtd/qtlaaleX24QpJHviksbbyWeRV+weYpQzutflBRRRRRRRRRRX9dv8AwaseLPCviP8A4Ic/CLR/D3ibT7+70DUPElhrtrZXqSyaddNr9/dLbzqpJhlNvc28wR8MY54nxtdSf0Pooooooooooooooooooooooooooorz/wDaq/aX+Fn7G/7OPjT9qP416t9k8MeBvD9xqup7J4I5rry1/d2lv58kcb3M8pjghjZ18yaaNAcuK/hz/aF+Nfir9pT4++OP2jPHWn6faa34/wDGGp+JNZtdJieO1hur66kupUhWR3dYg8rBQzuwUAFmPJ4+iiiiiiiiiiv6Dv8AgyP/AGvNOn8K/GT9gnXL3T4bu11CDx/4Xto7C4N1eRypDp2qPJNkwCKEw6QEjISQtdTEeYoPlfvdRRRRRRRRRRRRRRRRRRRRRRRRRRRX86P/AAd3f8FiNO+KniqP/glh+zn4w0+/8O+G9Qg1H4ua7omsXBafWYHmVPD8qptgkitj5VxOpM4+1CBP3E1jKr/hjRRRRRRRRRRRX2//AMG5P7S//DL/APwWS+CviLUNW8QQ6R4t8QP4N1ex0Cfb/aH9rwvY2cdyhkjWW2j1CWxuXVi237Msio8kaKf7HaKKKKKKKKKKKKKKKKKKKKKKKKKz/Fnizwr4C8K6n468deJtP0XRNF0+a/1nWdWvUtrWwtYUMktxNLIQkUSIrOzsQqqpJIAr+cH/AILEf8Hb3xl+N+o6x+z5/wAExLvUPAHg231C8srz4rkgaz4nsmt/IDWcMsIfRoi7zyJMrfbSFtZA1k6ywt+KNFFFFFFFFFFFFFf2m/8ABEf9vLUf+Cjn/BNH4bftI+Mda0+78ZHT5NF+IC2Wo280i6zYyNbzTTx28cSWkt0iRX4thGgijvogu5Njt9X0UUUUUUUUUUUUUUUUUUUUUUV84f8ABQL/AIKz/sGf8Ey/Cr6x+1b8ddP07W5dPN3o3gTSSL3X9WUpctF5NlGd6RSvazQrdT+VaiUBHmQmv5of+C0v/Bwz+0//AMFTfFXiD4ReBdX1DwR8AH1C2OjfD5EhS61ZbV3eK81WeMF5ZXdllNoshtYWht8LLLB9qk/PCiiiiiiiiiiiiiiv3+/4Mhv2o/8AkuH7FPiHxz/0DvG3hHwz/Zn1sNXu/tCxf9gSPypJP9qJP9e1fv8AUUUUUUUUUUUUUUUUUUUUUUV8Qf8ABwh/wUn8d/8ABLz/AIJx6x8a/g6vlePfFPiC08J+BdTm0uK8ttLv7mOeeS8mjlkVT5dpaXbRZWVftH2cSRSRGQV/IF8Uvix8U/jj47vvil8a/iX4g8YeJ9U8r+0/EfinWZ9Qv7vy4khj824nd5JNkUcca7mO1UVRgACufooooooooooooooor6f/AOCNn7dOsf8ABO3/AIKO/DL9o3/hM/7F8MJ4gg0j4iyTLeS20vhu8kSG/M0FowkufJib7XFHiQC4tLd/LkMYQ/2u0UUUUUUUUUUUUUUUUUUUUUV+IP8Awe8/Av8A4SD9lj4H/tL/APCU+T/wiXxA1Hwx/Yn2Hd9r/texF19o87ePL8r+xNmzY2/7Tncnl4f+cGiiiiiiiiiiiiiiiivUP2IvE3wa8F/tofCHxj+0ZbafN8PdJ+KGgXvjuHVtJN/avo0WowPerNarHIbmI26yhoQjl1yu1s4P91lFFFFFFFFFFFFFFFFFFFFFFeAf8FOv+Cenws/4Kg/sbeKP2Rvilqf9kf2v5N54c8Uw6VBd3Ph/Vbd99vewpMP9+GVUaJ5Le4uIVli80uP4oviz8LfHfwO+Kfib4KfFLQv7L8T+D/EF7oniPTPtUU/2S/tJ3guIfMhZ45NksbruRmVsZUkEGufoooooooooooooooor+/yiiiiiiiiiiiiiiiiiiiiiiivxB/4O9/8Agkh/wtv4Waf/AMFLv2b/AIR/afFvhLdbfGP+wNM3XOp6EsA8jV7nEo3/AGDyRE7pDJKbe5V5ZEt7AbP5waKKKKKKKKKKKKKKKK/vM/Z60b4y+HPgF4H8PftGeLNP1/4hWHg/TLfx3rukxhLXUdZS1jW9uYVWKELFJcCV1AijAVh8ifdHYUUUUUUUUUUUUUUUUUUUUUUUV/Oj/wAHL3/Bunp3wT064/b9/wCCc/wW0/TvAmnafPcfFf4f+G4rhpNJkNxPcSa5bQvK6LYhJViltrdIo7KO2SVIzCZ3t/wxooooooooooooooor+9z4T/FLwJ8cfhZ4a+Nfwt13+1PDHjDw/Za34c1P7LLB9rsLuBJ7eby5lSSPfFIjbXVWXOGAIIroKKKKKKKKKKKKKKKKKKKKKKKKK/li/wCDiH/g3e/4dn4/a0/ZLbxBrvwb13xBcR6vpE1h53/CvPM+zizgmvDO811bTzSXEUU8kS+V5dvDNNNNOjy/lBRRRRRRRRRRRRRRX9B3/Bsr/wAHD/wa8MfBrRf+CcH7e3xG0/whL4Q0+dPht8TvFevmPTrzTkLzDSr+5u5ClnLboTHauWS3e3ijtgIpYohdfvdRRRRRRRRRRRRRRRRRRRRRRRRXH/H74A/Br9qX4NeIf2fP2g/h7p/irwb4q082Wu6FqaEx3EeQysGUh4pUdUkjmjZZIpI0kjZHRWH8aX/BYD/gmx47/wCCVv7cXiT9mbxM32nw/c79b+HGrPqkV1NqXhue5njs5rgxxxbLlfIkhmUxRjzoJGjDRNFI/wAwUUUUUUUUUUUUUUV0Hwt+LHxT+B3jux+KXwU+JfiDwf4n0vzf7M8R+FtZn0+/tPMieGTyriB0kj3xSSRttYbldlOQSK+3/wDgnp/wcmf8FNf2F/inc+LPGvxr8QfGvwxrP2WLX/CXxZ8WahqmIYpw7SafdTSvJp9yYjNEJAJIT5oaWCcxRbP6jf2Dv+Civ7I//BSP4NWXxm/ZU+LGn61E+n29xrvhqW6iTWfDckxlRbbUrNXZ7WXfBOqk5jlELSQvLEVkb3CiiiiiiiiiiiiiiiiiiiiiivxB/wCDzb/gnR/wsr4E+FP+Cl3gDTt2r/DnyfDHxA/fY83Qrq6P2G4/eXCqv2fULhotkMLyy/2tvdhHajH84NFFFFFFFFFFFFFFFFewf8E9vil4E+B37fXwP+NfxS13+y/DHg/4weGdb8R6n9lln+yWFpqttPcTeXCrySbIo3baiszYwoJIFf3OUUUUUUUUUUUUUUUUUUUUUUVx/wC0L8FPCv7SnwC8cfs5+OtQ1C00Tx/4P1Pw3rN1pMqR3UNrfWslrK8LSI6LKElYqWR1DAEqw4P8mX7dP/BtP/wVX/Y18d6zbeE/2cPEHxZ8EweIBYeG/Gnw304alNq0LxNNFPJpVs8t9Z4RSkpkjMMcy7FmlV4pJfhDxZ4T8VeAvFWp+BfHXhnUNF1vRdQmsNZ0bVrJ7a6sLqFzHLbzRSAPFKjqyMjAMrKQQCKz6KKKKKKKKKKKKKKK/pu/4M7/APgorqP7Qv7I/if9iX4v/FjUNa8ZfCjUIrjwhZ65dW5kTwjNFFFBbWp3/aLiKzuo5kcuhS3jvbGFH2GOKP8AY6iiiiiiiiiiiiiiiiiiiiiiis/xZ4T8K+PfCup+BfHXhnT9a0TWtPmsNZ0bVrJLm1v7WZDHLbzRSApLE6MyMjAqysQQQa/CH/gu1/wan+FW8K+Jv2yv+CWnhLUE1tNQn1bxT8EbCNHtZ7VkQyNoEMcYeKVHWWb+zyzrIszR2oiMMNpN/PjRRRRRRRRRRRRRRX2//wAG6v7Yvjv9jf8A4K4fCfUvCNn9t0/4k+ILX4e+KdM8yKP7VYavd28CN5jwyMnkXYs7vEexpPsnkmRElc1/Y7RRRRRRRRRRRRRRRRRRRRRRRRRX80P/AAd1/wDBJbwJ+yr8U/Dv/BQL9nvwj/Znhj4o+INQtPiRb/b5Ztviy4nudSF9uubqSQ/bYnuh5MESQW/9m9QbhVr8YaKKKKKKKKKKKKK9/wD+CTv/AClN/Zp/7OA8G/8Ap8s6/t9ooooooooooooooooooooooooorw//AIKUfsh6d+3p+wZ8Vf2R7yy0+a78aeD7m38PNq1/cW1rbazEBcaZczSWwMgihvobWZgquGWMqySKSjfw50UUUUUUUUUUUUV7/wD8Enf+Upv7NP8A2cB4N/8AT5Z1/b7RRRRRRRRRRRRRRRRRRRRRRRRRRX8WX/BdL4KeKvgD/wAFgf2ifAvjHUNPubu/+KGo+JIZNMld4xa6y41e1Ql0Q+atvfRJIACokVwrOoDt8oUUUUUUUUUUUUV7/wD8Enf+Upv7NP8A2cB4N/8AT5Z1/b7RRRRRRRRRRRRRRRRRRRRRRRRRRX8wP/B6t/ylN8A/9m/6V/6fNcr8gaKKKKKKKKKKKK9g/wCCe3xS8CfA79vr4H/Gv4pa7/Zfhjwf8YPDOt+I9T+yyz/ZLC01W2nuJvLhV5JNkUbttRWZsYUEkCv7nKKKKKKKKKKKKKKKKKKKKKKKKKKK/ly/4PPfFnhXxH/wVf8AC+j+HvE2n393oHwP0iw121sr1JZNOum1PVrpbedVJMMpt7m3mCPhjHPE+NrqT+SFFFFFFFFFFFFFFf2G/wDBuH/wUC8Vf8FD/wDglz4U8dfEqfULvxl4A1CXwP4w1nUGeRtXurGC3khvvNlnmluJZbO5s3nmkKM90bkhFTZn7vooooooooooooooooooooooooor+HP/AIKX/H7Tv2pf+Chfxs/aD8PfELUPFWieKvihrd74X13U3uDJcaN9slXTlC3IEsUSWa28ccLqpijjSPagQKPD6KKKKKKKKKKKKK+//wDg3e/4K8/8Opv2yT/wtLWvs3wb+JP2fTvij5Og/bbmz8hLj7BqUOwrMv2ea4fzVTzN9vNcbYJplg2f1+0UUUUUUUUUUUUUUUUUUUUUUVn+LPFnhXwF4V1Px1468TafouiaLp81/rOs6tepbWthawoZJbiaWQhIokRWdnYhVVSSQBX4A/8ABf7/AIOjPCvj3wr8Rf8Agnh/wT507T9a0TWtPk8O+MvjK90lza39rMk0OpWOlW5jKSxOjJCNRZyrK1wbeMg297X4I0UUUUUUUUUUUUUUV/Zb/wAG+v7Yfir9t7/gkt8KPi58SvHmn+IPGWmafc+G/GF1bao93dC6065ktYXv2lmll+3T2aWd3MZGDSNd+aFVJUFfZ9FFFFFFFFFFFFFFFFFFFFFfGH/BXX/guP8Asj/8Eg/CunWPxXi1Dxb8QvEmn3Fz4W+HPhuaIXUsaJKI7u9lkbFjYvcRiDz9skjMZDDBP5Ewj/lh/wCCgX/BWf8Abz/4KaeKn1j9q3466hqOiRagbvRvAmkk2WgaSwe5aLybKM7HliS6mhW6n826MRCPM4FfOFFFFFFFFFFFFFFFFFfsd/wZ/wD/AAU38K/sx/tQa7+wZ8XdT1CLRPjZqFm/gzULvxCkWmaPr9tDcDymt5mVBLqCGC3EsRMsk9rZQeXIJFaH+m6iiiiiiiiiiiiiiiiiiiivhD/gpv8A8HD/APwT0/4JteFbmxl+I2n/ABR+IQ1DUdLg+HPw81+zu7rT9RtEcPHq0qyMNKiW4EcD+Yr3AZ2MdvN5MwT+SL4/fH74y/tS/GXxD+0H+0H8QtQ8VeMvFWoG913XdTcGS4kwFVQqgJFEiKkccMarHFHGkcaoiKo4+iiiiiiiiiiiiiiiiiiv6Xv+CBn/AAdB/wDDaPjvT/2M/wDgodceH/D/AMRtT+zWfgDx1p1t9isPFdyIkiNleRljHbalNKrSRtEI7e4aUwRxQSLBHc/s9RRRRRRRRRRRRRRRRRXl/wC17+2h+zB+wX8Gp/j/APtcfF/T/BfhSHUILBdQvYJp5Lm6mJEdvBb26ST3MpCu5SJHZY4pZGASN2X+bL/gtd/wdB/Hb9v/APtP9nv9jC48QfDT4Jar4fOm+I7XUra1j13xV53lvcJdSwtL9jthtMAt7ab99E8/2h5EnFvD+UFFFFFFFFFFFFFFFFFFFFFFfpf+y/8A8HZn/BYH9nDwq3g7xP4+8H/Fa0h0+ystKm+KHhp57qwjt0ZNwutPmtJ7uWUFDLNdvcSO0StuDNIX+n/gp/wfBfH3QfCtxZ/tGfsDeD/FWttqDva6h4K8aXWgWsdrsjCxPb3UGoO8ocSsZRMqlXRfLBQs/wBIfs0f8Hq/7DvxA+yaV+1H+zJ8QPhtqF74gjtPtugXVt4i0qysH8ofbrmb/RLobGaUvDDaTsEiUoZHfy1+3/gX/wAF+P8Agjb+0R/an/CAf8FCfh/p/wDY/kfa/wDhOrybwv5nm+Zt8j+2Y7X7Tjym3eTv8vKb9vmJu9P8Tf8ABTb/AIJt+C9Rj0fxj/wUG+B+k3c2n2l/Da6n8WNHgke1ureO6tbgK9yCYpreaKaNx8rxyo6kqwJof8PYv+CWX/SSz9n/AP8ADyaH/wDJVH/D2L/gll/0ks/Z/wD/AA8mh/8AyVR/w9i/4JZf9JLP2f8A/wAPJof/AMlUf8PYv+CWX/SSz9n/AP8ADyaH/wDJVH/D2L/gll/0ks/Z/wD/AA8mh/8AyVWf4s/4LD/8EofBfhXU/GOsf8FI/gfNaaTp817dQ6T8TtMv7p44kLssNrazST3MpCkLDEjyO2FRWYgHw/8A4ijv+CFH/R83/mMvE/8A8rKP+Io7/ghR/wBHzf8AmMvE/wD8rKP+Io7/AIIUf9Hzf+Yy8T//ACso/wCIo7/ghR/0fN/5jLxP/wDKyj/iKO/4IUf9Hzf+Yy8T/wDyso/4ijv+CFH/AEfN/wCYy8T/APysrwD/AIKF/wDB4H+wn8E/hZbf8O+3/wCF0+NtX+1Qp/aWk6pouleHtsB8m6uvtlrFNeZmaPFtBs3pHPuuLdhF5n8+P7eX/BRX9rj/AIKR/GW9+M37VfxY1DWpX1C4uNC8NRXUqaN4bjmESNbabZs7JaxbIIFYjMkphWSZ5ZS0jeH0UUUUUUUUV//Z;" vertex="1" parent="1">
          <mxGeometry x="210" y="170" width="80" height="80" as="geometry" />
        </mxCell>
        <mxCell id="wxpGnIKAjZEVVhN0BYbd-13" value="" style="shape=image;verticalLabelPosition=bottom;labelBackgroundColor=default;verticalAlign=top;aspect=fixed;imageAspect=0;image=data:image/png,iVBORw0KGgoAAAANSUhEUgAAAOAAAADgCAAAAAA/RjU9AAAdeUlEQVR42sVdaZPkNo7FA5lZ3eNjjv//8zZ2ZiJmw1633XWkiLcfeIiUKInKzPLmRLR7qislQSBxPDyAkEc+uPeLFPDEbdi5Lz/5EZdfRv3043IO3oS9+w7dx8uTPzz3hnj/PTD0bTyoQDwsJzuLFRxahBj7nUcExCPCJdFaAXHqQsdKxPPle3zlDn8Xx5fGg/Lh2Tbl3BePJcT98mH3y+ybO265AexLxZ2n/xQBIQLU+huwCuw9DmTTx/FYh5+lQdQarF4/23uuFDhiNapf7X0Ru//3SQI28gkHr8JjCVGZRnYFXC1KENyLivS+7QcAWUIAQ68Ku7+EjnXG4Nve++gj5oX1+6WIkNxfi9zfoOTifXRND5vNSQ6+uFPWpfoeN8zZIjgFOwKunw3VtmLXMq3XIw7N0DO8wzqmgOw6iQ1rijkEY7s8DpT0FAGTddmLvnZvXB67axbQ7NRWh0OGko8KiGpXcMs1Y9tLcUgXqHzhiIT7iRpOWs92+ez4d6zW7fFaK24iphPsbMajVcgHBEzyDbiznRc76AjbZXosIDd3Ik7JF/V1EiwYiLg63nKOIjik/C0J8Vz5GiPTiaNGU3DU7+chCfEM+bgD1JyVb0fCMfXfJ2DZfzwOT/BoQghZLtNTEra/pmduuZaPJDkuxdjr5OoLw+AB7zMyxf+xSR94hyDDOizGJpsZjm9hnhSwke/EKuuunOFtiNrls7I15yTE4M1wSr7FddvEl3dKyBOvh+N7ECIAICdusLhAie6AO3Psk99rMnAd2Q2QQU80pkpgyM6QVfKHM++lllBH9PeAfJUegRNKZCcNHgdiKwmPlygehzVXMeaIhGzitJOf0T2ILB/vXZjoZbNjG4q8V7z6gfU4fsFZ2QDs6Q/nnpOrAOeUhBh5VJ7YguhHXbWfGXeIZdeBTdh94qNH8lUrak+XGNmoOGv1OYwF3CFglg99i7O0ROjBo+gvmTN+7e78Ln38mYirQovQW+bof52ryBW8z2yAp7/rjxS4eoPE4Mus/Qt672ngUdm5xzkJ9SDIWhuj03asm8aMm0QyZmV3WNKDPYjGTA+ra2P78D7QMloX4D5fsbNEcWZlQMYJE7xjofGBVaq70ePh6wZkOBJ4GHeuDDmGww89seaqi84+ATs2h2NSnnwtkNGcZGeJbvm7u7Z6riERp4q9PUOKmgU2tCt020dgC8IZZ1It5CHv0SQ3wrexlzyEqnX3YgOxba0X9rEY8swmfEhCv29huLlmuOGGt3X4lMRyCbvgLqYTBIplrLsfGYIyzKriRlozAkNihV7xvIAlcj4W8D4W5VbeNlhbWwjH83sQ6PsZnpGBp357wDA3CosPOPAtPQKaDh6YR2Hk/RDcloSrxAvnBIQAwP1rbfE0Efk7FPXkqygQ3eGD6lCU1ll+wysww2MHv88z77CCd45QHu0pUHfkGxUNYyuWp9bzHbUj3dD/MFWZB+m8jG/S0UXBFcKDcQGjAhUb1AWuDR/vsxj3ORZuxjRnrGhcopk08nmf+yHrE0tVO+I51VJDOLA2uMcZ3OlD7ntDvucDtaErcYd4VW50Fifjn7UKdO0DVfX88jyHVzwoH0+s0XU2AW1NTFPI2s1Gh33HQz0G2LF7RwJCJCvwSD1nOLnPX57E8KV0nSipHrImMQKTPmub7Vx7IEfThVagqmjqsDjw4QNKbCM/PktC8i4jk53gYUomA0WnXqyB5yiPHLIyuvKC1Q7EYWbc09AukvMM5Z2KX3XxohNjhDsgTxfxwf5Ofa6sPJFM+8UTIVdcOEea6BOH0IA+G8HAzHeofgF8mplJf9++ou+YA67j+k44k2Jt9PpP2Yr47EW6lpUDGqwQcS4eENwFUbDqf6idcXfxfqYLOdDgoClvwRBwtYZ5d4fuZwpYk992X3vFym36IIpB4qoYsbfC8KdpsHp87twbK7nTn2VTxirJoIhnQ9ozH90y7gviBradwJrmk0DLmJEcAlhn0IrHNQi0Mh6ULYmFDvPf4iIAseyffL4WR5HtGTLuvXbuRW0zS3Jmz5ZrVZcCsOMy7tUhTu7BzP7BKuWqOTJLkh27oFdSYd31ul1v/xwNrpcoSjp/pjRVRGTtQECUahu2sI1PBbYWAjJRNoDWKTQqxEA0zZIQE5VPxMkxJJ/jJgBaJDmtwkdshJv7Ws4+MQWNoyynTxEwdcTmLTjUpt4JY1bRNmfHmCX8k8Icv1ihJEXZGFEcLSuwn2lUkVFxFGlXPlPE/YfTnsfFcK6K/ewv+W+02VihEeP/Y4kaJTsvFFtx0IxfPDuk3/ONnls/G47ft22XRoZWVAjuQWZoY4+51Qi7yiZKw/lJY4NnaJBCC16gAGZWU3cPEqdujop8na52Tol4zhIVkgLYAoTZedcretZChcScZhDVv/L0krtrjfrls5AU6Bw2QjbEI5b/YTdqzl6w2tSIfVA5FOefamSiClcw2vaDlF6B4hCIzYR2Ee7wAetxlx+EiFjy9dk9o+Tsq+1CcNUZWKxP7RxZz/yBCGhyXod80h40A/cCk7Xl2HsU1kxKlNgHZ/chn2RkhGYBZMUNTQoEd5cT93gLS3I7CpyZ8qmHFumuIV5DFjQzkw4OiLEX3OVDpSCQTe2y6jvBn2VkhGQIiGsIi16Odr9gyzOyNwuJi3wEIrAqSPo0Q6Nri8j+kJ0ZUerJt56h09NiZXoAQazUfS6XY70HGQJcTHkXQ/lYJ1GyVyZkB9HJqVKRCAVJ417CMjLlcIds6jtvOqjG0KM8Z1pGW+YA3I+ucoTDurIICkjSsoQ7Y1seCHP8yrPRgrNqtEqNCtZvGjt2DJvxeYFqICBBmrI4ysdsKYc1GFOmqvm6E/dj7/IDJK5ilpWW/MXnZPkdTIYWnIOKRcSv4ChoWhaWm61TXVsNuShjQ0sATqGJqWWfjwdK+H0VdjQoZqYCFbKF07ZcRA5CWSWRM+zI2WNwVb9RioqYcq7UPFmNveILLbiIbrODyqDfKccOvxj1qBsui4aEACABmDXB9+IXH9qduo5IYtSBHmsU2zPMhmActv3OiLQVLdSVRfB0klqNYQ3SoplBtUYP3dHO0qrzDBaLlSQAgaxEgucdxP4u9F1jbiGqcPGNElWh62jRKcfXVTiuWrUjI8c0w0GfAB36/kKyAJft3Kq/+HD0H7ZSp4yWz+khIKLRKxnuwTGOYJV+7xJpnFOmYf4HeJDDMdcqYmdbCZQ0KtFWEj4+SNv3Aw6zGGE02R6rvLDnt7mEa9bMzqhDUERMQWarpZWxHR0zh87bXT+c78cZNDPUhlVKuNy9CVtzzp2KYZIQQiLH9JDoDm2cMjtqgjaXqLFzs5QO9IzJIn9kcQvLbrNZh5m3kCV0pTxzel1iE0j2G+utywoA0UlttovrXYp8K2HxtTAoaTux2no68og2NxokSUvGu5qpmVKcNrXBtph7y5lIlLoS/qhICg77qqhYVXvyLb+31UdPMq46Fr/QdMvn0Hi90495PQVpiiBsjlRVRFnlVPKUznS/tbZIog5Ci3gguAfJrJ5ry+xGFKp6cBVNNDmunevRmOKtnavHMGQBYrDG184EjNzbp2xntuBBve1qEOWWHdQw6nRO61Btf47GUWkXzrTNvEqUSjGpWG7YsmEY8SXSIeO1y7TF01pawgym7UDCWERqLVkv7sKM4gFQUsSkFfHculz8zG/K15hsVFnfsjKY5/Ee+y8uQ954k/QiAQAqxZgSx23Zx/f0m/KxUmLdpEUsGzFbtA1nJvZHV2HzdgYcYMnU9FzF2sAReyrcHnlUGbl2+Bh7w12ydzykZDTWloaynVO8BkLNSFvrsEfCBQ9ypp2ZTuScDy5bO9DckpiBP5wrpZCGUoGCRCAIoMFoLd10iTO3tYAB4BdrT5/P/4n4xdonLVGYRIIBD7OmjP4IdOYCAKKpgmc0kyhisyzbQiOPrfauBheOGHNaVMUxhW6HOVQ+gYzRMPO98qTywEALEpSrAvFGXHYqo5+NXNODnALtWodLViKryt/gCi1YI9MMDYWaMVgIE8zITh/07APPWdH1zZO1RmuZZ34kKgC0kEMoZzYiwUK6JKDOO29mIUxBEYLF2kVnH+1wP+of+u37Ms2ErfTGObKo2SGVcYmvYzenW7Ewqn0Gd3m5Xkibwm36eL9NwWBVARw1bDpU3/dbjopgZ0RDCwFXx0+Aaze5E4C2hJmZDQz1168vQpum2+QUQIhwG7oufmCZ+L03W1BasNseF8VD1h+rZYoxfAysSLOEwF2/fr1CzGy6Xb/DfUywIGwG4ValguO94Hd3h9Rs1j5ch6YQIdLCDr2pkmiCv0qFJOAu15cX0Cy4q6NBICFHp0uvhLNt5lyUbmuxyGpSekOjr7IMViS0YxXOVMaEYVAEerm+vKiFALUvIqkSGyzm360/HIorfOeW1XEPczGCGyAEOnEvS737FA+GpMD5ywtsAgn4LxZoQuFChwfGZdTR14TRCkCq9nuu0CQdRP5Sazn29ZeDNEpcAIRz3sNiRsEXMtLcSgCOJrw/Z2Q6dmZerDRdEyjn46VQI5+lWFovIQg7qH5FOCEinQZQUXUmQYQvwSyiJ2LLTBBDrv5oMl4hE9JQpdio8QqIAIWOBs788yLhDpEoudlct7MQDBSB0pnjl+ivIMsxdqNxvd91wlVYXCrMqIKbmjvDvHSKdoqv6J9QV5h4M4+NtDBNk6OZQKlQdw0Mxol0M4fuTA3Y7yqQDW27wPdoqWnJHVIEotaaGmxuRsz2Ni9hRg9/S/AFjDBh4j8GnQ0dGm7Nbh+x34ujiJ5K2VTQWDdkKa2SUOYyRANzLm8hGU0WoU232029qgkUOhFkMKORpjPcPuKGDq3oAirKMSOKn5vFSyT2yHphpvfMVab15IsqqIxt0fk8pxBuHyqpqA1QKCEEM1Ks4F7ZdVa7gPcJWE3FyDH/3E8m6xBRTZRWxwr9RVpL3GAYtOn2AXqvEDgxFwDnnXNWTfaqyhuHIY3fiYMLfDkntKzNTNZtGaQHEjQKy0pFw1PnGnEsiUH6sYVp+hCaeBWBeguOzjunShFrapBjw3T9URQ181dmijWIZiOm+QkQkIQJTQ3LFSBNmw+kO/yetOmmQJw5AYg3yg1SjSOsOLRboo3kg80ObFDkvO5R7cDZ3ZMETCIWuEgquNIe2p9E/sNNVUXVqYKgkU7zKKYChFckrNNGZtXcMKdr1b7GAitB+cMgIgZNOyYDNtV7Qu8YzNw3bCGEEDQYnRcazRT9Q287TnGYhDBLWcHtM2WGC65F1b0b/xWA5RaFmkhY09RWGkx3sWg0of4FDGJBATECmkzznqcfqtE3uXYX+EBdOaiPNNA4GDjaHbPlbat8bAWUpYGYpJmZibrrly9qk3ByGv2+SSHtcXz0tt8pUa62X4NZ5CyfTQkYEBMgIdbW7NqZa4j5rPVWwCghKepf/vIX5YcErwgkIEpTWs2+6kSjIzX6vciGFQ8hH3LBqjqEiN2m6NkaXvS82uupZtVqRSnEAO769ccfle8MH15z5xOqfdckvODZSGbuD29ZTqhpZ8rynFoUChFNhPpUJ0LhZbLulJQSoNcYRloP7vLl648/w/zHm4+zwkyUakt6Geas7ESNvpiXZSlnASYFAIwhMDUbmvTMUCqhsVcCbHZyUWAiqKPKnkUoUOevX3/6+Se52eXiyqnGsOXgU1T+cJjSvFxPlEUyO4MZECipQlGBZgXH7i6NQEPKY6NKwVbACludS3SAOn/58sNPP/3E9+ly0TQpLNESRWoaq6wDwb0C6Aa4USOtBTFrwhnETEkNqZYCMGfDEY2qssjlPIhZxCSh+svLyw8//vAD/e3L9eJcXNLExhEKuyCl37IsLWkCa6CF2bOLUMypUAVAojyxFBUhRLbwFXOhUSHKDwFVf3n5+uPPf/vrD3RvLy9eFaqLM3Bn7zqnFP3gba/4UjFIOG8w4UzBlhi3xLqeps0ngmxa0c0rUbctYdZh3IZxgf71b3/7+5fJvr54dS6ThijkoscIFcUWZ90EGw02NrUyi0ZqohMQEBhknlwGdpkn1cLMiEcS2Tn115cf/vqPf/z9Z/fqL5pMTD4ZpRoXhjktlE5OMJRNtHk7K6MzUyshtPQP1BLYsAoAWIPfcwWlaqcvfe1Qdc5dv/z4808/vJio9xorJMwet2UurjfVssXkOKNvuC0LnYqIWOR2myqV9WFiXFUrUaeBc5CH+YwnOH+5XK4vX79++fqXjzdRmWLwliSs9DeXvNAkTxyp8G7Ms1lM0kcpXyR/SObnrGPN3JhclcCYvX3lAqOF8ZfLxXvvnKq3i3dhuk0hGEun8FyIKpdfxjM8E6rtFdvTJQlCQIuRhuYnR9WIh6oaPjcMZc8O0Rjjwenl+uIdxIKF6eP9/fXtj7ePWwhWH8jRZKNzX44sGzDPC7gRDqSVSlKRvDF1OZKyIZ+QeRKm5AYRAKrOXS7OqYTp/e27vv3+yy//+eW3P14/kgpXy6yFLuNbPOXoB3SKcjISaApksxcfvoDdbeUqGSDN6RVEoXDq/fV68U7t/duv+u32/V///uf/fPv+njWYuyxnBknJ7AUAjWta+4MCSkFHCDEQSEJGmjlKn9lMwSx84gi8pNkLUAfnLv56vVydTN//9/p+tfd//de/f/3j9e1mbQtAr31EIaI26Ogxtg/RFMvyUiMQF6jWACibamliwkKdgkZC1Dl4d7lcri+Xi4b33/2rD2///e9ffv94u03WPRGdDR1JhRZzjVGezFGhvZ6DU4AbgjGWAU1nA9q4+AqMUw+aUURV1furv1wuFyf28V1f/ccf//zP76+3j2xiCreNdVKH+eUhRcFLVO2wFLtbQmxEJAgIqQJRQ4NolDww89GjWZFgJgLnnL847733HpxeA/T1t//59vY+lR24FE9qggsEoLbYaRJwfQgfMSbfhhYt9ZAjJVQFFi4F01JLVuci9w7OOe+9c855VYbpI+DXb7++3j7ShJv6GAgub5/+UBEC3KnwZk9+5gihhYhRPzaHmIQ2Fe/C3U+RtRrNKOq8y612lDCFKfz2/eM2JeJhUSDJNe+pNGGiqf1EAbttjcPiLWC4FJ8mrmsEG8RKHs7k/QkwrV51SjOjU+ec5sA63G4f799f325mWXPpbBVZ8/ohDT2Ch27idJ2xiXpjX1JZoSAUSkh0/hFUQbYL0V/SjNCkQAgthNv7+8cUpB5YPM+LaA1oeXsRBx+LZHiulXYZ1wtnAaGmliKNkuYjDY4yo6gKAwXOOXVOIRbCdLu93z4+bsGM5QxJzgE3ZvwqjddK2cZKQo/TpvNYh6CpFQGp1KjLCkGdgfqLKkRJOKdOAaGF2zTFELsUI5jW6nx6NGRxlDyZRm7JUyOZTciRif+hkmtN6fmqs8NpIQQPFQhFAYFYIM0a6Rg7w2ftsIDSmPssM0LLdTax5n7fcRgLlhwwA5NzyoggZcHuo4mFYAknU6caWzPDNFm0rVCJRQ6LGmTFEGwm1iPnw8vjln3FYXmmDue/R7ANsdxkgBYqK5GH1yghsWwtNDBYqsDktx0XaCbjU1YEwbxJ2TMywNNnYtZ4vYGa8lkDIrzB/M6FZkaI5uSJJsosTwZqmCoWrG1qnIiBKlDpHnflu6vyKfLOHBHTiC2ChhKoERW6k4GO+HwWYYoIPs6/xay85lFz+Gf9Gfi+wqgekpCriWIoGX8Vkc747SxhZTkgBjIEm+1lwgzT5suOsKJazQSBHoXXVyi48Kk65My/tDj7oyqUoQwfqE0fo9kNUzDOrq9GgupOgIIsl0aALQ0+RaCVCpsGAysn/sUdmUblQUCzgLQjRURFaVMIk5G01PDOCjNkvTbTMW07x+P5Cv16UMouz61e+ym8oSIhjHFh2ZSJ/Hk72mRTmIIlWxP/W2zlnFkCqjmKGagPPtfOlPowK8BSSDpQBaY5jLRwE5v7ogEVhmmaQggh0HIfTO0GYgEkHhHVlP/RA53qsZjPHv5VahhMeWKEMpjjbhEaJqGLBe8kIGghRA1aEbDeX0U+qIpE1gpEWRcqln7w+YPNuD62gARJVRVqwmxowMSQjGDB8y2EkJy9cY5D55oOAFUoVITaHUjfLlG2g/7OfAa4y/WAh7iPNFWFIWrCPI6k1HyFFixp0GY7UxnQBKRqd9wul5FM73k5LN/IWymjASBU0tScqilAixFankSb/xYXacghGnMnVakRz3N2aKIEmorJrEifxg7JQ1uw33i+3o8UMVCpJBXOFKa0+TzHAsKRUX91iL1yEPF/aX8BW0ynQpx/5ANug6szh5YZrTA1VZhCoQpoVacXIcXEEuPJ5jCmbtFSVYU6hYIUUm3rxAq/XRM8KSEGihgQxilVVMa0WE3jgYdl8nbJzK2Vr+ZopFo3oAoKjAaydiS1FbXuNMY7bM2ATS2ULjDqMdYyFKL1eTNpXUYLIzVSkdeo5mqNggjFFc710WoPykyj/aRP06aau/BABSPSDwOsKgTk2KwynqxHl6Hq2tDUNFLG86+CbYrFZmTcZ2XOvJe6MEwQ0ETuweIUlpI5lAypOcE+F7DSVgzhtj0hxOdqKx9GLYZBt5nDUNi0kLZC3ixMtggz8kcEql5duLkwn0++UJOfT9EQuWtYK49PLqo5LqU6SwIhk7RWrEY2E1erLCIbmPRx3rtgCqi6NFZhbUW5O9X+bhE3f42ziMLaSS0a4+uBSVwu0GhkvPMv12DvquYY6WMLdp5P37blLPrPGLpbN2NV9f1mEnCt6t5k5Eo657xz/vKVt/fJSHVpNEav+MIT4y+GLA2Od2N1EE59Vlc9Pq9fmIcqVB3Uee/89Qs+3m63Zdt/KyBX818fVCGG8FPpMT+IinDUDljPCFNUn3p/de5y/XqZXt8x9/lyK5uYR9qDD0qIYWSjizqjmS3fzq7GLKG/XC56uVy8i3FBbLnZKL4wArEin36gDju5S21juLl3K0apOu/99fri1V8w3W63lDnukPFYR5N/2qFBq3ORF421dQcXKj/onL9eXl6+ODi5vX77/vZxC4E97Mm3aDRERPD48PnhYkfHxbABMRcNGsl++uvLl8vLywuE72/ffv3+cZtih9oK/fWLqlD9PM85j2UmxwyI2NLFGy1nVrBqpMx+vV5fPG/T7eO3b68f07SRMHlZ26+nwk84xjZYvYHdoCEHoM5dXl6++otD+Hh7ffv2/e1jshZY7NcHm3MvnrIVcQq+2b7GzH/OPuLiPWx6++P797fX99uUxiAvB5mt28zTOn0ygnjc60eMpicZD2UI4f31++vr+/ttspmJIbtkPOKetBCH/9xMLBzBqDoAWVOWt/Au4fb29vr+frtVXL2lAjtNyk84VJXYhxc3EBysIpf6jKYacWK4yXsIt/ePt9st8mVzDXs5H8T3AL427H6CApdybQ7/bw+Fa4xwBe2ITfxgCNN0u01leXbl6zZIcq76npkCt20fUGdJaxHRX9NrR5PK8uQUQAkR3w+56tSVr98/OLwTcbxGm17PlvYl22MS0JMwgRRAnG9hEf3el2/rmPnuWbwntNf28KzOn2YnKF09QAVV5d4mqFenqWifq06yJ99W99n2MQvje28pXxcU7lyq1mDV0pzcgybpJNUNhe3+24tkVhLiOUd2t3Pym6FanWmM2NBngnolVWOkaI978m1P70zkjL2W4J6z6tkXbKiqvvamiOU6KgoFWgi72E8T9hFryJ6E5QXtvJvN0b6ymHbQu9umKW1n1eUmBGRGUwnKYlxeUdT2uWr1YW1cHvpycgf2Ovl5BAfvfkImHGSou+CoO/SQXs9hme2Tur625lVtWYzdl4BdDbK3NppG0bKi5l9tEiWeMPQ7AqIbavK0mkfyyKU/bTrEALYcSo4/QeZI8fCsZOyhfI+JuOYuL+9cGRjhoJuoYjYZHa8v+PxjrtnRwN7yPBCwmT9yzwN8omyF+Dbr79Sohya1QKevrj2JYffEG9wp++GRh5gP9Ny5Po7vU1otuG8KuPOYd57ksoN0RPuSZ/HdH0/ODn/P229rEDLmMY+ejV2QwHIo+YiAxycAYidy/rwPqhadnaf7P+6HFzqulji3AAAAAElFTkSuQmCC;" vertex="1" parent="1">
          <mxGeometry x="480" y="170" width="80" height="80" as="geometry" />
        </mxCell>
        <mxCell id="wxpGnIKAjZEVVhN0BYbd-14" value="" style="shape=image;verticalLabelPosition=bottom;labelBackgroundColor=default;verticalAlign=top;aspect=fixed;imageAspect=0;image=data:image/png,iVBORw0KGgoAAAANSUhEUgAAAVAAAAFQCAAAAADMg3kFAABBPklEQVR42sW963bjuo41igkpqd3f+z/pGaO7V8UW5vnBG0iRFGU7q9NrV1clji1BIC4TwAT+CA+KYNvEhEKJX3R/lu+KiAjyH+98cfpNzn+1/+mY/vP0nqi/zfVrRvqvfAgEAhHdVQ5ShAiv50mY3bdF9VMO743vyJlrTwODXwAnl39+ebnzsa7AP/H6/eNDtl0Zf2pRpFfiXBPU+y9YfhgciIC1xFsNwPAjuCbS9lPC33ZAnagR3o3j5yvTa1n/wqXosPoZeOnJzN6cmOt+fdYrke7UaBO0shHxKXH4eS+f6blEuGA3IL/25dUIrzxE7qRuIoJvExJJP5N64OqGcOug4lKJ0P6T7iJ+UZL1scBE0CCGwqDITpNNRIDqpjg5cbjSNt7XJ9SSxfn9MPJBXo0xP/cLl8LBfVdm0R/z1lDgP4Ra8nDs+LxXBMT2xf3DO7AqnIUrv/3FlagLUcCd69mNYkNd5Dn+uCXP9nfQuV50HhnXDuK7zvD8hDl1xv49wP65xNd1tMcbCnphb3lTSz6toTgfftb6w9ODxTnmAdq3yUqwD+XFmeN9KXDkR87jO0LNImMJfZDfm71Q38fmp0iVrfEnsPMcymKYruCmuPCmHXsnbMKlfYYX560HjqyS8CKjYD+Hs+7VvyDPlXAdC2kaljWy+VX2fSQvUqQ2Eufg8/Y69sftNGU9Wkc6FNdvXb+ke/FrN4/2ELd5Kl8/T3CPxhnTbeoBX7WfmHgULKTT7Q94x5pUHoONPD8VeQEeRUCxoZuLGAboy8Lj41Q7MZPFixLFajK2Bl+9cADRwWWIPT40yK/JE3N8CBdR8OtBZvs2vIHMLFjR/iXuExEtftREHjy70ihNNskkP6I0r7wQr4o1+HA2D2cv70i8YD85ut4oT5yUEcwyxRvqSHxGni+LlRElaUPOjfn+y8+5GDDxCuhALVG6/+H68HH1kxahLL6dm4wy6hJ6JIGeQmEuPP65p2AutPRCQZ4jDpF+qrLmliBrAsXnsrmTRCnA5o4b7slz+CL3hhgEY1zyzJTlmHFJ71ZSV74i0XLP++RsvOgSwIk8c3jfOc9nz99COnzNISWs7ZNhU2vIOfPyvHW5vbDdJV48Y8AghOjm7Jgghy9FUh8KHbjsGrepPFcNDs644PCX4aPcSQrE2anHrUeeNZQLysHTKYEL9q50rSPQZXn2gHm6w77wyPsyxViigzR+yTCGgG30Wsq4LglfZ7vwjdvr8mxtnyv/YM3YUaYoNpct+ppApyrKd62CEyj7Fehry0k5lzLQzUSGeSi7srvbJbP26EOyMc9RLsoKp6yOzf1GgaZ67ctoFvqR/Cq2xjpIPfsCvpl1ckFYrG+E0o00Zk6bKALl66mxi4UwMW9NtItB8M6+RC/1ZvEwcfHAuWx9wekjJ6NjgeICbuwmDLg0mTinLA1wzhd0dF2ilHWJcigWDkwBhmjTvGGwVw7OeeZq9N29w1JibI3dh2JQsBM81ggZZp6Ko6QxKmnS0Mvw6vpK0Xt4N0CV/DNW4cPSoV/tFsAFbM+5rZw+3lAS0dE7k6vtDQGtUg3X8AE9CmA4T2AG8I48fZzByzfi/AMHsLkIzxqKXjqCizQZo0d6X0ODp4961HtXvipQp6Ir2NRrZkbfed7pIhGO+1k7R48YFxqPqpSNq1/GveuVG4b+9tf+fs4Qjee9uOsCIU+qEdHvefPTSyLga4X9lzT03lODXskT8auTp80NKTvI3hmIvCtPXDdkFk/yiSPPTkA0EafWn3wGTPzbAAsCgPSx/o8cTF4jBG8den3vwJ+P+yze6ilpL8DoxC1Du4kboqyzW/kViSoZzuTkbXHffMqieuHyaHJ0su8e9RdLGy9oKF8ueATzyZk8rya0ktLihbsE7kWg/8pXiOwx6xnsl7E5U89ekfjqBk9WOM6j4RNCYRen+w357/0YApfRRPIu7EKF19OLONdM2fuUIFO+lc7/m5UoDSkmx+ZpcGihirPDuQWhYoS8TECZV8T5Sivwy1ZU5Vz/v/4sBjeW0C7n1HDncjDtVUDnmvABcf6uvibF8sf3OvYu8nzlIU/qG2ysKU/unq+fdo8X47fsxP7aU1hIsEaRI9sS6Qn+Adu/Eh/DQ39JP/PVaSf8vlKzqXu/A7U5SxGtBgaq7LrLbvZtD2Cka/m+YEXRZEpc1s+rAz/NEzrGY5xSdB7dy/7ijISSiw3Ui4qP3pG/ul4onKkPFzmcdLvATerKbW/CKoxbhKlerFV63zj+bC/thWTH/UmRy55LiEKGINBEcMMogrU7attFOGhCHKRnV5OjvQJgb3J3eVS/jcMBYYzRL8cL3Am9dpVY/27dlbMq0Ul1fDVLGrRV3OjTO1Uructi6Sh0QqzK8zKFr+8ndQ6VQw82lu9cthi6fSyiSZ4/RFZbAJqH1QEYUhZJmVXVozw1zyIIJteJdYzJR6MckJ5wUA3hfRUd9lh8IHISEa7GoUGeCjTDfbLszke5DlwnFwYpO3J/LmVl0uHqyBK/JM/lwD6WnIH6pu6e+bGoGbEQIvcN1vQfpeWZt2ec/o02XXQ7mHlRO8JofmNJdBcujFKE2VHSSqSddv67dvTT6olbqWewn77Lq4ctTQoW/iGMRRAUFN22t0qk7tFj0NR8LdHfkfleB2KYx/P+2jEOAzH1Ref+QPYl2t493FQ12278s3HmHef8EfvZ0dDeJ0UDGviy0oAYvLPEqEy3jAkWq+kcU6V80Sh0lBSXGvhvnn9dfASaum2AVA2u6sS9mAg4oyDDwB7OEg1EhdLzs+Slsfg0Py3QFbIjeEB+Ulyv8KMJ/NFLkzo33/wqUMHON6qLbQWXH+XVwgkPvcyQtCqp1yrJBeXAFarD0YFF33PNc4j/w68lL4+soOy49wgKcCRO3IGIAnMSOP05TmkiOvgI/0/CqF1wAa9QRBQAvYDaXq8+V9bduh0buY4k2kw2ejN86b/H2dVrqVN7JSsamgqc6Okfpznm3c5If88Ys2B2RJoMAPGyMuI1DBRTgRK9mL54mBNag0mRFlUsfwsbB+dZUJM5OQW9kTo1pE1VHQKvF+kuDwkUAAcEpONnhjqWf6HWMBqlT0NVZTaXSRe4zrw0kztehu73hacBAIXywRmOyXATRjDd6dd6xpBdyOkUexQkE+tJ0OCi03ugDajAW+q6YEOrgmRdAz59mCPU8uedvRu4payDlDXzqPBKorxQUXis8PSToURPn7bL5aRrr8Db+Yyswjn6xj1F4dULTi1ODYkK63u8UiviDvLIcVxQVR72S+YO38R0iuar6JOQpv0YlFVSTq7eA3qHgnAO6eLUgwOJ8jLB6UiqJabQq1vLSVLS1Kyw3YJJkWewvB1NJdfZAEeHppfyAqvDMmMzMDd9K2ZLT2/Z1v6Tgp6qzt2EJMkz5/sY3kUViXGSoK39CKUt/6qWjItvz0TqcnAOndJ4awLLlafBcHAcjBd5xr9ymYZ3GCENNQfna/B5/oz1aXDqsXQ+pndDHd5QIaxqPrTfCQqHrwW35Du2MVEY1OaAvDlp7tMOLLYpvL/JhAOsS6/0BGfTkV3OufMLlYZeubv1sGm1RWVZUm903HSfaHZRevn43a+0LbDoZknwenmlW+sXPdYVd52y3ElzSarBe1eWLlBHyun1052o6FCdrC5k/JmrlhlhaE0w3zMzkyLseKUNF8VZf55e3UFtoepSRalZIOuwv6er5vbWgfBFiVYISU2g+6pEsaYEaMIWXKWep9k3tEhwlakVefq+u/O4RyWDZYI4rO3SQIZK6n0TvAXXLbL9oUWF9eINYzDfnOgktZISNdE+prjhqxyoK91+GLooP8L7wnXU8Qfr417ecr/M40PG4wvhkjSz0tA6j+/pQh8UvzUyyOvcEJEUfcTpe0ZMeXOCgdWNNk0/+1VAkHrzfKCEjD2yi830mjhODImvFRy48EPfEDFqmqj+xjsUmJwozgp8hzKjANdx4EV5zpMHnTI9ArmPMndXEi3Uve9K9JRzQYZp7j57t+K86VE51q07HAJWCS5NdcoOJ99ni5H3Jbp+6lsgArcBZiQ0INtQB3Ny2iiGCiNlLFXKuT35dqn3qrjQk+gMGgTvSJSnaJc9gY4jsQwbscrT2V4Cq0YxNB4gwiNw8yJvUiFy6GMyFAOWa8THJDrXzgsNJRxZSIZC0dkswopEHVVIclJQ9JrZWwgLq3raKSQwod2cSbSrfbh5LHjTKaHkmWE+XhHd0QmwZ7UOp6rmgW0vHaeld0qfpZ7doz0svlaVJowRPHQWfraPtN+yynsaSik2NPAOQqGR9KsFrwjnoHA+g8U9rT3qQWLAc2R7us1y8yBIXFJaozvj0CKlXAyf99mpQo5EGf6qYQqZrKPL5qiyalfudCthakdn8/K8cSQz3nx14Osdk4OKE7hmO/Zr4+tMaDCjJGntp3pDUPt5/181hvhC8FRHkJi/JkgUqTlngXGcuNizcyHRYS6PDlif5Qkg8DlE+4rK1rrwIONPaKedm3TqpT3Jk4LTCcy7GLO4cyUQ4exlegn1OX5UZE+FIuCE0KdKZ46v4BseIpjiMb5b+nmJRKH3j9tA/sqDnF+OLqI7aDQCpdJRZFXyAI8+ucqdDDCatzMkzKYhR3Mi6/C9zEdcvGx2ucw7pTrC7illz57aDFCtrxcfYyPuXZ7ugL8e3OCSfe3EOfdTCQyLwd0J4+j+hvAdRKChycFrYNS8FK4lKITdHcxlTsYNcDgo6BzdQXp83quThN0SMsjS8nw9b9t2pC1g2nUEMtFQVY1xUiVPOLcupa8wAaReNG7OUKr1H83UMXpDC7js/+rlne/CKi/mwhdhU9JJVTdE0wrUJ51FQ/3WBfg8P4dNLjZcniTicHZ0JcYkXhHilDiGQ3c3DuyTOLOCpoIdfHZEVyNqvGq4lwJFZ4vbs3aXA8SvrPG8g859aqphnyBNrVdEC7WwTozq8l+nIfOklRjDRoNcDzfDKTkP6C1KFJ8UaB3N5SS0NNTlwQGPMEN8fSn49SRFggM1vDdBSEwV756e4U0i94FAMaqfk673ssgzlj+YgLwycUPfX89iNXNSnzn/P3TsuP4Wd6eT87rTQa81Bg91Hz0cx5OTNFSbkp2k2HKUmNTAXeg+ixJlDekPQZ1TgPnZhGAWJKx2Qt/AQ+mZlFGyd+8/2bj3k7dpyB9TAEwnTRd1vusbunVqDidXlhKL0bTLDTy0Q7vXhk1VV8Zpeee5M9SJFyVo5am+3J8nOq1WJRbFeavAcUui/W/v4wuI+QXpw1AgFTOQWilQ59K56uCRRZ+Cxv6INBI3uFx2EQm6hXZLDv8dhedtHqWLI88WjNMoUFqRaCDFFrgBt/jb3nq25BdFQwcNzrw+1ZxwDr1qOcB3xT0UaJAUQ80LgKomM0oKA6CcBCoFXKJ7A2M+3Q3WnOp2Z3HemIW5R3SxttgSXFNR9oqVC04pjspE/cwaGmcbgjwLH7O3hZ4srK5GlHli8FQN4bKCylV5dB6ivaujI3aUfWZAXasloBpReiFBMv4/FpCTvp+NtHaSPpeSUXIsgvemGriUktZEerMTcJ3QD3/UJQHbF55DZBnSLZSRRWiMXfvJL7WgcTQELXdhQkULPAVWaegra957qwxvgOyzQ0/h3RXA+xUMHmoolGhFk2DCWY+Hv2VfieI2iNpwdV6SJxgWmF7Kk8t61KXNeyf+v5Hb7SvQQD70sc0pCpNuTKxuWk4RlYlao/ApYkpHfdjrcCcAWvBrfMuKrtuki86RJlMKU3XhsEeJtsuQk7uy4BKskWiL1GeRegX9WEseP5ax9ovOneMx62BGBS0rVDeNdXmJ5pPwK/likZQkCRMRMTVNNXzJ+PLvMqrw0sS+CrCc/Es1uRf+urdoRpVPpg4H3VRVddtUo0AhJC1mLiy/EcUZFVSEYlJE2uMVObU+yXsn9v3kf1VFZ3EoMVLSGDFt8UsVQhIQmjGm2IXAP8rTKAZABSZCE02tJvVh9xfK3xTmJzCqxYR+n15AHNrUbdv3bdv2KFARQHiYxb+lnZGI7sjy3BEFMCGjmhITroyB4Piu/lUn/o3RE/RJIRoka68+iK2NEAnlz23btn3ft13T0LzYZkemkikOKvQ9GQAoYTARGMXqWYKpqeKnzzne0X7ilm0d9tiTcWQGIQTVINEtNYaQdpjFQglJy8FUagdUC51aMDGo5fwz9z00d9WcfX7EPjbUkbxvVmcUxZ0OvX2ayctZoppAPDM7jBAEjMTMGHCosAFHxdS1kRpCqQQzbqWPa2eLhyxRONxa4MulunxBMUuXg27btn/t2xYCUhHacRgFgiBOMyNNmYIqaOnLJaAWsVScHWTnjlsThF847ms105sY3oWGFqxeddv3/WvbNOagtOdhJhDQzOwAYKYWmtwZpAmaEoCKmAoLbpqG8Gqmxea48xoEWXVKN+Q5pc24nscZlkAYC5u5Zy56pk1VN91EeOhxWMBKzI7w0aahYJzNqQaJQkMCYMqcGjVx8Yu40p38+xN9k1dKuq95ugjMa5Dmtm8QHvoMeaUBpTJBoZV5sfh3lZg55XAgR8aQc08z50dmVSJ8QXZX3Q6XKrrCzhhtZJbo9rXvKnYAegiFJR0VhJAzNuAmIkKE9aEigKXU1AZ+Y3679xgwOJ0pekWew2g0//Y+1uL4ZxDnYXGjquq2719fCjuApxpNCGjUPNLUWGZHogk1kLFMEjPTAENlOkDeBXX+/Rx1ltK7695XFZQkgzy3r6/vLwUPVeA40ob56PrrXSFqEEA0lYxBI0lTEy20O3KKTGWtnfHTkn9pExar0u0+lXxKfULYLgLVbf/+/v76UshRr5mGhnCzXmBSenSVAsBAI4ViXUhvgI6+KtFJavuaPDmz7bwKm0Ahks0jmeT55/trB2QHaSFgBwRqGpXJsYgzN5KDhAlgFJoaMk5aql2TgiRPc+PT2Bv/srFwnU67zLoqQwjk8Djdvr7+/OfrK6B49lRACTUgxEdCWrCgISpSg1It5PEETGBCMQ26LL4R2nU0Lyy4nNJe35EelhhkrsxounbuuTeMVVE92oXczRBECt2//vz587VDRBhAUtPgjRCrdkq4qXql0DSV8UXENP4X81Q0VKTdAb1aN5uhbfSZytxK0AXR8k3HtOSUCEYA3mh2kIRu+9f319cGCi30PqiAcbyOAjLkmIjl4pCbmlBIWAjwJT4DU1pmLamRZgxAPpxNwgVD1pWBGLMZ8x6/OTI4wv6QDwVkRjjNzCii+9fX174r4tFW1Q1kmVdUVSU1P3hCBAaSIDXURGItMhpTrM3Qd3bkgJPjv0ZjVdih3169EOVfNi3Uk9Kxch6PcUA+olcK/Q4hoIdqQJElxAFUVWV9UiGwCJkkiUaBmloadRYZzNjKaB+BfKpZ9EY/wAwli7Z7n12Y80k0Y8CcVB1JqCqgxW5CVbcQXzFVlChi+U1iTs9kSgH0eefrg48XjiLvifTNM49kYHZx/chnoUccI9SPGMdADKKB+hZACIRSZgndRIBQboqlkZBIhcQIhLjh0KY2CI4k+mLRB9cvxvuCl1PqOZCoSz5pFvpvhDwgFM2TsiEACHUkQJkEGmkKGOIm13WfBcq62tqNRWWlHTxxovC2xKfif2VNBFd20oVk/jjsMDuOQ8EwFx5BEaPxsGDUVQQwWMytaEJSDe1K0byQCSVybHTmlDs144Cc3vtvpPRL77nPUrXUDEKaHc/n4/l8Pp9PlS0PI5NmPGhmEqBTFahpxO8DrkoRsWiOSxGgHHmUjrFedw7aNaLtTOn6qrR+MLbIUbgYN+wreQXJ43j8/P379+/399eWJsCC2Cz6dwgAUilGO0JYEFN7IqSnksZxJFREgmh5smhNHNWfyi68+U1Z737ijy5tOfGKzu/SkE9WwURmESGP58/f//3+8/39tQcCH+VxHCE6zZwkUZvMNjOj0Q4RblQCoLiFIiH+LGz3rhI6tKetcAflXcq96U6sTTosLYOKm2eJSSEyBqRmx+Pv1/ef7z+PLwiFqnw8j6eZiDI1PEarGFIrmh0QqimVha4dFNCgZUA0NY0OMI7eqPqcs4arannJeYfbNtl5eZ65inLVkrTj+fj553+///MnCJQHH4/HcQQiHxjDGqvgqaKvOp5CMzVlrM4h81TlBBUNLwtPDHnobEae7JxEbQmIS3XEZefpDRe35wfAwbxddME0ez5+/v79588u3KhKe/w8goaGZD0INDU5C81MaYdCGURHpN4nUUPMOiWzgHnqnI5Ir/dRjAAAAUfCOzOP4S3ySHBv12X6tyKY5j2FNDuOx9+//2zCnQo5fh6P50HRZDwVKsicBUY7xOw41NIBSLoLmgrVgqjLkS/99mi6kkZsIRCZLsq6ZgZ9c/52oqFjVS8QyfF8/P1nh5AbeDyfhwX0A7ZZmrCPNBDBJdnxVFVD2vuoQlrAmkmlJdXNvaPZnBbqN175pTIMwQ6U1LwJ+Imyx0yg9LWydvSPsRdUYrJkz8fPXwVpKseRK3fYDALdgjw3aIiplMe+H3akUDL0RCHgUqSaGiL4lzUUUiZAZ6F97edb8my2RhSr9C/vC/TCWISGhwQxH8fz8dgh3DYtxTmFqIjqFltMVCF22AHb9/2pWujdVMXUYn+pqgEanJq4xntphmqxEHf70PWWePhhke5zU5Ng43CEY+75VNC4AboJgW1TiIjqtgEC1U03iB3HAdu3bdvcAqEAR9MkYqERv8uzYIlFp1AUCa9zmCrPqllZ5d/+2q+KJXFEMYLMx3EczyeEJtigGwjdVAUC3bYdECCI0I7nU459T3hfOvKIBfwYOCmViDNUrMnv8wq/KysHh42NYZYratwPbQfZB3UbV8LN5jTI83g+ICQU2EQFummgJ9i+dg0nf9sgdmzKZzz/UhBUiIRQ3/I0BBseEzcKjYUGnOyZKieEHLusMbjg9zUUcUQ2eXnjcRzP52NXMRKqKhtl27bQpbjtX1+7qkC3TUE7lM9I/VQUNN25MtIRhgYJa0NxwmcbHRry6t95kqzI9DxptmYm3zYSV/vlGSJRRA19Ph4/G8jQ86AC6LariAi2/evP974HJ8XjgG2FvzG27WZinUJHHJvzrFqLXFizBioK763qAX2feaHT0Y/eCgt8rNF3H0MvJwSfdjyfj30LR1fBLejjJiLA9vX95z9/vlUAseMJQ5plSv0jWpr0nDxVJLQ50hNM0/XmnkBmdp18s9lbToTVI6vKf88peSg6wMzPxx7K8Xo8EWDmcHZ1+/r+81//9Z8NFDt+5JAA4lmKVeN8g1t6F8pRQkBj0QlJrPR7ZYmufjY2lD0W2mC26nfoVj8+Fjftc3DV4y1kcPKPbTczO7bQ/x2OP7b96+v7z3/9vx1izwcPiB3H83kcsV6aSpuxSS/XoIQqyFW85taGzCLo7BZ047jVoc8g7OnQf7Dpb0lDWZKlED0yCTXWjGJxJGCdqtu27fv3JvbE8QM7Hj+P5/N4xtenmCEirXkBlgosFJqFqdxcXL20/Zc58nebkUsgGiXqyylwZF0DM8pfP/IYRKSlKydOzJsczxA1JaXbvpQPPnfw+Xg8QtXkMDrL4Skf8rQd4oBo6cSttJTiF7ywqdSjzOqg6S6Uadu5U9HPcd9dD1lGOhZmlbUAINNELO9gOLbDzIhtF+VzVx6Pn59HOPTGwK2T3q3sI1JThsZmCo2hOc/tcqA4/Srlbc+glXeQ9dghciQ1NaMfHH/eL6Mw5iOTnAtpdmxmB0ixfEm6H8dxEJvi+NrVno+fxyNINDHBtIvRIaKh5ykQFhjD/DJdPHo+9Lk3v13ukM68F2teEMDl7Q0fPfK9AxJKS2XlJu049DgOFaE8D4pANoo+n0cYXVJV0MJpz2WnzBge26bS93JnHsHQ7mjDB5w7H+sOu5MV7RI/ekJQUD7vj0Y2tGXayRzLsafB7DieehyHUsxwmKiKSCzZWWLPMDvssCPPLwI15UMMm9IQpMS+PRM3it9pwKhMZEvBlhkh2xgTCzr6GdnunTeqH6NDgJI8t0Ofuh0AzfA03VU1z9DZIYcVihdanGAQN2SbyYuixzdQSAvqi5oEolo+IM6Pt4SlufbQCUfPPaa/FTrtBWk5xX9OnqVMdBy6HSGuJ2gmSt13i6U3hdDkMEZflXy/uuHv6EMIaAylLNAWBe1USbQanQNPeLJn9HLILPQq30w3g8nuxI/IdK8rCaNTwSiOgIhGAieLU0nb92PfQxIacBE7jGmNSNWTUOJPEYjG6CFX7kSoJAKZTtXnQCmtUXWk2aZQY44IVknX+VwKPyHRfa3GH/9px3E88Yzl302FQpOfv/u+b6H9ViFCy3O1UvZHV5x4nsSIcUKUAb9XERuViemp3PvPvY1EPd8eJxS7Ae/jZwXqav9tH0pwTDR7KlSjJBQixHP7+dr30BcaCZtiNpVJ3Rz4HopUyCNMQoMJidA8qiRGuxiYO/gg/b2WvV1D/s8REwgXkoCXNNQ5wx7YTNqhTzwzM2vQx+fzZ//a9oDmP1Vg9nw+QvwZuhqFbg45DQxqjGr1CPqpYlAqhRjOWLrssrIHcArcUpdWzLDjVhDiI1Z07+I3o6ZM0uxQjZ1LFKgYhcfz+aPb/nj8/KNi35sdx+PxfMY2MsmAPTO+KumBQGgIkJQFG6oMgHO3Yp6p3B2C5znlyy6CAQMbu8v5PuiYdp8Md5pd6gAydtvH5kVA43QCj+P52B9/N7Hn48+XPH5+fn6CRCX03UhmIEqNepGQlDQcQCYqKQsyWM1w1b2ObgdWZRhzTH+THgwfq37u914empVZUGLR4J2P4/l4/Kg9/v7zn2/8/Pf//O8/P8+AMiEF8A61AzQQGYiYAQdMmPH9NHxXbbulpx/1WzLKSowGS2otIjhdu/AhFd3ltNltsPc0948UnhYJHkQjYcbzR55/9+/vb/35n//vv//5eTyPRICbvX2e+IaqborYk0uUfVfwdcvM7xzS03rBGarCOuTM9jiG78fVz3ckCt8SPn0noirVW+hqhigkLaqz4ykP0W3f8fjnf/77f4OGFs8Rfq1sEgoaGlIkZV6lHkIytzEQKDKq6YLhJyvqVtN+5reQgb6podh7jVi9MM9bc5odoYFp2xSJm572PEgCKsffv//8/DgYtMIyMvdTXjDSbMQB3NKGvAczaKjf19g0R1wIpMrxb+yw+AUbyo6rj3211E2Qk3gJAT2PAC3zNLLJ5M3gaB/dHqxYBI0j9vQb7SBlLjoZ41w9HnAG9rHRX1XRRadU1ZbMjhCR22b7xk00BJxPs+N5kMLj+ThSApqQv3zB7fYwL06hRsOcIAY4TndfNMhwqasZyWVT2FJ89JZIW4Giu2DQx8PJetLMdtLMRA+j0J5yHM/DKDyOp1kcCe/NApzWs+W/qTAMjOcOslLal1R1YopmpUaf0rjvTDZzFX27z4F9qrbh/rvQeIsj1ufirelhRh6HHbF8ZIcdwQfFODZCoPmoRors08ekUn1E7cGykDFWD6JHZB569TX8600U5dAPusPfS+k52vh1hs1CDh4w0XBzW/yWQLfn8RQwFI0lUmEmhnuoGOjqc0iEzoku15VFYvuYTzDgBkYYG6AjSXmNOle9zHe303xKR/d5uRNoa49xrjsxaEMgeG7Pp5rYszBgOtFl3C6F9ZkXX4qi+48MgFOCgHKUFZfumZqllQSn+WXhQptdHXB/uAay7OWTOkYihqh9wT1h+9moPJ5mUsZrEpV4lRUkMue8tMHy1F18AsHNF9S+SkdFqKbBPsdWEy8jzmduuzw7L83kLAn0asQvLauwdJ8CmB0SvvGEHIdF3D7yiTNY27znJmc+2VBlboPYA8VEWBSanYpANStpxBMQGTYDt0Fue+BlW+jKd94XKK+tbQr4AkNQHDI6QJqa0R4qZsxTxiHUtCPllRoYndwG2jRlwlTaK5ASREt1Pu3G0jgcGh8BaInXoFmCJSOanfVK5xsinnDfeVjSr0Yo60EMOGiKzezYFUFy0DAjG2Fos9xnV/aVIhPh1JF6qaTn6nyy00mkQqodAAiDMbBBptmRXDMCx4e4yj+Jf637rh0ozSROEEsH0SAG4DjsiN3LGhjDEC1pnExAkw9VAF1zy3mDGP2S+zSvE464hO58i+FVlVDOcs9uofz/wCnlHKlQPKTwidGU2rGpplyxyoRcL6gkWEnjjuBSoWOuNxXn5MrNiY0DkYwCwXeJa4oIJHQ4zy6ceh5+lUb/SqC+ZIDitIM8LZk4UsiNGlkYfRiZ+2pDC1PewBqciGXy5jq0onsPpEVOcaIs2FSLZsNaFZw0fuFSi99vKNn7CbsHvepDn6v42d37mqQppUrakx9SalpYCc1qxJgBZDJs1yLaLs3QovfQtMkhlQVBEURKmKYJYlFhPq+hg82uqGq0eTg+s4CCEDHAjiA3cUuBcq7DoF0WjysIg1AkhUxMZK7nAoxA0masVHgOVJkaTbVFgjJJFFxVXwlvbVD6ZF1+wjvYwBCSF9JYJBIgSIOVFlIL5FiSEU/RyCRYmO8Fru0hj3ulwnttNMQjKSKiMRgTQVg84KKHBe38TSbNfaz/OH83zWFHpnWlFc6B0KeQ9FYY6O0KmqSwmG8BrhMk5kUaO+zJdsdM5eBYVjeVFsnIWprA1pX25P7UBz8oUK5ZFNdJzEATWBJSQM3M4jT3AagYEyQaQGhYanMobKzIcF2xyzWBjpdoMQQsVJqmdKMhvjWU8surcQYCvaKdo5Nmov1NTOBp6ooxZ8oddxl1Ct4IlLDJonmCGvrD4hYmNaH/MRw44gGUYNDTnE7aK8bslVZP/IctaKLIqM52Z6rHT2P5DWrOY4UkEmYGUEnhAREaLVctsy/KviKQvyhjdkVTSx3HPqTPqH6msIwBqsVniibkmQPz/H0NraLjupmxqcGWnXS5Z4kxvDfIETyOEmaHa+hIhzSe/Jx3M1c+QjupGKCWP6TsC2+2aBbnEzY6SKDWZo3P8VKm/B2Bsg8PQnrVghgnpqJOrO4AMJgAB0R0s2z2UjiukvapVbu8M6jMxO8Ey8F66nlASy+RhsjiBSjV4JeLtqEgb6soP6Chl5ztTUSKHD2CAo3mkUIJpC0SGQdUNAdGdP/nnmP0KTESIpSWWhey+WRS2twelPA/MlDCRLybV1Enf9spcezfEcCQJptjnvoOaxUokuQpFJGNeahTdaNQVfJuSvoJreyxSz1VRGAhikqgq2sI8JuaBVSGQC2n9h3LLzd5Gz9jQ0cD0FXzWMaIyhyYaW5VjTEPDqEir0Mmt9RJKrlaiUyqWxbWxkbd+GHGEsKiWAiwik0RiLRz9rskpaH+fHKsJq+KHtSOz0htbElioLiI+2hTb7xlygHTLfR5ax2sl6hdSvGdUZ6AwXJfmdRZ5Hl0UxJIMNEL/kIFfm5Dh0c+Mzp4lEwiuQudP6OI5R3nOWkkyY3leZVeWbWsgAE/DnBgSvb9WvBsZsJjYyLJ4ylVx4qC8jclupe4ZvgICde6lsaqIiWez2OCSMXUAXdJ0ULGGQxtkaikemYqmMRV4GpqqaoqIkSsQ6fOAEE465xSgV9wXbdVko/NKU0omGOKV2lnnlAtndnJOIZ9ajFIjAh7bA9lw5oN0FSkxO2RMldCYYO5towEGxYMkUKJHK9JzCnwv7Xx5z4r8ZpAMRfpOfJPy43drFsm+YdBw1uqKVVJgxqEqnGiM55xApHRMaxfSTlmoHP11fpwGPxS9VF2yXEJnvMS0+f8034tR+bGFZYxYErVAGupEJTPcGYDJY/Axq4BfoIEAudoLjX/ghBhc4PZYdH8VsUiiV3Onock6mhZ10zhTb8D/oINnZXj07oE8Vzzedw1IvmeSigecxWROLoZ2pU1AfYiWu27K43KpnroYbAjbgoqdVK42p+U/WJJrHXl9CQo3NqFCH5WQ5tSsut0k8yQkNfLO4wyt3Om9Dz+ngnCYuUUqmcpojSC5VDXcOCA5YabtIOgxMIJUE3dKLmB7KSgJSXB9Vbpj40mYibPIliWlsFQYNO0eoKe1g/BTYuaJFQDAlNyY2qj12Qy1SMICIUNCI5IPJjKI6lFuerEExGWJh6nn4M2+3oebA7Wf6ZINxJpGi1itl0xxg7Abg2XZZ4GCg15CBEU4aaR5z4IVJFyUrc+LpaKzI4Y34fsQfIWXMmMr1J3NFddvb3W2lai53rkuzEUk5e/UFGWZSypIydtR0HCjlOuCSEkVTQspZ0AhZtQRaBuDkQj8h8aMyM8Gm2mHVGiqW6VnFfukfBnPLPEXAjEFebPs8kfiEqveZsgQt90XVr/LW6TdVFM5lui5L0AcWOVbWaBjUxN06ySxjITSxoaVq1FW2lChhWrhf4eKTQtM/nkiFu545nu+afbAsVKsdpEUcf34dvQsN+j+lkEjjTA76GMJ1A9tmPTY2OOldQt/4wQfAJY/fSeWMCQWdwYnZv3fDu8LOZU+wQ7nflvDylet+Iw1hVrXoUUf8IzLKWfQ0Mp2RWAobqZHpsaAVVl6QpPy+mjeE2UfplXGAEtGRHiyqumHsRhdtk78mUW99Ox6L6ioE1NNEuUTRNTgdUt8Q/E/VOAKlXVNuKpx2YqqrrFdjqR3A3N0MUALR9toQuaQtcNGelf6g1oWNtoxw7t3cdYXTpL/iZY4fnUF+ueYeII56UQPyIhZGjKF93CBKgGoky/yNJlmrEznJFVOPakpPg/5L7nYc6rodnSSyFDepxPzymhG9wz+/Byz5VHLCOsMY6io7pkso2k4DjiOra88jPAUxC6ieWMoWiEr8pilpzQi4iblR64bDT9Peh06PYj/9cku6+WBnJXnJPoKcJj5lPUMlycUnpSdRNoZCnaLJIFhz8zXb7POGOWkN0PagQ0y1RiS5PXw2ns1IVN8IkR731NnshDBYV4tsuTQskHEi4IzyvVBPrU+IXKnUvu9i67WQMMaKm1tFyH1+E8M1qzCJ0lVf28m4rK5zhHcL2VqJJoguYb55pr7WVSIRkBIUNLoz6jEG2PYo1bWAMrlMWVbKUrLxhQzzxa0qu2CHJbNlzGUD4VNrliSOuXMp0CHeFonpVzHTSEaezQOfCEiNHMvo4tYlBp9XfQUGFcBOrOjZZuXFYPb3kzzcm0XhIJviTdXPWclQ1bog5UWDMrlooUVKZ8Jw8NhgDTYEeoF9vx/Nq2fYv5fOzbiQ2jmbAtAf1xIZtkGtJJhjTP0q/F9e7wLC7DeqHAFbkLl1/uufenjKkMlCbfg5cwjWXmUN80O47nvh/btuX6Rdw9wNizVziz4riEWMJAmDn2pHH2pwM/yDexyMj+OsA8fy5p9CuAcWWZNgsDSNsvRN82ZxpW98JwSNoxsIcv1bB4NTDBJcIdt2o2jEcxbl3zI97J0+VxEU+K82HreNuGYn7cT01tZTAmpTo+vAr5VE6XxCARJBWq2rEdx3Pf96+vw+Jyi2gIIn1rRpTjiKdk8lI34u1VsCxn4jDrbG3mLyxbXMzlO07R8axUG428hjIXjIAgy+h7VO0IR/74si/bQgnJgkTD0uCC4ufyiyeDOU2LCVpV5NBC/kq9MwkUixJlbi+qOHtRxtbbBx0kGgUaG+TCLBgUqsexh6zJ9m0LCEwiahdR0xxnxvXf4va5iTvzfZRp1nGXd0x/2oaCvVy+myShUdIT+l2tgsosvYjoHvJ0g6mahkGZsFzRzGw/AsdYlKgILD8AKd17UpBWli7qFK3xjtP+NZO6Lz6jc6NTJ1VCDf5Er5UGbxDWe5oiCzTOdtuxq2qe9baUTUYcH4WlrQRN5rrS09/WjCEmjQf/OrOYQ+9qHnl0MKncR142f4CAqcVRrsSxYbR9I8jglEgA1DAckuvS9AbUioaei51vjx+C/6pA83CN5By0fvx1OpoonHP9GGFjoqpqlsxOKoSWOLADZsctc5QU/rbEo8+0HNySFWiTeFz1PfEXTMFy6lkd5Iq58xQi1/Oh0T1FjDPPhaupqi9YbioxDpUwyAAtE2GeY5CJOtsf+c4W0CvZXdaSPyxQjrlx6tkszi6wsqYpkkJqWCzMOmaJbDiY0LT8N5etVFKprpANCXPHBZtllJTf7v2eCHQwlbj09Hg+52fDz8r6ZnNKU43aZmabBj9vZODTAwwA895aaOIRF2kUtGyz/1B4/ktHvt5osDJz6oJU56vKMQxV/XD0laBtaRFGYDCwPHsHqCFNOyZuF3UMTlmglhW2NDx5JKoztvCLeeh+pX/3jExCSev1Qa5OmiQqKUTVdOKPrUCjcaGiBUYT5Cm5lGCStUSrKD/HqgNnww7D/Mhx8HecEm6cI0pNksxGbaNExRnScOJ3y/s/QQVEy3hzpokqIqHvc7A8by+OFkLm2+wuDttveXk08rwWbiJPc6/26WohWEs9+CRpuyVkNPaPJrj+iN0QOXT3PU1CsRQ3+bhfBt33vJDcJ8CR+QbG8cQ3r+JUl7XSQ2qZfo6RCysyDZnCbZ3J7fki3KilMaSknlYV9ei6m7IBmEiLK/K8b2z3kR05b8hGnQRNThBbMvQcksLtMw0iFUio2JvFvd+xtweqmephSxP62fkwBfS9pJ6+GtPgtJxEor2GnLtKG8Km663hGZtsS0y8KOuhuKaSxxSRioEaJRqZnqChCy2Ri9G2sIKARw5bmSH7OoCSXqzvAbDF411X8/lRp5Q3PuM0fsOFrIAyY8kPA+5BopEsBzA1hSR6CJoGaxA3kVjKPbOGSt7n4Cg1mwSJd8Q5TRPfFGg5vHnorZIKp8R9XRb+1L2bAykNE1+qabYmFKRM4zyIHlugv7bjeB52HEcsPZW+dB/kS1MdPYdKr+Ajq9Z0XwiYShWsor8N60qm/Akt8QbrFsJ47A2JwyQW9oI11ZhIHbpFCu2wO/wwOwKwn+brnLMSSiXSldOERTXlmkAxNqI+mS+7fPL7pxVzuBPbJeDPLz5iONBqaV2yqQQEZTPbdDsUmopOR/ovdkeIF6gznu+SX/RrUnxHQ1tspF0Jhdmqkql7yyPJJYUypL3okeEptOrbZqZH2lidVtyHypN591ggkozr3YEjVzXyWk0vNs+6vj90vtkc51t4KlFFpSkbFceMYUqqJTbSTB0aXJMxD6EWgVYxPu9KdKWdZ34cy6YFTpisIxPdef67gudXI7Y6fnV9cIbkkvIAqIWmMk3MoRELzSuXmbe/edjpeuRzFJScOiIHw00Ts7uvGGcMUNEsk/z7XBNn9k9uH5ovOceSkoK0yHKZ6p1x0aDlBcN5IqUasVnQrKpfl+hLEHclik1OPUvV3cPt3J0FdVxq3moz2USBUejqM29LmKjVTMQqrskhBKFSUg2vonlD+Ahgkn6hFKNUqqPQQyfOfQq3o17/NAsp1hhj2dHSqKixq4eZuD4A/BYr0L5Ex0Qx7MmXfbmO7rGPL6iJ18eLgXgj1qo0tKujkbEzkKFWl3rGTs99m5eqipr6P0+Lpv6INEpfUFDXNZLZ2E8FZVbEUxxpXtNkOoEnVmBiCAXbvNsnSrHMZVJmIhVOew6GIvUbP9JkAiLTQ8Lpc76eNbHieMkdEJ2nygngdGIvXED2ONZlbK28T/upwjeCr2WN2vSe+hktXxMpKs5QKQZVgdw8wyI25mdRnmMZkB4E9qcSWKOmkCUlfU+g8SxqXI1QQzddkZ6pQAbRW8XT7Lhy8qOE6yzPJU5XhXc7LcQPnA+xzxq1eVmkvBLoqVnhpKKAKk644sB9thIdx6jNoH2Fv5TZTjhf7q1KGQSrYJLTRc3FQweeykng3d8ZC3SfYm+pCCSJS6zeqM0ugzTupE5+NRsKHVNemh5BaJyCM7ZwduuOLktk1fBXiQWIl3BQF9j3Nsp3zn5mBSsfV5XjTsjSGuDll/zmt0NBUXO7WWmolP6hdge+vG8nbBqtATkTE7wAVUQv360r4WRFVQs8ShnPYeSqzmIlAVWdBeIPf1Uo4MkboqxClzYG7YPD6EL47BnS8VGf2tB0gDC2b+GlaXrYRReDii3F98csnB+4G69kilPhlU0NtkqWuvKcgoqDyadWjSnzypQTaBn3m0qUIoqypcv11o9KN/S+6aqKgPoVhQK/OP7OPVWQTWFzkwV59pSuF+ZDqptcEahfGDEUaICcdCsJzUhD/bdYseOtSpTiWPHKfXXjQHjGsrOHxzXuzVGU70XKq9ppweU2FF4EzFAmEJIXyaH/VNl8pmuFverbQHO8yhJaaXa8NNEIhlezxHreKzN3LQbvCfRaokh+CS1mcz7sHtAp7P8LEq2DDMAH+t0Di9MvXgn07JTO1rTrnXgtUFltuM3z8JkV0IOhnmkKPsKrwg631WepEMFqrhAjnAJN8sNJhtIBkdzgBbo043frnkFDR37ep9txIiOb0clRqCyr3z45f7roqh+ujm5dvxgJFKfAXqqw9ipZRxUG8Fqgl/iFO/Sdo9Amcu6TPZYxv5yxREfHHn1LN6s0oLUP/RIUG1+ICpK+EOhYojjXPXWDL4KeQ79KohRXMb8Qaa/JSCpqvM7vYoJpYID2nP36vKbHoqJLAsUYwuwItASj1VKP9sCwOkulsjsUaV/NMKM3vXDlF/L0F8pJbFn2PpBLTgnLJpeFpTftQmi6v8V12Lb0KbGpoRtYCuYlUiyULG98odfq1nVEqcDD5QaTPW+R7YodnaRJtZB7D8yFb5Cp3NNSeEg5B0WQ22qKka/3DKQ+euXwPeL+p0JYOrwQdT9ut/ONbjf1Yo+qHahWbqPFkCtqylV5XrZy8yLgHAoaK3kA+k9nMQ7FxZxUmHSpiYaIxm7xvM0IbVCAKQyM+VjmCbcd3vCoHnEOPCeFhdXhjb2PwJ03/LVmFAV7PpkcEdeoXBN7NfwkmMVQuITde0IWDH/YyxTrOcYZS6Zjx5wcFx2Xkib1gkThXWJdZNoPeGgDbQyYyHKK+RjcwLXpGZx04cJ3OicB185xFbEX9txuOyUvHgqlKYjW4BVAreqsA4vzPxOccOBZF786GR5xQ0Xbf2AcfCzxje/+yeCaj6NUmLqZcpZnKjeBZ4YkdE/oS/rQF+p1l1ZXfdrqAu4n8pQdVZ/nSizKyBqUlxvRRyOJJCTut2CPXbq/ceA1YXY9FHGVnmRcxI1PYXgNuNkSfmsaJ0mUptKWfV0BiqWzrqVMaRz/m5K8GeD7wr+fsAfl3nTClVNy3mDh0mNva79zp/PvX9sHtRLsY3Q1OI1jiXQWsWH5+pn3KXEK/LX1h9IW40tB7TnLe204ZPW50ZyPj8i193RzeOet+loLWe/IhxOMiypvs5I9hPeZYTI35TVxaZYnahqt66vjO5JrGnpaoARTdw+Xc2Tn0FAlXh35pe1jPVDZetRzpSJURefd49VktD61ffusw53fOPI463BF569VMLzslFi82IBfb/CtuEqBrsDmUyenmWf6NAx6IT9pOrua2i1L8ISWnawNfcmcEwe4n0RG6SbN7OqUqQuCTrbJnfSY2ctLU6m486pTV+Q4CxrA3KdpStyY09nLSt1p0jxASZwZlQon8cBI1tPawl94wok8cYncVwXmyziju7UGHm9x/AaXTilDvzejvnjoRWuUsfrYGsZpT/x4pnZBnM3B7KBraNR0oiWo6BJK1ZYVYrmSe2Jf1JIxNErXzT0mRHTzMyNwB9OySPdbaHDAWj8HqEfbKpKu0F9GGUcXSOE2WPD1e9Y34p5Ey6GvHSj7IFkyovWBP0ERvCHOiQsS+HIUOkZyglPC76stB35t3yW2bh647AWgm2rYioCqvllyKnHTg3XYNTDPwyu+Ls97cfoCX1sB7DWMnHtKchxnzT0NLgWU6sgXHb1R94pLVFwPJ1omc5cq83zgMSPRWhQnTvFn1WZ6Tvt8w8ipeoCKfeIsz2twpKMjS6xivggKPyjYiUSQm2YKwShO7QTXnh4L0bz40bwuiFKVZ045f6HxidN7F0N51WXspxB2NXdKYtRt2/JAQ2FUYXUBlHMjC2U4QXQFc1xoKMYCrezPDEtmvh+rkYyxcOojzxP5xR1Xzyrjb9ssXTu+O/pVEW8hDkWrR52SZStO9E4VcgnxhB22oVzJg4mlbH53kkdNB8IFdmai7JjHuIcyYrmF/7KThIIr8hwVMNtwCW6G6XzV5QMxgoEy/6vVZ+vq8O79NaFYH4WDWCREhwsw+tRzTWG5Fzoty3P4ApT5URRrXYTUg7+q9ylmiGa8J0+BqyO3vcBLEFTY07ltmS7VUasM8A+eYqZeP0Z/1nwen2bnnifGmmfqBxg5hg7Tms3Aa0LnR5sEoG9D39DRqJcmDP05noRuPW32octlQQQXHilLE3mBW3nvZsRvRpHk5OkuDZNfxjlsgpfoQpDP1LpgItS4Bpoj411tOkG9QARccOSD1LxNOMuGdbSFS7dPgP3iJKsqz+SpDvLk/W3ULKagVObJ4CEoVpnRuh9gwZLiXN9BT6LpS8vOyqyhcRUOOMdJmOyn08uLaR1UXv5FIi1HNkIWKovZoWfjo0bg0zQQxQi3K7km1HWySmaEgDFx6vlLaiTWyFM68hxNuA43fq2ceEcZSBE5FKhYU0cQjwxiplcYZTGOmiKfjo+YzYemdJiSc1veH43kOTjvoEObOm6VK6dd8qJiWBl6Zwfn6HalSe2WePVJTdKBod5mK+o/Huzsrqwn5yM3vo3Z2rkU2KOj0pfnnlWLMaMVLV1PVQPykMmXi+c+ZznzelclLsBvTwdbRLYDgEWWmNYILJ6X3R9PX6fqbkW8FKkQaNjkr0HBEpIMRYqBxvbdg+OCyLziJAxdisF6OMCJc1UpTxo6yDMXI9FSOErHylM89UgpxgxoXRx/pKmVHew3TCFvwHXIjecUl2YC0C1uuSVGdHJ5nC4ad3aU5JansN0LIoP21Jt+hzhLkmiPhuMkzmtwJS2oLrhGvZalkSdlKM8b17yXUBx9xVu+8xybANAMVnOaXEgPw+/FWR6BRY2lskpGIu7KsD+cHhOzRJ134iZhQ0hIeVkHpsxi93TUuxyLXZKr7QtXo75sCbLb4BFS7fwJ9ViTvOYmMTvG5mu2o7CFftwqzuHbZ2pvr5sdbsa7X8yG1AcpLbP4vQ17deDEtuBZFroh7VA2kbgtjInZMZFi985fxe/4sjxP7YwtIwJ6/X0rEo1POoeBZP5DXvoqrU/1cWAHzGKHS9yMbFZZ+3tr5dmTxkqSriuvfUGizIMNMrj/Yb5z08BIo1P0dQTXjcTE1yr90jWT1DtY442r2i9d7AsLyWLjmXVHOdi12OCqDnQjUKIyCzXOUI58f8GiJJ7Cxh3xldPUJWQlqj+WXRMFbhCJTA7hyizeOFKj6mdFt1kVDEOBxtKRZw+UddZBHK3zK1/78DhhTX3O42yuJyzlolen9kKwvcbSzmoxFHw2IsQiEKokgRrrI19jn3m5NV3JYjG5cYE91hrFzjHlVNh0yMPAPnK0toFrsCx7U35po2BgHlcTMK4doKUjfaLxKVsDHfS5TihdJ5q7B88uChfsihRnWKk2+LHpvCXBlkXW9uFwa2Mxqvpw+DIQsAwtV9Rcfkg6WVfJxA1yJZGuEYe47jtcaMCkuMyx0iVrhuGjkEWdv/xtooE5Ja4aSWJzXbMVnVhOnjryXNy36nAzfDlGgXEsU+14m5tCdLQUUjOv9XZaXL0fris78G1ihYtYpE/bWBaGOSqkVXk2kE8pWO+TYjNaozLIcaZWDy2rGgZXtdDCjJlzcyUnuO06kB5VYLXHln4pKGWt4+pMSgkvUFxE9Q0vx+VQaX8uXcbzLVwJNy4dVF3LG9GYVOrZ8MtUB/FaoBzCd9fhNar9vRcf6dEM+r/QraySc+fztL8fs+YEafZfN6sfnBKeaMXfDeYrx7l71q/Ow2wLQvdA13qIqvHYmKwSGaP21xv0MLb0ZQDo1EDS8rPf0FAfHe/nS8CEKu8eQJr7rpZYhHlhlynNaMbo6NM3NFW/FSMAv/rzvdkonnyr6w9F73xMyGXfuAos2NEpR9h4EYxc63GfTRwtvILrUtg5WIHvsR97JV6g6vUPMJMjxwhT/9Rj7vFx1zA4UX5ot2cjUPqZkumLZx/HoZWe9dtg5W4wuzAsfLdh47nyBi82WySB6vyJrlQsp6EoR+ZE5j+4DJVGqMkYkFpEOV/08rHeFQWKheD16gPXp9uXtu6svdVQrl3lX3IC9wRahcCEQC/lebcdhUtCeNVScb13FF0FXXbdfElLoZcqsV61XLY0v/L13lM8QVcvXSYEm2+XwcuqxLv3yw+Kj7/AacJbR95xFuxL7zhp1ObrYvhthXxHmssCbQb2/n94MIJlQB57SgAAAABJRU5ErkJggg==;" vertex="1" parent="1">
          <mxGeometry x="390" y="170" width="80" height="80" as="geometry" />
        </mxCell>
        <mxCell id="wxpGnIKAjZEVVhN0BYbd-15" value="" style="shape=image;verticalLabelPosition=bottom;labelBackgroundColor=default;verticalAlign=top;aspect=fixed;imageAspect=0;image=data:image/png,iVBORw0KGgoAAAANSUhEUgAAAVAAAAFQCAAAAADMg3kFAABVnklEQVR42u29WZscyY0tCMDMIzKTTC61qNXT3/3moR/u//89M/PQd+aqJbVUJHOJCHc3APMAwMzcIzIZXDJJVnWWVCWxSFblCcCwHRwgPNkXAqB/EaECqP3hfwFQsP/Gn7sv/cjvrfC9fhH899d/A/qHBxT9v4D2l3gQ4od/T1/4lL8zIhIiIRGhxvup6u/oY8+o/qhP6NMBigCIlBIhkQFqX6INUg9UJzDVHxLMJwTUzTMNQ0JKRAlURFTU/tQg7U21B0t/RDCfDlAzT8rDxUUmIqIEzMLi/3EztQegT6IaYvpjwgmQn+qDQkp5c3n9coOEhKSlFC5sX9Jhqg6TIigA/ri+/pQWioBEadhevf7p7cbiuUzzPJe5lFJKhVTiTW2uX2HTHxLOp7JQRMqbi5evf/3XXwYDrozTNE7zNM/zXEphEccU7UUFAH3UPuEPDCgCUt5cvHj985/+5ZdkXj6nRIgtC2VEREUBEIQTcP6oBvo0FmrxfZOTlhHnMpd5nkc3UH9Jw+M9MmlkUJ9Z2/+uAUVApJwz6rz7wDpN8zTN8zTPxXydVUQCyAhPNTE9iZ7+kV0eLcIPiXTefxhlHKdpmudihikttiso6DGeCj8ynk9ioYiUhyGjzHvdl3Ec5ynCkKyLo1Xh9KPD+QSAIgBSyttNIi1acBqnaS6FRT2ca5+w6boQ/cHh/PqAusNvtlsELWXUaZwdT6hJfLSeHNFH8Pzx8qj8BHhS3lxcbViYWXia58IsAvWR9K4dKiDAQ3j+sBlp/up4IhEiCntNZHBKeyFRAUERFH/0KvPpAQ1P1nLA5FGdPUfqfwJaOYpdLq/YZ/b44+Kavy6eiAigwqNirS4NzgYpAqKjipFB4QrRhusfNyghACACIKiwCoqIqnRtD/SkCtAARUAAUYnCE08W8/gHTewxfBkBQFkFIsNcvbE+WjZgAVDAIUV/YB/43f9Y3aYOTkRrxMMSTqwxywb1/nMVAdQgNft8sOGEf6AGszt7NVBQEAhfdyQVK55keQAiAioDCgg1I32khfdDYJq/Cp7duwhhoK2WrCmST0GJKqIOkHi7/iOIAuB3Dyl9NTwNIeiHxYusEmtEal/kvyZSqT5n+qPmoRXPCl3XiFsghIgLqoO/s3Wa/Dto138FQBEWCAEqnGgcVRg7soiiAvQTpUf6d38cQNHT+Zrx6Ko/t3ThDn5v3+mJ5OqxL/19AxoVJMS4aE2wWWdWCxMF743A78TbvxzQDk94DE+sVWn9jwX/2r3rWnt/YECXdTnAKQbII0FboW8w/048/ksAxXXoPonnIifq4xFAC0oALSb9YS00miHN2k68htjq0vZThQQjbRKphLw/tstjD6n2L2grNXv7tFygFkboP1v5k+DU3yug2CLS4nvVo5cTO0T7dMkN2vkOZ/q7/k4tFGuqjn27Uk8/sktEFRVA0fN/MIeH31HylD8bTlwmlA8/Cv3PVmuAxIYNqIoC6B85D221O+oJVz/O4zs4sQb4imfNQ88w0N9lP9Qbw0iIVubgyt9x9caunlrrI3dbYBXPP6aFInjPjciJnXr8bC7xXCMKNo9f9FCWtb/+cQBFQEreJva+PKCiouLpWFRB/HiTsx8i/1Hm8ghIOSd7Q1UAxOa/GI6PK7c/XXfiR5/F05Di7y1tQkRKm4tsb54gKNbIfdRux09uvaN+FNLfFaDGo91eXWcWFhEu3po/9vceUnzEQFfPJupHrBR/X5USEuWLF29/TtM4zXOZAVSJVzyllujjYz2VB3It/Qh++DvqNiFSGi5e/vyvf6bb+/v9fgQVUjUO3RItfWzcho97gf7oiJ5voZQ3F9c//+v/+Wd99/7DDSqziHSLHZEtGWFBlxnpEZzo5Js1UMvZ+w+IaD7bQNP24uXbn3/56XWZxn0mS++F9Ci6a2ekeLK475NSdH7DsjTQhxH9zqPV2RZKm5dXr968frlNDKrCLKoIiKTLlD7a76tndRGlEGzYrFh3vla2WWHDj760PyagiPnFTy9fvX17fZEQNPYPkMK5u9Bt9fkDeDZ+ifWYJLDXtW1WfsSP5fb5bAN9+28vX766vt4mBFURFrXMVFf9TlGj050okbD2VbCW8SrOtoW+NtAe0h/K7fO5L+jlv/375cXlxcU2IYCIiKrhGdo3MXVDqXS6xYuJjcxIiL7D4EQxxajwF5Ch/nhuf67LD2/+/X+mlFJOYhZqiJIqmAoGerdDhA0lxRMTpqCLoZsnoiNqEHZt/X7b+yQPV39oQOniz//z31VERWaob6j1RMm+3IeFkQEEFdf7sCFCQkSE/oZKaduzuDLQLvgj/DBGms/0+Ks//49fSynzPJf6DdnDSUSUEhHY+JJBVRXRM6JFVumiWETJ7VmtNyqRPy2yqY8b6fdopWe+ofnq7fXFTMAozAqUUmbyuE2JUkqkoiKiIKRCbQuhVk24wNQ5emjoL/t/HaQdoqfQe5RE8T0DSsOL15eDCqFKYcGUhyzqQcYARRUWEdEkNnfHyNmXBuqEW28xo5Db8wlQcMkS/5Rn89tZbz7L42lz/fpiECZULkWRct6osZaRKFGihMrMzKhCJAhhoXgMpz2iVp56+Yqn0MR4Mx7L8r87TM+yUMqXr19fZC5moQopbyYFihiTiBJKKYTIykb31uM9GWyU8BR+yUlVtZZZdY7qE8AwUtDPie3fIm7lswx0ePH29SZzIlQuLEh52CIQubkRESEnKoigRqCHamGepWPQwYmIEoVNJiESiuhVH1zbBus+lIez/O8M0bNcPm1f/fRqk1IiAC5FMeVhg5iIEjmqiGVGQgBNjOQWGstHR0GeUvRJRIRIj1TwpHP8aD8v66fvFdF8noG++fnlkBK5y2MatpoxpUQp2UYHaSFEUBAiQpI6HOksNJJQopRiVs9JhFSXJZUxIDpEF+aJ3zWi57h82rx482qbPD5THliBEqOlSxTL2pwSu3kuvx9sMYlqbPJHwHdrddk0VRDwcOS7Nr15fpKRPjei+QwDzdsX15cDmvjaZsuUh800FTRn9505XnU74wFcBXkMYiOZ4hiLnOLY2yLoIhPty/tPQemZi9R8joFeXr+6ygiIKeXNheZhM88ze9pkdahgI9o33ig2xYGGZ12rp0TEslxaCEksrLufLVfoKqfv10jzOQb68vWry4wux7TVoXApzM73EGYuDFJbzI4m1kTUC6rm7wAASCmllGwBHKXCaeFdOxPF1ojqy/vvFNGPWyhtXrx+++oyAQJRypsNiJjGomnXcZkLgIbtxX+qeEPt2gWi8UGlnLOwqACgNBK0goKQ4mo92eGtjajWNzmj4HxGRD8KKOXLV2/fXl/k0GPaUmhYsYiwlIkQlBcM8fguUNuSMnUriQBIlFIelFU0SD1VAxdAcWmi7Tlc+P3Zz+XzIZo/5vG4uf7pl5+ut8kATcOGfOLh2pUzIShTdD/WcLb9TjJQ42mglIeN0W0BJfRZnd+IVMN71zjRCulD0D0I6bMh+lELTRdv//Tr25fbhC7BNiTDR5kLl1JAmAnbUtzxd7HKmKD5/KCu8BKat0a4F1LFWKZfW2h0Sj+JFvX9vKGUX/zyp1/evNhkBKtyMjugoCQIoCJsjVLTBfVZU+WPte2bxguvyrbWrUoaS8yoogKk8Y84stCPI/qNIf2oyw/Xf/rTz6+uNomisaHBrFcR5lLKPE3jNI5zKIhpF+RP9uXUeqciDOJd/NrOMxIaRMK66AEukqhHvPhUo+m5fD5/JClO25/+/Ke31xfm6EREpD5XV1FmLmWepmkaxxAMXCDatYsbnAiCNpYSUAVAjG6e/QIJyZwaleqgSRuux0FJv4eG6McsNF39+q+/vHlxMRABEiIl0uq1IsxlnudpmqZpKnMpzCJWuq+F6XtSqIItfImY1xPVzW4ErQVVNKsa+bRjoupHA8+3GTrljz2h13/+l59eXm2Me0NElHx2YbNPmzNN4zhNvDDQlYl2GYD9WrNQdAvtVsesOxo9VYOxN0DUcwPSN3lM80fKpO2bf/3l9cXFJjlv2Xw+8GRmLm6gMxcPStp1M3RholhnRYYok+PpFYCLPNTeaTVtz+Rx8Z6eAak+u8F+5A1Nl7/8+e3LYcgJ21DdlosM0VLmeZ6neZoKs7Cw6Ee2D+KX2hsqRpfwekpASaUvABoJonac8VFBou87bcJ09cvPLy6S9Za9pUGiEVOEzUhdV5lFVMS8uA0ycDUF8VdUVUVANWZTiIgCqkpiDB9EksXnsLJPfCAi9UuQ31mDGXF48fZ6mxORBd0wHHf3TiawBqq+Feftu5XuTXXmkMYDRKOfYIKFYkbVu15yJk7a57Gk21qq7HnAzY8mTTRcv30xZEKKkhEJPZl3SeVqeQ3RRV3TTTeWGkMAqkxu0OAZmX8l+z0FGvFMO6NbEUqXqOq6u63fkYWm7as3l15rOmyBKJcmZNl24Wv5ieGk3c4nrOBUEbBaHqw7mmo1H+CLJQRmol2DuRKhHlAfbJV/37DSbw/o5Zs3Fyk1rc8Ao7NQ7Trsy9XPvsGGTQEi2symPmDwobVHYQ2oaQ3S8aYdNnZf13k6cvnv6g1FpOHFT682Fo8WXXdVsSRpKavcGWgtuPEIzBa/VdAJz9bNyy4bLktxLTld9fQ03bV1tvRAn9lEH31DafPq7fUmUW8e8foxl/aGVr5tfUMxyp5VkO9/E6nqdzavyhnDQpFRGBEZUcAndg879enghIteyre3UARMF69/usrU1uKxubyXmRr+bjKXiz3tGj6qeUPXyAMAFay3l1JKeUAQERUBRkYU8ckfiGVM60RowZg8sd1zhOgzIPuoy+fLV9fbhOgr2V4vshQuc5lLxKX2MvZvZ3tBe9lQ6vg4RCkW6VPOOedsE78sAIiMXctam3ZEn9uu16SW1qvL7tQ3tlAETJur68uMXUYYpdE0zdNkqXyN0jXaaPe86fJeKhI1OBMl8ucZUx7yMAygnDlJanrOVTdLojPabezocsthXTGdKFSfHtxHXB7T5sX1VcbaIYru0jTP0zTNXBXAg1ZXB3XajYAWvDsH1Ti6Vn+FhQ45Z1DmLAZo19u331BWlSjCibXxLtqjPtqVfX6Xp3xx/eoiVxk27ydbu24cZ1ZR16ReTDj0KImxkrXyysgppTkl8hTVXR6UWTjlJvEKyAaoWk9KQywXol96ShEfoat89bkC/KOAImDavHh1fZFqPiRhoNM0TtM01xM+XkBhsO6WCSH2D6g/nUQpp5xyDgulnFPOCZSZs4jaG1rF4DQFc7yJELea/Thv0mOnf67M6eE3lNL25RsHFHz/SGzeMU7jNM1a9S3DBJu2SwMVa2EZLydRopRTzjkP8YZSSjmlrJKZOSVFRkBEtvzJnnCssTuAfmwG0olN6PeRNtFw9frN9YbaHEhq93OcxrG4TnW8oTFwrw3MypmrPEY040yUUs55yENOAajxSFQ4M4soWiIa+ShoWhKgcKVjcnIYskDyucLSIxa6efn69dVAYQhmoNM0HsZxPIxjieJQYy6E3QYYVrEWjM4HBZWRUsp5yMNmGAJQ55qqMKfMSRmREdnwFFTRpEqCzsM9CehR6u9coOc10UcA3b64frHN2GQphXmeDvv9eBjHcSxgTFuOnrKZoSKA9TEtZDRaPbmR2iAlDZvNZpNDFs/iv7UIMrvL20sqAiKqqUo/LjVLT06tWmFx3OfTbwEoIqbti5dXA3XjSpEyj/vdbhzHcRwZjb8s3WTOqLcCZOV45PQtvLecPg+b7Xab4+iCX/+0nksGrvqDljiI9fSkd/l+A3o1eMJVbr/I758W0YctNF+8fHm5oe4wl3KZxv39zoJS8VRSogS1GYmqkACQVEDj7XQrNdhTHjbbi4sBK2vC1vBSSplZAdk/DBERlKzGc46bDFCn9ota/Whh9PlrpUcAvbp+eTFQ+9hVAtBpmqaJKaeUsmhhltriEBISUgEEEgCEZf7pt9GRUsrD9uJysHQLwIYnJTMzp6zIgOwFgwjW2Z94feQe32lIoNZzwH31Cc9tog/moTS8fP3ysnZGwJiL02F3v5umaZpnIU45qwC3ip6EAIQESMxESREJKflZdC/mw+UvLgf/IWVhFgZvs6rhyYgkQoLSREZFndLX5gAhGLfahey2I7+DoIS0efnqxTYT1kJehedpv7vfTfM8z7MkziKqUDqX91awAImZKGC3eUOdhZrLbxxk4cKFETilzMyKyJa/Cqkoim8/G80RqvZzLZla7FFcjPUW243PYaIPuny6ePX6xTZ3py1UeB4Pu929XY2WZJfRkJlt68BCEoEQCKCZKPqqXfL4bu0RwpSGzWZ7sXW7lVIKFVDL67OFOEZRUQe03gLFGuZr8qSg4fOKxxYKJ6P9c0d52ry4utzUDS1VC/KH/e5gJ2SN2AmA4udPXY7ABkCCgoIqQLZ8k7r306J8zsOwGdxwGUFFCKP5XLWyEYBUIkFwPkmT2vDYVK2w38LVI5bJc5joI0Fpux1ywm4AJzxPh8M42hheAYkJqfqjAqJN79U8VVQFKFFOts1E7VaNpaKpxipFtDEA+8F0iSP00l2qrU2oHtK1ys5DqnnfmDmClLebIRFFdW5s+mkcx9EoIoDC9v4ZuyG6eKioSupgAKaUKCePRkidkRJR8h9QBLAstJRSz6WLH6Dv7gRi03kPKdNlbv+Ab3/jbhMCYN5ssjFwaulZ5mk8jJOzaJAtTxdVUU+cCFS1jtdFFSie0FrQ1226aquIgggqzKUYotIuBEo3HYX+YMMxoLEqVlN8fX5YH3P5sFA/aCpc5nEcx8kQREARRtQmRI8ABNrT5dUn7t59xpaV+qJomKyNlSuiYme9A9DweUTU7gJGG41WqI64Dd/LaiJS3myyxSSbPFheP47TbFAhCCMixol4az21Ywv+ox6KKBhMDU+iFIAaGVS4hMurtgdUNPJ6I03Rala1Nr1vuwmSH+7ebYdM2Lm8cJmsEWoqlyBoFlrVf/urXfGjMed0D+3bTtVACYiCrG8XayMWSf2T47kQKqx1q/Vg5WRoX8SkbzdTQsxDtqevBflSpmkuJfaLBQX9wDkodPdkAaNj4UPm9qM9mP3yp4KIuHmWwmH2vhXS9kEXgmXxO1jaFBO8I51t+E72lHySGeIB8ZIGdSnYH20Uj4qL63SdjFtb/7JOMhGqcCme6kMxnv48zdM0z6Us3mHVpZD4eiE3ECPRIyb6s/t8frDn3Zib6vMiix81X6HkQgPxBMSIk5Yr3n0AsfEcpYwqZUpoiCLMh/1+tz8cxnGcpnlm7RbrYLX/VNfo+jGBAqo4K1/xTGH8Z7VQFdE2x2wztrZSQESNPAvqWT1EG3k14ql5aLKJPPCcUAfrLMN8OOwrntMci7mnLl61FfwYt1rh6R//g6u135oSriKVcIy+TNwePoqcsnZLoxsZi9u96oWvenR9kkQqZVTOHrHmg32No3Wy4JjHuxpxrC0UTRISTynE6TdP7BVB1Sy0u2dc+8Pe2Kz3FlRVAMlELr1dV5tBWgGlNghJCDIrz2Hw8zgexvFgcJYiS+vuj4KhLvEkJBMiRUECwa7Z/E1uDTwclMxCnRja1TlQC8hKmFdxfTCoVM+Mdc3bvrMUyad/HsrKRNGGK+M0xrx/ngPQmjAorMj1HaSEbqDkmybf59KCVgtt0bsOMKwKj8hv+wcA4hxjJEo5h237cAMtGKVoGikId4lQmad5ctKUWWidSJnY6HFp3OKcKRZYvwsb0eLkGti3Izoos628mJn50+gdouB5tVfO7LDWQilRAxS8R2KSL/aMRPMj/mHWY51LsX2SnkMOnYV25MVqpFVAq+b5D1VK35RwK/M4iy4yPsrDZjMMkAJQk1YUAmkpaA08uOCJY8oppRwfgzWKfTdRQX1prN5rqTEu3KWbb0bejq5F2F1q0dMwPicjJz/o8fNhXsQGpJQ3m+12gyZ2F8IOiAJKoB75g+VEtUQyQ8opp5STZ60eZEI2WDlaql3irqC2E1Y/1a7zEeLuqkJxTqglq9/waODDFlrGib3jYYGeUh62DVA0tQARsMX5ehcopMaw2+gCZ4MltAaSqGATLVBl9tt0sI7R66vVC25fO74Weas+sEC7NtInM9GHg9J8mFj7mQg6OQGNn4Qqlvy7A9dSyqii5A+gp1cp5ZxTTmC9I1QSgNr3qEO4Za0GACAUCzVHr6OiggppvYC5+B104fPfjYV6ImJ9jWSAmoWCirC4oZF2nLC+oqoMxuyERbF2P9VdJevPtY2S2owBBaXFuVBcWq87vUSlqef0QL8ZWUzd5bt9wpTy5uJii1Y9orAQi0kEaye96F356ChbBDNCbU7KZCLNXhNYJzmmUosjA6pelNddqOPGB+rC3ZdGvt76OsnGez6X57G5vOX2ZKNftBwdhBmRo/SUvpJqvTnvLqUAFAoXQlDrkIa3ew+5MmUxWqBCdZDZ6WEtqnw9qotOxvnnMtWHLXTe3U+yZCKnNGy2WyfOAhfyPUVVFbPJvojyLgpRcnptTimpn/HtGsfxP6Gzz3Ubzn4n6RZmavIutVVYdyF76cHvRkxQ5rsPS0QBkFIFlICpBKCgBM1C11HBIz/4nryNObiw553dRmxtG3gbrollWKegvzmgtsgQY1BP9kkVnAYUEk/fx/Ksarm/uZ+7OK9gqf02VBm5q+ZDkaSTY1Os3zdiSrEw5osPxTP5daOz7ujC4oQokJ9wsDsCy9oyNp5tD1IBhPxnPTuz6dGgtL+5G2VBZMWU8mZbu+zo/TsVFap90KYeZgP6zkSNsWhSOsWWnMzVe/GgtlwblSWapIaigKEVIQjciq1th+oDroaoosIz8xkfqeUPN7cja7fUgUhp2F54806t9RTbhBpD9wqHdq1Q750qCEtjh0jrc2IsNYMPCaAJ5HhMsqIMQEji8oXVn92CWNT1glVE5/tweQWV8e7uwOs3dNhsvbh0QEFFTUeZulWQ6vJOc0ztDTXtrLrXqLroATf5Fu1GUT5G9VJYerKyImhdl+62T6RT2vkuCLcq8/3toSwBxZQ3Ww/iSn4zXiSLsGLLP/vVeTfR5GswvuxkTaVTl+Ure6Efa4aeQaXtdz1SRRQKqQMEQA+k4fLPLIn1SIN53t3cl2XilPKwuUj2simF+ohI4qTYWPSdoWjdrbU3NYJ8qXuNK/3BuvEcsxfodR8VlKpITkcK9cAUH4aC9m7ynQzpyu79zYEXDp+GzcWc25ql0XBTosStbWc0kzAM6TSBzUKrnms3g65LeRX+Ol23aWa7rN7lSTXaaK+fRaqq5BsO35Gig5bD+992RVIXkvKwveTZqkGx8C7J8Gyb29E+s6SJjOUdrdHGqtMgydZN554QZtGkppoxfFvqcVS8FOuvJIwbbrRQgjgqpfS5LVRlvPntbq5X+KzdtC0yx50fUFUOMfvYRbKxs0p0NZLJjXmRox2trv9Hebkk7YXoZ20R+Hs9jsX9WlUEjS6jCpIquczjd+PyoDLdvruZpH4jvroh2dIk9jQ9GaTSOvUWiJ3+wCzMIuIjUDPPWmmidk3Rimdr1lmqaTkm9PoaKwuNw4K+KeX/xoItMp6kNz5npYQgZf/uw8hdnUQpb0SLPYKkaquZKVEiShAWCtCmEkq23sGeK4ZEW9f9XDBumsu39pxNtCow0NVSHdWvxiVSajrO+rT+/WkWqnx4/37PdZ6DSCnLRpMptKFVPTZ7S0Rxa6WHE1ST07s9mZTgO/sb6kO89rJ2yVLjjNhwM05b95RQb4mEwdcDgpYFLH4TeI4n9DGymMp4825XtMt9KA0KiYXZ2F7MXBxRgUrB0UrPUSXjj3McuIhmXZfQQ+/yC8hqgw4JQCg6nNjvdnm9BA3ROuTTnpWj8K2pOAg63/12Owm1vEmTZkASIvTFzJJLysx2V80OVUU92cBqQQlqSNK6lHs0cicFNRlmaI9fS6RchG8Rk9aPBsA6Efj2Lg+qvPvHP/eFsFLxECkpIAMoiMlclGzOSmC9eVx2OtFYTtoAje+5pvR1l5l8LqzazY9D0KxLlhB7pi12gcmKUrvlxjU7OzkDfe6OvfdHfvv77U8Zq784ogCa1Hvx2ffoQrABAlBpfWdQFTfYkH1pCWgUnAT1ndCauauxwFYyRg3fltobe8Wur7LPALr1EX0ufuOjgMr4/u/v/mWg9o2QqiZQTWo8kly35cnJyehjN0cVkx3xFG8+LVqgnbSl7YV2gHbpEOoSUJJg6ITwjpdt4oBKm1Md83WfWNrhkSiPIPPt3/6xu6g0Jlf3BQCN1ZiUsu3KpwhKtr3hfxCkhAgQeIJonb9rR533Bl1/grp7HBueCAAoC+2Iij0qiJIKSEhmt2bB93ELRLXc/+PvN1cbLysVjVWrqkREyZbbXRUngbWXIQaZ9lfwM7MOkXKdxWmTYvQyvdGWwxalR7RRwYmkUvPbTqKCFwBSnURrx/VE6vQ0JvpYUELlw29//e2VppSS1yq22mUGmsQNFJEwOScX2utlwYqsaeoQ9o+a9tqO9SBgyAx0T2MdhHiQ74LSopz3vdp4blq+q88X7h/VD1UZP/z17z/pZtPdnkBS0CTN5W1azM7F8eoyCiLAOIQcgLZHtMcUq24zKABHA0niMAi0sYhlxIJN27HKNPqD2r2dlUz2XNeVHxe1lvnub//5K1xZal0LJiVN9d8amVIuzLEoWOFkEWGrVqJXYsVV64/o4l5Iy/SxqUMAqS5kcLTt4qBPBRB6Bhl0nYHm6d/FtRpV3v/zf/8LCnSnOC3WE+UY3HEWNjIpIACEdVoJL/bUSSRJvnzIvbgwNuZil01pL4/bywotDwe07F3jTW3G2diOJ2vOpzDRR4MSKo8f/vMvGSllgf4Aot1bsLhv6us1XfeIxMyFECVGyZVmVwoXkyxQbYj13672PCeMLdKqdANapUjbILlzeFhm89/V1UTV+e5v/3uThs12UOzTUTvGC4BA0fCA0Bg1QEuhgsjVNs0JuZjqfW179KbnkV8WT2sb13expeZxWoUcNLS3QE5sjJ0mkj2BiX7kFoiU3T//crG9vLrctt3A6EBY9OW2MBx4qqhwomLfcpfoiwHKbSuh6Vp2w4zWd4pFGVhuxVfqqfYWGi2Ilb/DI8vJXx/Rj1koTzd/u3px/eql9J0JagRDTLrsEBt4wt4aRUaMLEpFxOQgZMGSR1zwldRuY6xU8AEVJX50UTktJnGKDdCenf9Ap+SrI/p4UEKV+f63F6/e/jxxp3+GgJiiqta2PiidKRbnKxbTr2KP/exq2NgEQitBCqNZ3Cx0YZv1PnqdiOIJmGpHoDakW86k3/oNBVAeb9/98/3dyNqJHoIpNEHfdvDSKAC11TERsWle/fK0qRJCbG2peab29VPs3QYY6CEJ2n91bX3REIBHA/yTmehHAFWVcrj7cHM/uXpY1er2FaFurBNkb0VVEhWRxEQkq+OUC4Fr31fEutrZ7x40wph21JC617dsNNdfU9OKb7M9+1ELVZn397f3Y6U8VCohVky9rLImkCi61kiTEKwXpsEESeKSUF1wjPRKO1fFE9rDEJNNVXVlqMX8Db8xnGecoVQp4/3d/aG0qVqtP5DadVmfn4OnSdCJB5Iv3ZPNd+s8BesODqrpCXYZfRVvwL4Br81CkdoktDlOVWc/95yaPm+UR1DhaX93f5hZ8Mi9ACnqQiDhTlAcaCXHqOjKa25PdQG3MUFWvctjBVv/55AKop3+rPL2WsUxsH+Ov0OXR+X5cH+/L1KPwDcNHCu0qyQGttoRaI0oIJBQ7BjERrP3kew4Ra+S3e/MQSXgofWXyTy+7vZC3MmzMap+IzDPc3kVnnZ3+0m0PxC34BsbTdSWEPwo4uIJJaxW7G9uB2iTq+3KxdqH1+72zVIag5RIsD2hGirWAN/yitrHr3erlOmw288stR+0rAtjqx677gZI4zM7jxRIAMgRUezJzljJcrrKmYK229+tBYtJtr5Xx3yqdd+j38X52COqz2+hoFIOu93IAh48OrUfq1qsbYek1toTEoohCVYprbBncguNvxUZ++q6FS6bHp3+f41JZF7fM0AVu17eGWg9ey1vDsTz/n4/banKpCnWwkXbvCmqSAs9/c5nf3TBxihxGKRtbIWalq5Kyu5OaNcutn6pJVDHtDo9M3XSb+HyoMrTfrefSqWChZtqHKDCZVlDqqgUJMcawWt/Sig0SNxBK/Whyj9p3yNybgi2yXPdJBdrRC9/snYaMPCc84/zAAWVcrjfTSUteTBNghsaZTucWLqsHjp6uAMOkTRJ38D0fhbV2ISru4FdHYX+qriM6fIsZbc+r89roOcEJVAp4+7+MCvU/Ywe0ZV4mpXTpE1yGdYFJVZAgaRXvIK6xtH3m5eAOm0/Lgu36KS1fdcFpefrinyKhSqPu91hUjCN5SrPsihN2oVEVFTVOAQQIhdV0M27KwaotBKpRSSsPJCYiDTmAzSqiRKSvaHrYQh8MzzPAhTEohISEfUTniYyh73+rNtoo9wvoPCM1BWwdJmAQjvhRSo1PYUjEwVEVSJrDZD1oY/43yt2qH4ngKoqT/v7/YiURI8PR3S8a6duowJq1xYJPLXlT/4cOJm7PaLe1BNoK3x1HNK5MgIAECUXfyVXOapP9Qk4vycLVSnjfjdmlrjVtxxC9m9cNNHWFyer/GW3gGQuj3h0tkuP25zmBr20Zkdd8xNrXXkFz9D6/II3VHjc7cfNxlh29RJHXf1T6NWn++ZnNTKv1AH7tVhS0v5at3bNgp73hH1+2Z5RItUEdr5KKRj1Lerr8+H4Cc0R69vPh93hwlk38S12q5RHLPmAE3EFUG0R+UqR4KoFrbVhFbPkfipqfwcbQSBqYRXSxaHf574y/Ukurzzt9+PMcQweutXUWuxUkvz6pFnPMQaKytU6oULSH6RVWH08fVnfnwd3UpBlGnacWhW6PK7Xx3hOWz0LUBCeD7v9zBoG2sCK7llngz5Ia9L+oL3yNUV5RUhqfJvuIdWuBVhn97D4XNo8hLrwaOTcdth7ecT32c7Nf7w5YsogZdwdJjaXh74TEXhWghZqLacantDWkGixsVEtFKAt3eoDVO7ux9rat8SMwJYdq40qfl+CrMtXVMq42xugXe/Cln2rx/tAvbWi+pvJzn9oFC8bMpFgdfqqhV2f0MWB7q4f5bcokdAEoLqXV00T//j5xOcx0fNcXpWnw2FmfSxZrfMLhMWJk84lvc6EqsGuRCTU/L7xEp0BqYvipzoBxGpdikS2scRiHLqWx0D9boISqEoZx9n1GnUZczsuZm+7C+ZnGytVmUpyA0uqSY22bxO8lWBb/NZa/6cikFDl6lA0SaQS70JyZHVZDb6l3OVRf2Se5m57XrvcprXedIGnHQVqp3xBuvPd5OK05CHa9w1UgKQrzo2PAo284L8pSZvbazRJ4h9b6SO4oOU9y72/8ywUVHmaZhZYp4SN2dqZlqL2m8OISGRz5u4EqJ/6SpEwGBImEVQT3KW+U7yuJBbbarA3QP0niEnse4jChdscjVH1GwEKwvM0s+iyR9FtZeuCatAaHuhsm0o8pv6ub71DoWrClSCucFN/q+X+Vrc1AmQDGCWrmeJfya6NYvdUOOXxWcrRsy1UzOW19Y46zp10+4iL5DwyHPJRUtO5tz/5d8WqqpJiKRs1SEv13oK0h0VRqD4opn7iXafYIUG7odNsGhUe0m/62kZ6ZlAC5dIsdL3x2tYDTrXWIWge2DIkqjMlu4HhbyVVOTENoUBPyERVJbL+utZkTQEyQGvrBJGk14GLBUf9LhL76DdxH5QWYIrqUkwVdDnDRCQi7RtQDdQY7KuKSPKtWZ/mtRIrSH1RUgKgCkbIgwDUkyuSbjnSfz3AM3n9uW8oKJe5dHuFYZayLGiwY85CyDNmHoCEhEUgLegkiARCALb2JNQewf6fEzzJ+I1JbRmXdKFmjQvnqds1wk72JYGn12k8F1BVLvUi6gP/FrhskDqcgyogZTatjDjZ0G3G2a0Rm5hYs5i0F8mvq3kBKEr/j4ta1gybVuNkUDXdcSnM1j8B/VYuj6smcyn96iue4Ksv7xMjEiVRBaQ0FGa2i50LeStoDG+fEKm9t7Cs6525ax/YkpYntcWFHTevCjvqPM+lFJ7mmUVOvqRf00TzmXgaoGahfaHcC1mtuppuoQBIKRdf/2iSgbVN5JccqGaT2lHytIq2qtTqp10HB7CQ36Ifxmn15KcI1O43TIc9zsUO1z6l05/l8ogAyrFe1PphC/HjbqRcESel1PAsJRdpTIWGZvBvKfr3pI0sFaJOUgFFO75sqAq2gb4nDzmnPOQ8DHkYNgOMdrXlLiFAeSgwfbV3IJ9poM1C2xx+tVhVJ+pVhQERCVAoyeDHvJLf7oMq3IrtuSUi9RSzm0XVvZJ6GkvJD64DoKBUBoU/xXkYNsNmu9lut9uL7Ran/X6/3x/e2SHBboKHTwHpORbqmmBcCkvfvFgg2hG4MRAlVUAyOEoppcyJRYRRtF/X7m63tBkTdN1Rx1Ni+bD2PlAAsVUQdlUjb7bbi4vLi8vLq8uLywuaDvv9fr+7snsZyqvxzlf2+zOjfNyFlbqkiivmUL+oHSsNSupEWhDDc2ZmRgbtspyAlARJWn90EZVsXbvuhIoZKAqg1FshIUqeh+3l1dXV1YsXV1dXFxdpHsdxf9hdqhTmmpSeQPQZ06bQ/lworAC2Ddal8i+GrL3UdpwYnmQi4SBRii6JTUctwVU1Ft1WEjsN7v9UT1JrdEt5GDYXF5dXLy4vL4i383Q1HfI0z6api93IHr8JoPUg6WJq1lWJznetQKuikq+B+fecy5zmlObiG4u2Wo/anVrw97UTH+tVs6qOAEKVrYb+A1jQdRGBTJw8Jcp5M1/iOM2sulI26m4RPNsb2g56LORQ2rHneuOsO8vQLcG69E9Ks1+oqjS8LsvkwHMJZ7dDqh0nzySBW1u7NUa0f1FN7F0SD8yFZms/isjxbcWvJzqYz/H24Cx1okoIVa3Gup9iUb5u2YDdSI7fRLiJN0KrrcOj2TUGmxZEB+d6ZKfRrPYaLs4tLBaQ7TJEzjkl+5xSKaKAYJfc8am0L/O5eC5cvhJHYmu9ivnVM13hjHGZjtt9kCgjrUWvzS5bxtmEYE6NWAAEkSTO3SAsO4Za39KUU8puu0kEABNMU3/y7lsEpSYzvfB4bU8rmNSKtjtdhN3egI0pmjSQcKqnZWuSufw6BeZKLkjQ5ay7RAT6gyJ2Gy8lN+SkipgG2NU1y28BKHYVXSfT6cNMbfmiqGIMd6OfrNDup3baS8LMiSPDtD+4k61q8UlE+3ey59QpNhvFILKodk5kN1n9fiMCJAWkPMDNh/2Ez37x69hCm9jqMhVuLaFei5q6tVr0EUdSVclip+lUTOUyXNxlRtk6Q3YjqJmrLqdWkTkQSHcqGEwaTpuETPv3B0TYiAJleP/Pu0nkG2jfdfmm9Y2GzZAT4smRvAhDpJb1xcX+ms+qu4wuah/fvQNa2M6E2P+VduBCYZE8Vv5SN9QDFUQVFC7zNI2HwzhuN0NGDZn2NFxBprt3u1mUn6qNd85aDfhJgM1mSFQPT/fdXBEW4xrVjL9rjDaFK+hYNParOKzRIIymFIfFFq4y4+0Ay9JMBSvRVxARmcs8HVLe7rZDTnYRAhFVMStu8ng3CtxPrPrcuk2LkojysN1uciJcrluoq1sJAwEJoatW9W0S6NcFVxZaoTNMDUzmwmJ/h6XdYFkc9ai1r6u2mYUKIgrPKRHRsN0MQyLw5QlQTJi3GxkL0D9uLTI97+JXhyilvNluzUJX6ZuPGdib51ot1GljiyN83XYogIZgxgLR7ise0iP5T/+E4uPy1UY1RLmk2QHd5JRs6IKEgCkhbJEhX/zH32/2s4jit5nLI9olpU0mXGuex9iGse/Y9BaK2rfxIYh2qqJukoWb2zMzSwk8e83KhYk2gp2axLAievdJuBAhYt5shpxIM/kZYUxIpAT54vrNf/zlH3dTeQJEPyLiEiNbu+/nLr+ajfjVKWszdZcq+vGN9hu3zeU5wpAbY/92ci1HVU65pjbNJqgWCigo1n+BtNnkRKQ5pZQS5wEpUYJE+eL1r//H//1//eeHQ5F1bPpigPO5BpoN0G4UFG+oq934bDeqfye/Ldp7jdmJ9fqXX1px7154vpunnLjkW8mU2k2ZTFJXGGkGUE1DTimRDinnlBJmpJQICfPFy5//7c8vN//r/V5XIyYE/MJa9LylBRu0pZT6Y1yNRAJtCtEbd0f2gL66rMdR4tLKzMXCfcAqFuflhEDtwuNXAkOGqKoII9I0jeN42JBp7WfK3vVOALS53JZ5FoHSPnVYSho9CaCVQO9HDbEe98G4axBlHoFf+cM1qySO9dZQ4xVNnFMr8xx5UiTzXXRflJzaBct4j7RbUFLt1RnZPi5UlZSYhpKIFBSQ8hb4f9zsit6MPtXR9czncxE9c08p9Bex337v1PDqLRAir1nAex5BiZMIOXGzW/2pKLNdqGvFkYqEJiboSkpAV8JrGEeTFBYabU11q4BIopRoyDmZ2hRlIP3zfhJKNyOzfM3e/RmJfZ2La5v1xES9X+Jqt1U0pKW5ea2XgyVUsDsbckDNyaXWolXv96gJrE2QoPLTUNvDU/+JpZRSvHWIm01JJASABENCLkKbi7/eHKYi8vXkWs/i2HsHGKC/+ahQ/zfYQKhblfVUigtXBlSoYNpH0wWlelGNue/Zu+Dj4mbdMlzoYiiIq959GGiJ424XU87JViuTJnqpuHnx+vVff7vbV1qhPk8eGgZWRdKgitTUAzJ+Zdp3RKzHWbiU0sTbXD+Uq8dbULKrlNEWafLJoqKnZqrd+1nlNOIR7PTHpYY88ZnDxWbDIuh8HQJM2+uf/+U//tdf390fDNHltaDPM9EzN+kiKDXxc+jICkFYqhaKCsLMc5kKa/CS1K8mSpAixU8oznZEsfZBpMoSLl3w5JxCmxLC4gkl8UJsNmlOoMuLeciJqmYeps3Lt3/+11/+n//3vz4cZmkzwKe2UOuzlXmaC+tqYaXuCCbA5BUeKAiiSCllmmYO740LVQ6bN5nsCG0pyzxJVqS+9aXoXtOlEQHaExoXcJgLF4c6jdNcWIQwil9Km8vrl5cXm4QfsIg41/nLID1n8QtAZB7v3v/zp9dXQ0KqhaWp2BEkREzoigO+bCSFyzzPE+vyepKriJbaB4mynYVZpdsR63hpTZEpVuv6HDRWJLshCNQpmMQRUOFSmJkwlIVN+rT8en+/n4pSYZEgvejTvqGgKmV/+4+riw0BXCbCLpiDs22MXYPRqVOLsHYOVTy+NFHMMs/N0y2Xj7i+HnKGPWofl7AfqQfWWgU1sKt/GxfLsjFUgjrCxTRcXv/0/m7UPSKDfPn+3VlBCVTKdP9+u8mo8mprJ+jQHBNJ0eab3jh3WryTmQp3w/WmKMzGMVw2QeqpCe0E01sS37MSmuByAzWUzWqP28/jQXttmJmA7Bi7GtFyuLh++8v9pEgjQCD6Baiet5qowvPhNiVULtPVdhhySmgbRPXoRP/iqiXsDqjWmXBEe+F5nue5cCmtPGqZ/EqetupgLVZhOx0JxcU5lqg1FmfX0C6UFQJVUiSwNUpK25dv7g9FbQq2WBf5LFjP3qTjaUeoPB3u37y4uthuMtVHtMMSQBRA7Z60lUAetPtziao8zQuPj2Gddgs7sHD5LnOKAmnh8trss3a87BWNjqMKc8nFtDuiAKO8vXo9zgyEvmP2hV5/3huKqowjqsyH+w+/vn19/eLyIveis4CxAkMKqlK8Rp8LB3nO2kgOF89zq4+aw0tE6FZyYj9Gau676Gi0mN+t07eH3ke31n11MZTQNIQ0XF4XAUIVEZbnaN+ZzwPb2vzd+3/++uvPb17JppOuhdYSETOF2fCcS6TqHs0dKDEDLe0FFVk0p3rhpdZZwsbw6g00bLjzeazKerEfaRZqR7JNQMbEuYcLVkgZrAj44kugZ7o8+qXZMu5ufvvtt3/59ee3V0PKlBL5dky3myllHsepzGU2QCHKduZIZLl2RNrNVG0KViepR9iju0b0mExQe98mIgEqpcwJITmg5KimvGVBmA+HcSos9Uj1kwIKCiAem+4+vPuvv/36p19fX263m2EYbM7uF3RFZZ6n8XDYT7PFnVh195FbzCrnemEeun0wxdM34WOG1KOHx5w2aGqmUY6U2TJkJS5lJgT1eo6MHkCqSHnL8+s3t7vDXJQ7RD8H1nyefcaxLi7TYXf77r/++vaXt9cvXry4vLrYDsOQUyLPiXgex8NutxsDUN/FCIKdk/HMPMX1rSk5EbxrxS+1hnBN58SVRbaBag3vwqWU2WT4VKnMhABsTXJMOeeUIxndXl2/ud0dZobZc6fPRfTsPSUEBQGRMk+H3c1vL//y6vr61atXr66vLi+322GTwA8CTIf97v7u/mCAcne3yoKo2VlU7+rXLUmc8dwn8kv1JlyVnGsGdIUzKFQiXOYE2ZZCqEwIqpnsA0ibzTBoBlXFNKhcv77bHabik2lFfbL2XTcDV0BBLPN0uL+5uLh6ef36zZu3r66vX1xd8ICWHpXD/v7+9vb2YDGJ0SeO2ohRCBicEGuykoYqIMR4uBMMWjylC5OE7l1dwgr13Z5BUrJlFAQVzi5DnC4uttEPoQz68vVuf5i4cqJXKjBf3UKhkb9QuNC4GzYXVy9fv/np7Zs3r19d84VXTvP+/vb25uZ2X+ZS5iKYnLFVxQQRADVCktWummz7Axd559F3tGiJ9Mso/aJXqMyois0/RUQTABZQ4RJ3MvPM4leYMSHhfO1CSsE/+0xlorOjfHf7DVCw4HTY7+5ub24+/HS/n4pwsgnlfH97++HDh9tDma27m1PKyRytMrcg9gXFMhzQZNsfC/rSSUTbdBJhORhsO7lWc4qlSZBjp0GFS0r+mudZFJGIAEgxUXk5jvMcExuQzw1M+ewntLdTBASmMo/jYb/b7Q8zA/vVmunu9sP7Dx9uD0Zg0GC693ojgFppYIBACklcNgSq2OMCzQeU7ZcTYOjwdAttJEwAESpEqNblykWBKFG2xIAuXsxzNB6kv732iYjmz3p57en2Jsg8TdM8v8kO6O2HDx8+3N5N3uB0onuKGxX+/XqU9ztiVbwJqxp+T2RaqFzgEaItHJFzQiuRwh5OyaqSIjoyF+YypM1mu2VVF5PRUubC9VS7Sp3Yfxqi+XMTWFBQYQBQnqfDfvdhsPJmurm5ub27389eobuF5uVdEIiBx3Jd9KzYuoAUoa3k2xHHnGzX0/pLqCpZmEsm95Cg/IxT8UGube1ujW9R2HilRfCz8vtPSJtOvKoCAMJlHg+7V4OhPN/d3e32+5FdMgBTyvZdJq+rEJHq9cSj0dg538PCTu0dMfM0b/D5K6ggFlWRlDiVenzVv8bJVnlja3fDIjaiWav8wLNYqKI93SDCZRp3H7I9cWW/2x/GqXCwOhMV48JQyim544MzRXqnxodwXfFv8OgTdo+3c+JDvC6gKvaSpkQpxdw+tB4OU+hQmXCv63TFeCFU0p4NUEfUu5vT/jZb6C3jOE1l9uN+AMiJE3NKKSVJmeLcDwuveYqISwroed6CVTgi5ZyHYUhtC0hUBYWYUne02Xsvncv78pSCnyUNXD9nuvT5gEJIsYpwmaedLQegeNejKviTkIjYWeqsYT7RYcJF+r4AE1ej8sXQY5mN2szVIa1KUCCIgijGwYA4Oe+/cpws67ShfYyZ0M8/+rQEnhNQt1HvhCdyQONxbCrooiLCKUu2pS0kghiMQHcHo87jHs4seo/XuiLR4TkMG2rtP5sfW2MJnD4VtcUUFopVexvRKzoEngvLqVT4KQHtxUM5uV6oSt0ysJ8iStZ4Nva4663HNATjYs+SxhQJy9Hw+Dg+Ll0+D9kSYqmkVLHsVH185Q2pNNtmHcZwkTQBIBj/AMpU+LN2Rb4I0IqqdAW2LBidNjqGyh5n17yDxSlf6GgOGjPNUNDVmg7icuahbc2PvGVgT7UpNam0cQgjqrHRtPF9q3CBFRukmnRzwSxAiafCfqDwuQHtZ2PYNH5WGWv8JGfsoHYa/wAgxQcki8tCfnlaVy2QHs/Y7SWKtIyQvKcNjijGFFmiX1Br1O4hdjvfsADljZoEUJFP1c/6GoBq5S5rJzzdBJgDUgVtG4oLzYIgMFbe7qoiWq9/tMFcg6feFwuRMQRgiGwZYq1UwyRpKfeOCkiaZBDAtNnCbPIVn0zD/yJA8QRtU2E9DrLvBgFUU7eh2P8udSjayHZYA5S2A6m9CAd2Z7yj7PRirEoZYCWNLhdBu7Zpv0hhuvhIw/aCSrHpDag+t8svFBJWlNiuTSVqDIO2xtTB6oPP1YADe4nX5QJI91dHwmWFKO4MKxg/fCGwr9ArO3XjJ1usJk2AlDfbCyoluICfRifJX8NAFwIkuqp8nFaOSKJ+OTIOp2E392/TusY6VZMSOureY98libM15DU8UfUKQb+t7tTIthoQbSnoXmyXlKeUhu02NYrQtwlKgAqrA0aVjuBgCKK2uxe4BLTRF40X7X1oVxM66jM5JRS7KG8xyelqgKAQzTtX0XLPCBFXpPXLo4gEJmK8Sc75n/kTd8HzJzh2Z5dHtfcj96Cqoujijsga0KrZ3tg1/cT4Ya9rqs6RDfk/Q6hXJlMj22BNXZuKe0+bRFPZlM2LaZxmKSZJ+Qk+n7/Q2/u1Ojy1QbjU6tYOzuOFPK037nx9U+tkCU/sE2Fnc4EbE7frGPF7gyf60F1XNiGquTBbXrAQ2FBA2rx4M0kZpyKf1CXJnx/Zu1I67pWeKtO09t9B0aXvsTsEBFXROqhaVRIQWkavsGrZ1U/E90YNTiRGoO5icyWwdWoI/gkIl7mUkogEgYJWEAkCDZevBWEci2iB81eXvzxtwmUVfmIG1BGRIic/ognXutMs2m8rRj670sZvbttbqAijMCIoIVCj4HeqPZ2IhwE6z4NxM6V7xxVAgfKF0CZPhyn49/qVAT1e5cGO94KPIbq4HrNkJvZW1LJXRQQQqr+wTUE7h69lY+ApKGwEsdTrddUqU2utCibUU8o8z84msrxfqh4X5gsaLjbTfiyiUPQZojyu39BTT2lPoFNYrBgtZpaLBrmGIFubi+Ci0YRhZpGC2TOJbqLgoWXxQtdRf2+h0zQYoOA8DYl1dMqYNlfbchhnFlU4t2L6sqCEnYnqg6037Z4EXN+HW/yPrr6M/Bw7ykhX58expqY3IiY+gGwa46s5rQW8/nCesX4NUJIAtLo85qSgW52mqYgen2P9WoDiKsQ3l2+Anf4o9dh0T+Fef1yoUxfBdlaoguym2C0iI3KLaE1Qry7Vap9ruYVuck7esNde3MTSsI1M42ibLPxkLo+riISf8gpr2+B4CNLauibBduivp94sclxrvPQruzZvoZgd1MnwUvpJ1fYih5KZqRYXQXDxrZbL659vbnfjOPGZPp+/ILR3jyh2TeFjE63hFrv/PgBm12GWWgbo4ix6v1Qn6FdqSMlbLIkoUSISF9hxFqqV9oLtAov1uJhZDFBjsxns5DVt2ly9/ulmd7+f8QnfUFzDio/NgLudbF0Wo/qwiS6r9v7M6ropUyEiSWIjTqtAhbsdk7WIZlXlYWbmJAiuvOcRLNlFbEibq1c/3+1ubsczZXTy58KJK+d/lGRyjOgRnMu7k03+ojtcc1RcKPq5AVBVIVISSRJTFmliWm2hDBfrtRLyJgRQt1X84yEFQEyby+u394cP7/azfG2X184gF5X4cdZ0and4iSg8/ow+xM+smXk30kJEJfXzwSpJnIKnvYieLA+zuTiSSRqVzIQg2pZRBCBlBURIefvyzTi///vtyE8RlLDXDT0RxU+9nnCmja4pDY+0DxZtWEcU7T4LSfRc66bOSq+1/R8JVZ5ECE0WUkQVshMD8/bq1czv//Juf17z/rNcvnZ2HkyBjrx0ieijt3YVjkqjnljbivF6qgIRlVBVSImSRBrXG+TqmlZdpDALLYQLiUgG3DhbPQ8XLwU+/Pz3u/MkCD8nKPX9bmc3Lk4+nsH3Wv7p1Px90aXHE9dCoZuzqCFKlanfdiRrhhCLzkidy9tGbUkMbqEmJMNAxZUnMA3bq/L2zYtNKud8b59bKYXSwOKaSufzDyT3CJ+g7xFlapSebfixRh8VUdGvKtXNOehGq1bu40Iqt4o+pERBIvM0Smmec05MIiKAaTBRtTPaeJ+XNgXxuiWUfRRBfbRD2lfy50XC1Xb80sj9gqIigtkoLhoETcKwFkzdmIC5FC6ZGbXq8TAzK01DJgSyZQDFtBKp+6pvqB1Co65MPhGZHyLULD+HEz/teJmmGuoCzjYQdLE2EESlmC33Pw1XcwE/ABwKHbmYhbq7F2YWGnNCBLKFKgWfrTxFUMKoIaA74rss1U+Q0xWXiD7yb7Z8MHXdXO57U4sOlfekKZrebVrYbS32+u0V0ZQSaqiYcuHCgqaVmrjMM4sipYRPFpRcj7caaAzSWgp65P1H6ehjlrzWtMQm9BifRm1btsS1qgjjEQkj5lS6pLWoq7yUlBJoh2dhgZwIQJOUeS4CQOHzHwP1k9ZqukE4UQpApZ7mWMakB0z00wgUeGIQ3z2P6yaq4HHB0T6N3uNrZt8A5RAmKkU0kbPJSymsSCnUP57MQlOcU7IdO/1IOPo8aJsa22KHSU8hGm2/44Z3E7zvzxFaYl9KmVMiBY66yQAlBBHOJj+lSOdGpU8EtDPSVLtgyI29hA/Sfh/aHv6IDx2vceOC/6k9E8LW8k6ME1H7qbGJughzmZOJILfWUylzKbOwTfGy90yM+YhPEuUr6S2Wr4hRROzYq9QB3FLf91Fz1/MttbuKdcKvAZ1FdTrKdTWnWedsnXsV4SHyUNvz52S7t9k/htEHIU8SlCrhytgsQkQmUgnqJ6BPW+nxYja2OvPM9nQfvBfXmI8W71p3v14EbxNQW6z11RsRLiU7BZiLLVEnG4pmm03p46fLv/gNtUfIBRm1MDMJM/r2PuiRbtUjnWpdRaFHeADa6RDoUd/lZIMKe0mi7jitijAV1zVlLmXws6wyz9M8T0zCZd5M2ef/Nqr76oAqtkhe91g0cWFmogIQO5LnnC7BpSXByf97yu8BlllocKh6zdsQaNfKk/DYpM1Gi+kimN7M4MjxPM3TPBUsZZ6GITufdT/O53n8J1tomz4i2tahlpILcyl+w2JRNOmDSOJDGD5m2fVsEKxFWpeIhrYgNOliz5qgaW+CyffYeD777VaZpmmapxnLPOQ8uMI4HaZepu7rp022gZZSHjYDmHxdIlyEYj0n1cTF4P4jiK6K+MVhkKXX1z8FK6pefetuuCOocrJEaZhzMk6kTNM0TdMMKU/J1tUoUTqMs8iTzZTqhZ2Uh2GLpZRS8lwPRsm6n6ePj/v6AxfnbavqQ63rpY0GhadZam+ioKroiM5D9tVJnadpnKYZyKFMKaWU91NhfSJA1VZnmAsyiyoCUoLuSlJNnGGp3IGrP5+a7GFHSFrNWFdF63JHbN3zW/x3CXt4vAoRUhxx4pRS4pTULVQpzq0mSintD37P7isDWhW8hMvkNRy55FnKRpK3fHTRf+qk/9bT0qO0CR/ajYcTW7aoD44IFU8Nvd3bRRgUVUiob+Yli/LTNJqFCiW/VLYLzhg8QT9UTXDG6KtICVQBCTInEzYXtCE4dCQxfHCmf5w24epfGx98MRYkPjzOeLVRHrG98CokjCAkpN1lCLXB/hxvKCeRJL4GtBsLP90b6iYKFpliD0CyKYgwCgqoVEWWpUo8rrx/9WAuWIjwkVF1l8nj0c863TLQOBgCqGiFSLT9bLA/z/M8zbOmJCKSnD21n+bzPP4zann3eSlgu+bqdHVf3UQUYUSxRRroJGPxBJwLh8elhZ5ROeNS8/J0twBX3uXqJqSoqJLCmkmJlMzlpxn8cKMXWYeJRc7x+M+L8qjWEsEZKSEBARKaNA8SCqPYrbRKBfUW79pE4w3VpSXqMYfpNDdVj1RHjlp/7s/13IubKIAanbquOikpkSTT4ZxnW/NW8jzr7ELps95QBFVBBkAsaYYMCJAo7iFXkqZvHSz437h24zWYzUTxnDRWHwhiq/1vn9GGyL1YGkUGqP3UpEpELmw6Fx+YmoCXivVGzkntP6NSavuy9j1JBiRFomTbvYgc9b60RBDwGNHu0TzJ49PH8MQj6eD1Z1VXG+okLPj4qioEQiAkts8v0F0YVBVT5BNQo/OMhZ+QY+/qGMG9GAYWIPJLDFSVAYMN0TiepwCF5YPQzdz1KN4fIQqPNgn6fZumk+Vbntj+tOycIqWUFFIwzgoXLgcrlJ5iplTJc3YWxgaxCoQgISfd5SpryT/sg1GrFGDF6Ou6H6f1PBf0kaPMqbNJ6MSxsFsFN6kO0zXvVuoQKWVVIDBOJKiUeS5lLKz6hJRwp725WLwoUE4uJot1PcPkb7Td5qunmGAR1tc0036uqaDrqR50P31NPFhxq5tt2gm1Bmj8WKzb1o8fKWUFJLCmiIIJ+E+sT+by3Ry4kgMpDYz1FgM2mS/pWp6LwyyLmL7YJYnYtNQOxnWyjyerflwNuyuaFN6NTY213YNpZ4yAslotjUiI7PrbRUSfrNvULuyp0TEAUy4lteVXrHhSbMd1MtMnc6G60NEOgi/n6AtMg70UGyLL0j9+Bvr9J0cwlugIm8RtiHO1VIASIHHWoE77qRJ5sk26jtARcwjEOReGED+uDygJiU/tNOLBwxEEOx+NzbqQa4cVpiFJ2BqveIKOEc+nn4DA/gd7PKmuOyECAZLUQzkCEoP6M9dAPq/07DaPBJGplOKkobYPjwjUGAn1u9OT0aWPH4TUjX6Cz90w1WbH+qByajvS3IJQg5kc6E4+LmyBkLqDZazCXFhUn9JCaySJl9QOa8UjZPq/1kOhDlCqwt2rO8HdnmHcvNF2LIjbJTVtGqammqWgi7VvXXxM1JliIuze1Wa2DWsTKorfi7lwUZ6maZrrUa2nA7RTmLY5VyklLNChYbWmU1C9uoC6VFLu8kUIR4R2Va6KDrYAFQvLgKq43EE8DSghIZKHvT4m1T8QkUKWExER5sPIPE7397txmkXOv1L7JVJtrR/GzIWICFNVFUHxjVS3xpCtifRQl9l3XOTx504c0BJCuBGj4ngKxpgIFY5NtL7iYaCWKQEiQtilZafULDYNwzBk/9hHZORpv9uPUxHW84UFv0iqLTJSFSklAQKlXJNoYUQ0lQrr81HKKfvr1cr2lre2JNEOdahKKXMpXKRjx4u2OjZsFvsevjaRgUWC5Jk9oR+ibaIF9peU7Zx2opQS7soBeDrsD5NTmZ/a5ReTHLNRJMA0hKAlFezXJtyjcorbitGjq5caKqJIWAGdhrnMKdZipDsEFqyFVW+k+3+4cu7Qz6m6mwupDqLk97RzzgnTeA88j6PpYX2CHNYXSrX1MyZSoDQkC58FsfSPJZl04saGXsGFbHx9hEXaZIByGeZ5ziUugbkcoPQkFq26Aqgrn2/3FJp/E/rgjVZFm1noxWYYhpwHxPuMPI0miQnPJoSlVZ2CmZMipSFHejcjYom8GzEPg7mUKQgH98OzU+zW3xHQRavE1Ijnou2giOvUdLfSWmOpTuurhVZfxxahQmV7QYNGsvPPF5thGIYB9cMAPE/zpwT4rwBoHSQKl0RZFCkDdAfPXRUPgYZh2Gy322EYTOPTlao6Fep+dOfL63POecqJ/fafFC5MIv3REAv6ca4i+ilQRRub8LNHvJAw7n8HBUp5GDab7XbYDMMw4CFpmaZp5vMXu78KoD4MFy4TiAKmAUWAUm2QuygLkMulboZh2AybZDmktu8ZouQ0VTWxjWpxrRxPS5GQiEX6izZ+f64eb2sLTWGh/vdraZRSzgP1E34F2l5sN0NOCIwqRW/f/fbuw/1h5k+VE/xi3SZPnAoIiyqSgIKiP1GmPmclcvIRd855yNnbvFVgLdYJ4/qSKQpHMVPV7CzFJYX+VFDtbC7v/rbmB/RdPBfGTO0QFAIAbbabTU4g84yAUP7r//vLf324j9nxcwJqqZN4jx6TpngV++YxpPjKhqin7hYiKLn1+JVKYSZm8PPVRBS+7K4rurgMDg7VaiU+TDKKB4qYb97Sq8AjUh6GYSD0xZrxb3/5r/f3Nkl6bu07m3CY/ilSxuSEIIB+fSGiu3t+dlvElONvECVfybbLXADaDlibe7qFcT1kGzEptOirnpCJFccvjpqzWmjOeQi4/Q8L/iDTNI3TtPvr39/dnz/3+MoWCjX6YBpoGIAwZRdAimzbjNOE5oc8ZNdtxZxTzs7KSgmkMBcu1OGJRClUXTxau9xwaCxFBG97nK5lZe9JJFItzqeUhiHIS61DAojI83633+3u/v7u7vDpEQm+mjqjTe0Q05gAMGMatBG/1PPQlN3lh5xdMwXzYGmUgY22NGAaICLREYqSSiyyxIprxLCYZEC1W60W6hcCoL4LhG6h8RF7nh+17Xy4u727u/3t1thMoPAt3lCTVgDEecqIWTENkdC7bg+l+AZMKNnvK+Ew5CHnweFGLmW2dQs7POEk6WB3IBFRO2MXvu09o17aUi21pERUf5bVSxbmh2wZsX+SRLHmOe3vPtzc3t3sPw/Pr+PyPikTBiQoRQSQKFTibZLcnCocUEFRLRYM8a2BzCnNZm3KKXFKkkWi9S7kq5jJMHULDafV5X48Gnuu9vPN5b1kGzZ5yHmwExCJEvCsZZ7nu/f/+O39zf3u3ijL3+oNdURZVeZh2Gx3l1dJalUD7Zp88SRJXY0qDcNmM2zykOwMA5OftbUtomydEHElb41zysKceAloInTVkHB8dG+OmsFD0rDZbDebzWbIQx5yJhN/0Gl/2O/3+w//+O3D7e4wTUVE4Zl17FftURfUn9NwOOx2uYZgK2R874JchMpzmDxstlaQmjot1xGPqh2tBETiyIs49dep67DJlVhrf9/LgRRFe98moGG73Wy3m409NpnUbz/f3d7d3t59+O3mfh8V59Ndnj33IRVUYSrzPE0Z+yEuiggTOQ8fhHNKgClls5d6erHOzGyX3aYd5NF9AWi7EeqmSKgc3RNVUXu2c6qNO2/fDdutWegw5CEnNFmMeXfz7v37m9ub2/txLqxnz5CeDNAwUvTjepmabreSnU0M4xMRGYAAKQ+DuZ+L/VIb0gkXtlidpFpotvVBN1K3UAs+CcVfAnd7spwieaLpY0AaNtutNRWGPOQEzApSpt3Nu3+++3B3v5ucxgRPeOTvfEhte11FpPh9IyIlALLzW74oYucoE2Cy+LAZPBsEDuk1ES65KCJR4gaofeXCzDaJDAtNlKwqSHFqWSl57uAfrNeYQ3i8AaqgqFzG3c27397d7D65ofyUgFZIVVWZKImY8qTRRlE4TpuJACYFStEvcUX/aFOpCOdhzoCYmFk7QIWZS+bCyUe7CnHmy2yX2IVt4taYq4c7+ZvydrPdbAZ/Q5Ppjc3j/c379zd3h4k/J5t/MkDrbNm4gaIAmtTUEtk6+D4cpsQCSGmwvKmfo1XxipyBSJJwtDbEGqJcuOSSS7PQlCgllFJS4ZI8NlHOjmju7jbisNm0JzQnTqhS5sP9zc3t/cGC+5dcR/7agNbaXlVIhNnNJ0sy6XPTUdCUN26hOQ85JR+ZUvwbWZwungh5G1oboIVLEW+LEhmg9qP1HrgZ6JCT/REkgTwMQ06IasupZb/b3d/fvfvPv7+73X85nk8AaAjXKwoJF7/DxSnlHJJziTVtWO2e7pBTzugzMwWAHANQyhxTOa+UWCqgpRTxIjOivP04F+/9pTTk+pUyhkxgTglVCs+EiDDd3t7e3N6+//s/b/cTfzGeTwFobdyiCiExpZREUvY7NJJEGIYiAtUpiSqTjNrNqTRwrctt9OwqFoZbiWP1aGNMsEYAF0O9unzOQ85mocYJIiTQ4tvH+w/vP9zc3N1+uDvM5YvC0dMB2pawUVGIRETF8CQgEmKCwXQn4lpd5b1SDJqIKOW6J+DUrSpc4xZqVTtGiuBAW0tTscczZ+rZJyBSSilzme9+e//h9m6/28dG/Jfh+UQW2m5ZYK+YhsRgNRJsTLsney+04xFTu9OZZUGAgqqtZI8oh/a9n/SSUl9RBzTlnLLXmNF/9vFKGcdxHMfDzW8fbu/3o9Wa+qVwPqHLY9Wlq2dcEYkABQlR5yIK5AGY2k0JR8g6SEmXupraI8qFveMWLG8ppmvlaT96OMrDkPOQMUQuuTCIlHG32+13uw8fbnb7aS7nLiV8I0ArpHGs0tpnLOwtp7mwInptaDf2gtpDEYUowZJG7hKf4mpA0Vlyi1a/KRullH9czUINUJ4RBHged3e3d/f3Nze7w1SKfA13f1JAezqnT5wUAJKFF877/eEwFe5WUlc05Z7/0KUPsRqTNGHI0Xqlrl72O5MM2mUVFRGyB1eY52mcxt2HDzc3d/f397tDmOfXwPMpAa0QKaoqMpcyj8m++zTbTeVxnF5cbje5Q8B4mSyFCytWZr62NzQSp3bDzn6aPQTF/sxs/VDKeRjykAd/Q2W2t3N3c3N7vzscxqkw61fD82kBbTsjoihMc0rk47Jp3N/dvPvtp7dvXl+/uNwmiJpTRdTllOainfSrAvRpUymFjU4SrE+NKG8PLENMkHJOOWevlHSaxnGapsP9bj9O88w1GH0VPAHhqb86jo2xDmw1YHNx+eL69ZvXb96+fvXqKjudy02wzPM0T2Op2qo+CAzxRMs3Oe5N+raxxapoRsni/h/Vnc4yz/NcynyYZrvqFfRv+EEAhe7wG7bNgTxsthdXL15ev3r96vXLjY0f0TkOZZqmaRrn7gydt6BCUI2LBIUMYk/C/qb/URkKbfhuLB/xzL8UP3z5NeF8FkAXR4LqkDxRzsNmu728evHi+sXWT8pZJ1PKNE/TPJXFSTYNGkT9WtzmBHAFZY9DTS6g2ytzDTFVUZamLKhf+3t9PjOt353ztoZh2G4vLwbvnfqknefiup2dWosGh6z+pVsOMahUZaFVD3rim+0UruFB6Z7vHlBYa460S3I55HyICOIyj3PrF4pCIVun7ZwV9Kv17W+060yttbBcI1388h8U0OUqZrf1kVKMKWKxQNsBj/7b1tUfcPrK1fK0aEO0Zzk/EZxPnjY9mEs1ir5pKNmade2CLHfoTgFah2gNqwVrtLPM9pdHLhJ8rS+C//76b0C/56//HzY/lWpSIpQ7AAAAAElFTkSuQmCC;" vertex="1" parent="1">
          <mxGeometry x="300" y="170" width="80" height="80" as="geometry" />
        </mxCell>
      </root>
    </mxGraphModel>
  </diagram>
</mxfile>
